<svg version="1" xmlns="http://www.w3.org/2000/svg" width="506.667" height="506.667" viewBox="0 0 380.000000 380.000000"><path d="M4.9 152.2c-.1 2.9-.1 44.8 0 46.9.1 1.2 1.3 1.5 5.1 1.5 2.8 0 5.1-.3 5.1-.6.1-.3.3-4.1.4-8.5.2-4.4.3-8.3.4-8.6.1-.3 3.7-.6 8-.6 9.5-.2 13.6-1.8 17-6.9 3.2-4.6 3.4-13.4.5-18.5-3.3-5.8-7-6.9-22.6-6.9-13.6 0-13.8 0-13.9 2.2zm25.3 8.1c.9.7 1.9 2.9 2.3 4.9.6 2.9.3 4-1.4 5.7-1.2 1.2-2.7 2.1-3.4 2.2-7.8.6-10.9.4-11.4-.5-.8-1.2-1.2-11.6-.6-12.9.7-1.2 12.7-.7 14.5.6zm39.5-7.5c-.5 2.3-1.1 2.8-3.8 3-13 1-21 13.1-16.8 25.4 1.1 3.3 3 6.3 5 8 3.3 2.8 10.7 5.8 14.1 5.8 1.2 0 1.9.6 1.7 1.7-.3 3.5.2 3.8 5.1 3.8 4.9.1 5.4-.3 5.1-3.6-.1-1.2 1-1.8 3.8-2.3 3.8-.6 9.8-3.3 12.9-5.9 2.6-2.1 5.2-8.8 5.3-13.5.2-5-1.8-10-5.4-13.9-1.8-2-11.6-6.5-13.5-6.2-2.3.4-3.2-.4-3.2-2.6 0-2.3-.3-2.5-4.9-2.5-4.5 0-4.9.2-5.4 2.8zm.1 22.2c-.1 13.4-.3 13.8-6.4 10.1-7.1-4.3-6.8-16.6.4-20.5 5.8-3.2 6-2.8 6 10.4zm17.3-9.7c6.4 4.3 6.2 15.7-.4 19.8-5.7 3.5-6.2 2.8-6.3-10.4 0-13.2.3-13.7 6.7-9.4zm45.1 9.9l.3 25.2 5.3.2 5.2.2V159h9.5c6.9 0 9.5.3 9.6 1.2.1.7.3 9.6.4 19.8.1 10.2.3 19 .4 19.7 0 .7 1.9 1.1 5.1 1l5-.2.1-3.5c.1-4.2.1-44 0-45.8-.1-.9-4.9-1.2-20.6-1.2H132l.2 25.2zm61.1-13.1c-5.5 1-8.8 3.2-10.7 7.4-2.4 5-2.1 5.5 3.4 5.5 2.8 0 5-.4 5-.9 0-3.6 7-5.3 10.6-2.7 3.4 2.6.7 4.9-7.7 6.3-4 .7-8.5 2.1-9.9 3.1-5.2 3.9-5.1 14.6.3 18.6 3.8 2.8 11.7 2.7 15.5-.1 2.6-1.9 2.9-1.9 3.9-.5 1.3 2.1 11.3 2.7 11.3.7 0-.8-.4-1.7-1-2-.6-.4-1-6.3-1-14.3 0-14.5-.6-16.9-5-19.2-3.3-1.8-10.3-2.6-14.7-1.9zM203 186c0 4-3.9 8-7.8 8-3.7 0-5.6-2.2-4.8-5.5.5-1.9 1.7-2.8 5.4-3.9 6.7-2.1 7.2-2 7.2 1.4zm38.5-24.4c-.5.1-2.2.5-3.7.8-1.5.4-3.7 1.6-4.8 2.8l-2 2.2v-2.2c0-2-.5-2.2-5-2.2h-5v52h5c5.7 0 5.3.8 5.1-11.9v-6.4l2.4 2.3c1.8 1.7 3.6 2.3 7.7 2.3 6.2.1 8.8-1.1 12.3-5.7 6.3-8.2 4.9-25.4-2.5-30.8-2.6-1.9-7.8-3.7-9.5-3.2zm1 10c2.5 1 4.5 5.8 4.5 10.8 0 10.3-10.3 14.5-14.8 5.9-2.5-4.7-.6-15.2 3-16.6 1.9-.8 5.4-.8 7.3-.1zm76.3-9.5c-8.8 1.3-13.5 7-14.5 17.3-.9 9.2 2.5 16.9 8.9 20.2 4.3 2.2 13.4 2.2 18.2-.1 3.6-1.7 7.6-6.5 7.6-9.3 0-2.1-9-1.5-11.4.7-4 3.7-9.7 2.8-12.1-1.9-.8-1.6-1.5-3.1-1.5-3.4 0-.3 5.7-.7 12.8-.8l12.7-.3-.3-5.5c-.7-12.2-8.6-18.7-20.4-16.9zm8 9.9c1.2 1.2 2.2 3 2.2 4 0 1.8-.7 2-7 2s-7-.2-7-2c0-2.7 3.8-6 7-6 1.4 0 3.6.9 4.8 2zm-62.2 9.2c.1 10.1.2 18.5.3 18.8 0 .3 2.3.6 4.9.6h4.9l-.2-5.5c-.2-4.4.2-6.1 1.8-7.8l2-2.2 5.4 7.7 5.3 7.7 5.8.1c3.1 0 6-.1 6.4-.3.4-.2-1.9-3.8-5-8.1-3.2-4.2-6.8-9.1-7.9-10.7l-2.2-3 7.7-7.8 7.7-7.7H288l-6.4 6.5c-3.5 3.6-6.5 6.5-6.7 6.5-.2 0-.4-2.9-.3-6.5l.1-6.5h-10.3l.2 18.2zm78.2-16.5c-.2 1-.2 2.8 0 4 .4 2.1 1 2.3 5.8 2.3h5.4v29.6h4.8l4.7-.1.3-14.8.3-14.7h5.4c5.7 0 6.6-.8 5.7-5.8-.4-2.2-.6-2.2-16.2-2.2-14.3 0-15.9.2-16.2 1.7zm-237.2 14c.1 1.6.3 3.7.3 4.8.1 1.9.7 2.1 9.6 2.1l9.5-.1V176h-19.6l.2 2.7zM4.4 214.4c-.9 2.4.1 11.9 1.3 12.3.6.2 2.3-1.5 3.7-3.9l2.6-4.3v4.2c0 3.2.4 4.3 1.5 4.3 1.3 0 1.5-1.2 1.3-6.8-.4-7.9-1.7-8.6-5.3-2.7l-2.4 4-.1-4.3c0-4-1.5-5.7-2.6-2.8zm364.1.2c2.4 1.8 4.1 1.8 4.8.1.3-.9-.6-1.3-3.1-1.4-3.4-.1-3.5 0-1.7 1.3zM113 216.9c-2.2.6-2.5 1.2-2.5 5.1v4.5l4.1.2 4.2.2-.4-4.2c-.5-5-2-6.6-5.4-5.8zm2 3.1c0 .5-.7 1-1.6 1-.8 0-1.2-.5-.9-1 .3-.6 1-1 1.6-1 .5 0 .9.4.9 1zm-.4 4.7c-1 1-1.9-.5-1-1.8.6-1.1.8-1.1 1.2 0 .2.7.1 1.5-.2 1.8zm26.7-7.6c-3.3 1.2-2.9 3.1.5 2.4 2.5-.6 2.6-.5.9.8-1.8 1.5-1.8 1.6 0 2.5 1 .6 1.5 1.4 1.1 1.8-.4.4-1.4.1-2.2-.5-1.6-1.3-3.2.1-2.1 1.9.7 1.2 6.4 1.4 6.6.2 1.4-7.4-.4-10.8-4.8-9.1zm70.7.2c-4.9 2.4-3 9.7 2.5 9.7 4.6 0 6-7 2-9.6-1.6-1.1-2.5-1.1-4.5-.1zm3.6 3.2c.4.8.4 2.2 0 3-.7 1.9-3.6.8-3.6-1.4 0-3.2 2.6-4.3 3.6-1.6zm84.6-3.7c-4.9.8-5.2 8.6-.4 9.9 3.4.8 5.6-.8 6-4.4.4-3.5-2.2-6.1-5.6-5.5zm2.4 3.7c.4.8.3 2.3 0 3.2-.6 1.5-.8 1.5-2.3.1-1.6-1.7-1.2-4.8.7-4.8.6 0 1.3.7 1.6 1.5zm19.1-3.7c-2.8.3-2.8.4-2.5 7 .2 3.8.7 6.6 1.3 6.5.6-.1 1.1-1.1 1.3-2.1.2-1.4.9-1.8 2.7-1.5 1.6.4 2.7-.1 3.5-1.7 2.5-4.7-.7-9-6.3-8.2zm3.9 3.7c.4.8.3 2.3 0 3.2-.6 1.5-.8 1.5-2.3.1-1.6-1.7-1.2-4.8.7-4.8.6 0 1.3.7 1.6 1.5zm-308.1 1.2c.1 3.5.5 4.8 1.5 4.8.9 0 1.4-.7 1.2-1.8-.2-1.2.4-1.7 1.8-1.7s2 .5 1.8 1.7c-.2 1 .4 1.9 1.2 2 1.2.3 1.5-.6 1.4-3.7-.3-6-.3-6-2-6-1 0-1.4.6-1 1.5.4 1-.1 1.5-1.5 1.5-1.5 0-1.9-.5-1.5-1.5.3-1-.1-1.5-1.3-1.5-1.4 0-1.7.8-1.6 4.7zm10.5-3.8c0 .5.7 1.1 1.5 1.5.9.3 1.5 1.9 1.5 4.1 0 1.9.5 3.5 1 3.5 1.1 0 1.2-.3 1.4-4.5.1-1.9.8-3.1 1.9-3.3 3.5-.7 1.6-2.2-2.8-2.2-2.5 0-4.5.4-4.5.9zm10.6-.1c-1.4 2.2-1.3 6.3 0 7.7 1.7 1.6 3.3 1.9 5.8.9 2.6-1 1.8-2.7-.9-2.2-1.4.3-2.8.1-3.1-.3-.3-.5 1.1-.9 3-.9 2.9 0 3.4-.3 3.1-2-.2-1.1-.7-2.5-1-3-.7-1.2-6.2-1.3-6.9-.2zm4.4 2c0 .5-.7.9-1.5.9s-1.2-.4-.9-.9c.3-.4.9-.8 1.5-.8.5 0 .9.4.9.8zm5.3 3.9c.2 6.4 1.6 8.8 2.7 4.6.3-1.1 1.4-1.8 3-1.8 1.8 0 2.7-.8 3.4-2.8 1.5-4-.2-6.1-5.2-6.5l-4.1-.3.2 6.8zm6.7-1.8c0 2.3-.9 3.1-2.6 2.4-1.7-.6-1.8-4-.1-4.6 1.7-.6 2.7.1 2.7 2.2zm4.6-.2c0 3.6.5 4.9 1.7 5.1 1.2.2 1.5-.3 1.2-1.7-.3-1.5.1-2.1 1.6-2.1 1.2 0 1.9.7 1.9 2 0 1.1.6 2 1.3 2 .9 0 1.3-1.5 1.3-5 0-4.1-.4-5-1.8-5-1.2 0-1.5.5-1.1 1.6.4 1.2.1 1.5-1.3 1.2-1-.2-1.8-1-1.6-1.6.1-.7-.6-1.2-1.5-1.2-1.5 0-1.8.9-1.7 4.7zm11.5-2.8c-1.2 2.2-.6 6.1 1.1 7.3 2 1.3 6.3.5 6.3-1.2 0-.8.3-2 .7-2.5.3-.6.2-2-.3-3.3-1.1-2.9-6.3-3.1-7.8-.3zm5.4 1c.3.6-.3.9-1.4.8-1.1 0-1.7-.5-1.5-.9.7-1.1 2.2-1 2.9.1zm.5 3.5c0 .9-3 1.4-3.5.6-.4-.6.3-1 1.4-1 1.2 0 2.1.2 2.1.4zm4.3-4.9c1.1.7 1.9 2.8 2 4.6.2 3.8 2.6 5.3 2.8 1.7.1-1.3.1-2.9 0-3.6-.1-.7.5-1.5 1.4-1.8 3-1.2 1.4-2.4-3.2-2.4-4.3.1-4.6.2-3 1.5zm15.7 3.6c0 3.6.4 4.9 1.3 4.6.6-.2 1.2-1.3 1.1-2.5 0-1.2.3-1.9.8-1.6.4.3.8 1.4.8 2.5 0 2.5 2 2.5 2.7-.1.3-1.1.9-1.7 1.4-1.5.4.3.6 1.2.2 2-.3.9.1 1.5 1 1.5 1.1 0 1.5-1.2 1.5-5 .1-4.2-.2-5-1.8-5-1.1 0-2.2 1.1-2.7 2.7l-1 2.8-.6-2.8c-.5-1.8-1.4-2.7-2.7-2.7-1.7 0-2 .7-2 5.1zm23.9-3.9c-.4 8.1-.4 8.8 1.1 8.6 1-.2 1.5-1.5 1.5-3.8 0-2.4.5-3.5 1.4-3.5.8 0 1.6-.6 1.9-1.3.2-.8-.7-1.2-2.7-1.2-1.8 0-3.1.5-3.2 1.2zm8.6-.2c-.4.6-.4 1.4-.1 1.7.3.3.1 1.4-.4 2.4-1.7 3.1-.2 4.9 4.2 4.7l3.9-.1-.3-4.6c-.3-4.4-.5-4.6-3.5-4.9-1.7-.2-3.4.2-3.8.8zm4 2c-.3.5-1.1 1-1.6 1-.6 0-.7-.5-.4-1 .3-.6 1.1-1 1.6-1 .6 0 .7.4.4 1zm-.3 4.2c-.6.6-1.5.8-1.9.4-.4-.4-.1-1.1.7-1.6 1.9-1.2 2.7-.3 1.2 1.2zm15.3-2.5c.2 5.7 2.1 6.7 4.8 2.6 1-1.6 1.6-2.1 1.4-1.2-.6 1.9.9 4.7 1.9 3.6.4-.4.8-2.7.9-5.2.2-3.6-.1-4.5-1.4-4.5-.9 0-2.4 1.2-3.3 2.7l-1.7 2.8-.1-2.8c0-1.6-.6-2.7-1.3-2.7-1 0-1.3 1.4-1.2 4.7zm11.5.3c0 3.8.4 5 1.5 5 .8 0 1.5-.9 1.5-2s.7-2 1.5-2 1.5.9 1.5 2 .7 2 1.5 2c1.1 0 1.5-1.2 1.5-5s-.4-5-1.5-5c-.8 0-1.5.7-1.5 1.5s-.7 1.5-1.5 1.5-1.5-.7-1.5-1.5-.7-1.5-1.5-1.5c-1.1 0-1.5 1.2-1.5 5zm16.6-.8c.2 5.6.2 5.8 1.4 5.8.6 0 1-.9 1-2 0-1.3.7-2 2-2 1.1 0 1.9.3 1.9.7-.3 2.1.2 3.4 1.3 3.1 1.6-.6 1.9-9.8.3-9.8-.7 0-1.5.7-1.9 1.5-.3.8-1.2 1.5-2.1 1.5-.8 0-1.5-.7-1.5-1.5s-.6-1.5-1.3-1.5c-.9 0-1.2 1.4-1.1 4.2zm11.3-2.6c-1.2 1.5-1.1 1.6 2.1 1l3.5-.6-3.2 1.5c-2.1.9-3.3 2.2-3.3 3.4 0 2 1.5 2.8 6.3 3 2.7.1 2.8 0 2.5-4.7-.3-4.4-.5-4.7-3.4-5-1.9-.2-3.6.3-4.5 1.4zm4.3 5.6c-.6.6-1.5.8-1.9.4-.4-.4-.1-1.1.7-1.6 1.9-1.2 2.7-.3 1.2 1.2zm6.1-2.2c0 3.5.4 5 1.4 5 .8 0 1.3-1.2 1.3-3.4 0-5.6 3.1-6.3 3.6-.9.1 1.6.2 3.1.3 3.5.1.5.6.8 1.1.8.6 0 1-2.3 1-5v-5h-8.8l.1 5zm23.7-1.6c0 1.9-.4 3.8-1 4.1-1.5.9-1.2 2.5.5 2.5s3.5-3 3.5-5.9c0-2.5 2-2.8 2.1-.4.3 5 .5 5.7 1.7 6 1.1.4 1.4-.7 1.4-5.7 0-1.1 0-2.5-.1-3 0-.6-1.9-1-4.1-1-3.9 0-4 .1-4 3.4zm11 1.6v5h3.4c4.1 0 6.5-2.4 4.9-4.8-.6-1-2-1.7-3.2-1.6-1.4 0-2.1-.5-2.1-1.8 0-1-.7-1.8-1.5-1.8-1.1 0-1.5 1.2-1.5 5zm6 2.2c0 1.3-2.3.5-2.8-1-.2-.7.2-1 1.2-.6.9.3 1.6 1.1 1.6 1.6zm4.6-2.5c.1 3.7.5 4.9 1.9 5.1 1.3.3 1.5-.1 1-1.7-.5-1.7-.2-2.1 1.4-2.1 1.4 0 2.1.6 2.1 2 0 1.8 1.9 3 2.1 1.2.8-6.6.6-9.3-1-8.9-.9.2-1.5.9-1.3 1.6.1.7-.5 1.1-1.5.9-1-.2-1.7-1-1.5-1.6.1-.7-.6-1.2-1.6-1.2-1.4 0-1.7.8-1.6 4.7zm11.4.3v5h3.4c2.5 0 4-.7 5.1-2.3 1.4-1.9 1.6-1.9 1.3-.3-.2 1 .3 2.1 1 2.3.8.3 1.2-1 1.2-4.6 0-3.8-.4-5.1-1.4-5.1-.9 0-1.3.7-1.1 2 .4 2.2-1 3.6-2 2-.3-.5-1.5-1-2.6-1-1 0-1.9-.7-1.9-1.5s-.7-1.5-1.5-1.5c-1.1 0-1.5 1.2-1.5 5zm6 1.1c0 .4-.7.9-1.5 1.3-.9.3-1.5 0-1.5-.8 0-.7.7-1.3 1.5-1.3s1.5.4 1.5.8zm9.4-4c1.3 1.9 1.3 2.5 0 5-1.2 2.3-1.2 2.9-.1 2.9.7 0 1.9-.6 2.6-1.3 1.1-1 1.4-1 1.8 0 .3.7 1.3 1.3 2.4 1.3 1.9 0 1.9-.1.2-2.6-1.4-2.1-1.4-2.9-.4-4.6 1.6-2.5.6-3.6-1.9-2-1.2.7-2 .8-2 .2 0-.5-.9-1-2.1-1-1.9 0-1.9.2-.5 2.1zm15.2 2.1c.2 6 .2 6 1.7 5.5.6-.2 1.2-1.9 1.2-3.8 0-2.4.5-3.4 1.5-3.4s1.5 1.1 1.5 3.5.5 3.5 1.5 3.5c.9 0 1.4-1 1.3-2.8-.3-7.1 0-6.7-4.6-6.7h-4.3l.2 4.2zm22.6.5c.3 4.8 2.8 7.5 2.8 3.1l.1-2.3 1.8 2.2c2.1 2.5 4.1 3 4.1 1.1 0-.6-.7-1.9-1.6-2.9-1.4-1.6-1.4-1.9.5-3.8 1.8-1.8 1.9-2.1.4-2.1-.9 0-2.5.7-3.5 1.7-1.7 1.5-1.8 1.5-1.8 0 0-1-.7-1.7-1.6-1.7-1.2 0-1.4 1-1.2 4.7zm22.8-.7v4.7c0 .5 1.7.8 3.8.8 3.3 0 3.7-.3 4-2.6.3-2.2-.2-2.9-2.8-3.8-1.7-.6-2.9-1.5-2.5-2.1.3-.5-.1-1-.9-1-1.2 0-1.6 1-1.6 4zm4.4 3.1c-.3.5-1 .7-1.5.3-.5-.3-.7-1-.3-1.5.3-.5 1-.7 1.5-.3.5.3.7 1 .3 1.5zm4.7-2.1c.2 3.4.7 5 1.6 5 .9 0 1.3-1.5 1.3-5 0-3.8-.4-5-1.5-5-1.3 0-1.6 1.1-1.4 5zm4.9-4.1c0 .5.4 1.1 1 1.3.5.1 1.1 1.8 1.3 3.7.3 3.9 2.6 5.5 2.8 1.9.1-1.3 0-3.1-.1-4.2-.1-1 .3-1.5.8-1.2.5.3 1.5-.1 2.2-.9 1.1-1.3.6-1.5-3.4-1.5-2.5 0-4.6.4-4.6.9zm9.8.8c-.6 3.4.4 8.3 1.8 8.3.7 0 2-1.2 2.8-2.8l1.5-2.7.1 2.8c0 1.8.5 2.7 1.3 2.4.7-.2 1.2-2.1 1.2-4.8 0-3.3-.4-4.5-1.7-4.7-.9-.2-1.9.5-2.3 1.7-.3 1.2-1.1 2.1-1.6 2.1-.6 0-.7-.9-.4-2 .4-1.4.2-2-.9-2-.8 0-1.6.8-1.8 1.7z"/><path d="M366 221.4c0 5.3 1.6 6.8 4.1 3.8 1.6-2.1 1.7-2.1 2.2-.2 1 3.9 2.7 2 2.7-3 0-5.8-2-6.8-4.4-2.3l-1.5 2.8-.1-2.8c0-1.7-.5-2.7-1.5-2.7-1.1 0-1.5 1.2-1.5 4.4zm-276 .1c0 .9.9 1.5 2.5 1.5s2.5-.6 2.5-1.5-.9-1.5-2.5-1.5-2.5.6-2.5 1.5z"/></svg>