<svg width="512" height="512" viewBox="0 0 430.12 430.12" xmlns="http://www.w3.org/2000/svg"><path d="M430.12 261.54v159.02h-92.188V272.19c0-37.271-13.334-62.707-46.703-62.707-25.473 0-40.632 17.142-47.301 33.724-2.432 5.928-3.058 14.179-3.058 22.477v154.87h-92.219s1.242-251.28 0-277.32h92.21v39.309c-.187.294-.43.611-.606.896h.606v-.896c12.251-18.869 34.13-45.824 83.102-45.824 60.673-.001 106.16 39.636 106.16 124.82zM52.19 9.56C20.642 9.56.007 30.253.007 57.465c0 26.619 20.038 47.94 50.959 47.94h.616c32.159 0 52.159-21.317 52.159-47.94-.606-27.212-20-47.905-51.551-47.905zm-46.706 411h92.184V143.24H5.484v277.32z" fill="#345c04"/></svg>