<svg viewBox="0 0 512 512" xmlns="http://www.w3.org/2000/svg"><style>.st0{fill:#345c04}</style><path class="st0" d="M256 0C148.5 0 61 88.5 61 196s87.5 195 195 195 195-87.5 195-195S363.5 0 256 0zm0 331c-74.4 0-135-60.6-135-135S181.6 61 256 61s135 60.6 135 135-60.6 135-135 135zm232.4 108.5L437 329.2c-30.5 41.3-74.7 71.8-126 84.7l41.5 89.4c2.5 5.3 7.8 8.7 13.6 8.7h.7c6-.3 11.4-4.2 13.4-9.9L404 436l65.7 23.9c5.7 2.1 12.1.5 16.2-4 4-4.4 5-10.9 2.5-16.4zM75.1 329.2L23.6 439.5c-2.6 5.5-1.6 12 2.5 16.5s10.5 6.1 16.2 4l65.7-24 23.9 66.1c2.1 5.7 7.4 9.6 13.4 9.9h.7c5.8 0 11.1-3.4 13.6-8.7l41.5-89.4c-51.3-12.9-95.5-43.4-126-84.7z"/><path class="st0" d="M199.8 146.5c-.3.4-4.3 1.3-12.1 2.8s-13.2 2.5-16.1 3v-16.2c16.3-3.9 27.4-9.7 33.4-17.6h16.2v162h-21.4v-134zm63.5 123.7c-6.1-7.9-9.1-19.6-9.1-35.1h21.4c0 9.1 1.2 16.3 3.7 21.8s7.3 8.2 14.5 8.2c5.5 0 9.5-1.6 12.2-4.8s4.4-7.4 5.1-12.7 1.1-12.3 1.1-21.1c0-8.1-.4-14.6-1.3-19.5s-2.6-8.6-5.2-11.2-6.5-3.9-11.7-3.9c-4.1 0-7.8 1.3-10.9 3.8s-5.5 5.7-7.1 9.6h-18.2v-86.8h69.8v21.4h-50.4l-1.4 44.8c5.7-6 13.5-9 23.4-9 12.4 0 21.2 4.2 26.5 12.7s7.9 20.2 7.9 35.3c0 18.4-3 32.7-9 43s-16.4 15.4-31.2 15.4c-14 0-24-4-30.1-11.9z"/></svg>