<svg xmlns="http://www.w3.org/2000/svg" width="96" height="96" viewBox="0 0 95.633 95.633"><path d="M93.632 18.49H2a2 2 0 0 0-2 2v54.652a2 2 0 0 0 2 2h91.633a2 2 0 0 0 2-2V20.49a2 2 0 0 0-2.001-2zm-68.284 6.763a9.85 9.85 0 0 1 9.85 9.849c0 5.44-4.409 9.851-9.85 9.851a9.85 9.85 0 0 1-9.85-9.851c.001-5.439 4.41-9.849 9.85-9.849zm15.289 45.126H10.395c-5.938-6.782 1.117-19.045 1.117-19.045 2.038-3.305 7.271-4.884 12.24-5.233.585-.042 1.175 1.251 1.764 1.423.589-.172 1.179-1.465 1.764-1.423 4.969.351 10.202 1.93 12.24 5.233 0 0 7.055 12.263 1.117 19.045zm45.929-3.313a1.5 1.5 0 0 1-1.5 1.5h-24.5a1.5 1.5 0 0 1-1.5-1.5v-4.125a1.5 1.5 0 0 1 1.5-1.5h24.5a1.5 1.5 0 0 1 1.5 1.5v4.125zm0-13a1.5 1.5 0 0 1-1.5 1.5h-24.5a1.5 1.5 0 0 1-1.5-1.5v-4.125a1.5 1.5 0 0 1 1.5-1.5h24.5a1.5 1.5 0 0 1 1.5 1.5v4.125zm0-13a1.5 1.5 0 0 1-1.5 1.5h-37.5a1.5 1.5 0 0 1-1.5-1.5v-12.5a1.5 1.5 0 0 1 1.5-1.5h37.5a1.5 1.5 0 0 1 1.5 1.5v12.5z"/></svg>