<svg xmlns="http://www.w3.org/2000/svg" viewBox="0 0 299.47 299.47" width="512" height="512"><path d="M293.248 65.56H6.275c-3.442 0-6.249 2.807-6.249 6.249v59.788c0 3.442 2.807 6.249 6.249 6.249h8.844v155.375c0 3.442 2.807 6.249 6.249 6.249h256.735c3.442 0 6.249-2.807 6.249-6.249V137.846h8.844c3.442 0 6.249-2.807 6.249-6.249V71.809c-.001-3.442-2.755-6.249-6.197-6.249zM167.37 78.058v47.29h-35.216v-47.29h35.216zm-154.846 0h107.184v47.29H12.524v-47.29zm15.093 59.788h92.039v149.179H27.617V137.846zm104.537 149.127V137.794h35.216v149.179h-35.216zm139.752 0h-92.092V137.846h92.039v149.126h.053zm15.093-161.624H179.814v-47.29h107.184v47.29zM89.206 63.866c1.959 0 4.607.053 7.573.159 4.978.159 9.85.265 14.563.265 16.681 0 31.086-1.324 38.394-7.096 7.308 5.772 21.712 7.096 38.394 7.096 4.713 0 9.585-.106 14.563-.265 3.019-.106 5.613-.159 7.573-.159 17.582 0 31.933-14.298 31.933-31.933C242.198 14.351 227.899 0 210.265 0c-12.657 0-47.396 18.111-60.53 35.11C136.602 18.111 101.809 0 89.206 0c-17.582 0-31.933 14.298-31.88 31.933-.053 17.635 14.298 31.933 31.88 31.933zm121.112-51.368c10.697 0 19.435 8.738 19.435 19.435s-8.738 19.435-19.435 19.435c-2.065 0-4.819.053-7.943.159-34.793.953-43.795-1.959-45.225-4.448h-2.224 2.224c-.054-8.738 39.717-34.581 53.168-34.581zm-121.112 0c13.398 0 53.063 25.79 53.222 34.528-1.589 2.595-10.75 5.507-45.278 4.501a245.674 245.674 0 0 0-7.944-.159c-10.697 0-19.435-8.738-19.435-19.435s8.684-19.435 19.435-19.435z" fill="#345c04"/></svg>