<svg width="512" height="512" viewBox="0 0 56.414 56.414" xmlns="http://www.w3.org/2000/svg"><g fill="#345c04"><path d="M1.415 14a.994.994 0 0 0 .58-.187c.204-.144 20.626-14.404 39.819-.013a.997.997 0 0 0 1.399-.2.998.998 0 0 0-.2-1.399C22.665-3.063 1.05 12.032.833 12.187A1 1 0 0 0 1.415 14zm51.502 12.134a1 1 0 0 0-.37 1.364c.192.337 4.622 8.332-2.84 15.795-2.741 2.739-9.128 3.895-13.912 1.172-4.812-2.738-6.378-8.497-4.412-16.218a1 1 0 0 0-.722-1.216.994.994 0 0 0-1.216.722c-2.98 11.703 2.079 16.583 5.36 18.45 2.143 1.219 4.695 1.809 7.215 1.808 3.501 0 6.935-1.138 9.101-3.304 8.568-8.568 3.214-18.111 3.159-18.207a.998.998 0 0 0-1.363-.366z"/><path d="M45.299 0H31.295l-3.703 3.691c4.301.563 8.815 1.979 13.326 4.692.704.423 1.52.665 2.34.622.719-.038 1.505.157 2.388.816 1 .746 1.721 1.875 1.719 3.122a3.94 3.94 0 0 1-3.936 3.928 3.91 3.91 0 0 1-2.92-1.312 6.796 6.796 0 0 0-1.24-1.107c-5.967-4.031-12.006-5.236-17.397-5.059L5.999 25.213l.008.008L0 31.213l25.146 25.201 8.56-8.537c-3.076-1.791-9.546-7.264-6.234-20.48.357-1.423 1.65-2.492 3.114-2.394a3.003 3.003 0 0 1 2.735 3.737c-1.748 6.866-.551 11.702 3.463 13.986.458.261.938.476 1.43.654l13.269-13.233c-.314-1.014-.655-1.627-.667-1.647a3 3 0 1 1 5.196-3l.047.084.356-.355v-14.14L45.299 0z"/></g></svg>