<svg id="Capa_1" xmlns="http://www.w3.org/2000/svg" viewBox="0 0 512 512"><style>.st0{fill:#fff}</style><path class="st0" d="M330.7 327.4c30.6-22.3 49.2-57.5 49.2-94.6 0-16.7-.9-30.6-2.8-42.7h22.3c5.6 0 10.2-4.6 10.2-10.2v-44.5c0-5.6-4.6-10.2-10.2-10.2h-17.6c-9.3-46.4-43.6-84.4-89-97.4V10.2C292.6 4.6 288 0 282.4 0h-51c-5.6 0-10.2 4.6-10.2 10.2v17.6c-45.4 13-79.8 51-89 97.4h-17.6c-5.6 0-10.2 4.6-10.2 10.2v44.5c0 5.6 4.6 10.2 10.2 10.2h21.3c-1.9 12.1-2.8 26.9-2.8 42.7 0 37.1 18.6 72.3 49.2 94.6-75.1 28.8-126.1 97.4-126.1 174.4 0 5.6 4.6 10.2 10.2 10.2h379.4c5.6 0 10.2-4.6 10.2-10.2-.1-77-51.1-145.6-125.3-174.4zM123.8 169.7v-23.2h16.7c2.8 0 4.6-.9 6.5-2.8.9-.9 2.8-3.7 3.7-6.5 4.6-39.9 32.5-73.3 69.6-87.2v65c0 5.6 4.6 10.2 10.2 10.2s10.2-4.6 10.2-10.2V20.4h30.6v93.7c0 5.6 4.6 10.2 10.2 10.2s10.2-4.6 10.2-10.2v-64c37.1 13.9 64.9 47.3 69.6 87.2 0 2.8 1.9 5.6 3.7 6.5 3.7 2.8 5.6 2.8 7.4 2.8h16.7v23.2H123.8zm-46.4 321C83 420.2 135.9 359 210.1 340.4c4.6-.9 7.4-4.6 8.3-9.3 0-4.6-1.9-8.3-6.5-10.2-35.2-16.7-57.5-50.1-57.5-88.1 0-16.7.9-30.6 2.8-42.7h198.4c1.9 12.1 2.8 26 2.8 42.7 0 38-22.3 71.4-57.5 88.1-3.7 1.9-6.5 6.5-6.5 10.2 0 4.6 3.7 8.3 8.3 9.3 74.2 18.6 128 79.8 132.6 150.3H77.4z"/><path id="settings_1_" class="st0" d="M328.8 399.2l-15.6-2.6c-1.1-4.6-2.8-9-4.9-13.2l10-12.3c2.1-2.6 2-6.4-.2-8.9l-6.2-7c-2.2-2.5-6-3-8.8-1.3l-13.3 8.4c-5.9-4.1-12.5-7.1-19.6-8.9l-2.6-15.6c-.5-3.3-3.4-5.7-6.8-5.7h-9.3c-3.4 0-6.2 2.4-6.8 5.7l-2.6 15.6c-5.9 1.4-11.5 3.8-16.5 6.9l-12.7-9c-2.7-1.9-6.5-1.6-8.9.7l-6.6 6.6c-2.4 2.4-2.7 6.1-.7 8.9l9.1 12.7c-3 5-5.4 10.5-6.8 16.4l-15.7 2.6c-3.3.5-5.7 3.4-5.7 6.8v9.3c0 3.4 2.4 6.2 5.7 6.8l15.7 2.6c1.2 4.8 2.9 9.4 5.2 13.7l-9.9 12.3c-2.1 2.6-2 6.4.2 8.9l6.2 7c2.2 2.5 6 3 8.8 1.3l13.5-8.5c5.7 3.9 12.2 6.8 19.1 8.5l2.6 15.6c.5 3.3 3.4 5.7 6.8 5.7h9.3c3.4 0 6.2-2.4 6.8-5.7l2.6-15.6c5.8-1.4 11.3-3.7 16.3-6.7l13.2 9.4c2.7 2 6.5 1.6 8.8-.7l6.6-6.6c2.4-2.4 2.7-6.1.7-8.8l-9.4-13.2c3.1-5 5.4-10.6 6.8-16.4l15.6-2.6c3.3-.5 5.7-3.4 5.7-6.8V406c0-3.4-2.4-6.3-5.7-6.8zm-72.6 40.9c-16.3 0-29.4-13.2-29.4-29.4 0-16.3 13.2-29.4 29.4-29.4 16.3 0 29.4 13.2 29.4 29.4.1 16.2-13.1 29.4-29.4 29.4z"/></svg>