<svg xmlns="http://www.w3.org/2000/svg" viewBox="0 0 512 512" width="512" height="512"><path d="M315.743 85.333V128c0 32.939-26.795 59.733-59.733 59.733S196.277 160.939 196.277 128V85.333H179.21V128c0 42.342 34.458 76.8 76.8 76.8 42.351 0 76.8-34.458 76.8-76.8V85.333h-17.067z" fill="#345c04"/><path d="M495.882 437.743l-45.926-183.876c-4.881-18.876-21.871-31.718-40.713-31.974l-102.042-7.919V179.2h-17.067v42.667c0 4.454 3.43 8.158 7.876 8.508l110.592 8.559h.051c11.674 0 21.862 7.893 24.772 19.132l45.909 183.825a42.918 42.918 0 0 1 1.28 10.377c-.009 23.526-19.149 42.667-42.675 42.667V512c32.93 0 59.733-26.795 59.742-59.733a59.336 59.336 0 0 0-1.799-14.524zM204.81 179.2v34.773l-101.359 7.893h-.085c-19.447 0-36.437 13.15-41.327 32.068l-45.901 183.8c-3.883 15.479-1.51 31.539 6.69 45.227 8.192 13.687 21.231 23.364 36.702 27.238a59.689 59.689 0 0 0 14.549 1.8v-17.067c-3.499 0-6.989-.435-10.385-1.289-11.059-2.773-20.369-9.677-26.223-19.456-5.854-9.779-7.552-21.248-4.779-32.316l45.892-183.74c2.927-11.324 13.141-19.226 25.515-19.226l109.909-8.533c4.437-.341 7.868-4.053 7.868-8.508V179.2H204.81zM290.143 0h-68.267C198.35 0 179.21 19.14 179.21 42.667v51.2a8.536 8.536 0 0 0 8.533 8.533h136.533a8.536 8.536 0 0 0 8.533-8.533v-51.2C332.81 19.14 313.67 0 290.143 0zm25.6 85.333H196.277V42.667c0-14.114 11.486-25.6 25.6-25.6h68.267c14.114 0 25.6 11.486 25.6 25.6v42.666z" fill="#345c04"/><path d="M290.143 51.2h-68.267c-23.526 0-42.667 19.14-42.667 42.667a8.536 8.536 0 0 0 8.533 8.533h136.533a8.536 8.536 0 0 0 8.533-8.533C332.81 70.34 313.67 51.2 290.143 51.2zm-92.399 34.133c3.516-9.933 13.005-17.067 24.132-17.067h68.267c11.127 0 20.617 7.134 24.141 17.067h-116.54z" fill="#345c04"/><path d="M256.01 128V93.867h-17.067v42.667a8.536 8.536 0 0 0 8.533 8.533h17.067V128h-8.533zm-76.8 332.8h-68.267v-17.067c0-14.114-11.486-25.6-25.6-25.6s-25.6 11.486-25.6 25.6v59.733a8.53 8.53 0 0 0 8.533 8.533h76.8c23.526 0 42.667-19.14 42.667-42.667a8.53 8.53 0 0 0-8.533-8.532zm-34.133 34.133H76.81v-51.2c0-4.71 3.831-8.533 8.533-8.533s8.533 3.823 8.533 8.533v25.6a8.53 8.53 0 0 0 8.533 8.533h66.807c-3.523 9.933-13.012 17.067-24.139 17.067zm-102.409-128h59.733V384H42.668zm366.934 0h59.733V384h-59.733z" fill="#345c04"/><path d="M409.61 256h-307.2a8.536 8.536 0 0 0-8.533 8.533v204.8a8.53 8.53 0 0 0 8.533 8.533h307.2a8.53 8.53 0 0 0 8.533-8.533v-204.8A8.53 8.53 0 0 0 409.61 256zm-8.533 204.8H110.943V273.067h290.133V460.8z" fill="#345c04"/><path fill="#345c04" d="M366.935 426.667h17.067v17.067h-17.067zm-34.134 0h17.067v17.067h-17.067zm-40.166-210.833l-36.625 36.634-36.634-36.634L207.31 227.9l42.667 42.667c1.596 1.604 3.772 2.5 6.033 2.5s4.437-.896 6.033-2.5l42.658-42.667-12.066-12.066z"/><path d="M426.677 418.133c-14.114 0-25.6 11.486-25.6 25.6V460.8H332.81a8.525 8.525 0 0 0-8.533 8.533c0 23.526 19.14 42.667 42.667 42.667h76.8a8.53 8.53 0 0 0 8.533-8.533v-59.733c0-14.115-11.486-25.601-25.6-25.601zm8.533 76.8h-68.267c-11.127 0-20.617-7.134-24.141-17.067h66.807a8.525 8.525 0 0 0 8.533-8.533v-25.6c0-4.71 3.823-8.533 8.533-8.533s8.533 3.823 8.533 8.533v51.2zm-332.809-179.2h307.2V332.8h-307.2z" fill="#345c04"/><path d="M290.143 256h-68.267a8.536 8.536 0 0 0-8.533 8.533v110.933a8.53 8.53 0 0 0 8.533 8.533h68.267a8.53 8.53 0 0 0 8.533-8.533V264.533a8.53 8.53 0 0 0-8.533-8.533zm-8.533 110.933h-51.2v-93.867h51.2v93.867z" fill="#345c04"/></svg>