<svg xmlns="http://www.w3.org/2000/svg" viewBox="0 0 480 480" width="512" height="512"><path d="M439.904 103.512a8.026 8.026 0 0 0-.416-2.08c-.088-.256-.152-.496-.264-.744a8 8 0 0 0-1.6-2.344l-96-96a8 8 0 0 0-2.328-1.6 7.286 7.286 0 0 0-.8-.28 8.16 8.16 0 0 0-1.992-.4C336.352.096 336.184 0 336 0H80a8 8 0 0 0-8 8v24H48a8 8 0 0 0-8 8v432a8 8 0 0 0 8 8h352a8 8 0 0 0 8-8v-24h24a8 8 0 0 0 8-8V104c0-.168-.088-.32-.096-.488zM344 27.312L412.688 96H344V27.312zM336 112h28.688l16 16H312V59.312l16 16V104a8 8 0 0 0 8 8zM88 16h240v36.688l-18.344-18.344a8 8 0 0 0-2.344-1.6c-.248-.112-.496-.176-.752-.264a7.97 7.97 0 0 0-2.032-.408c-.184.024-.344-.072-.528-.072H88V16zm304 448H56V48h240v88a8 8 0 0 0 8 8h88v320zm32-32h-16V136c0-.168-.088-.32-.096-.488a8.026 8.026 0 0 0-.416-2.08c-.088-.256-.152-.496-.264-.744a8 8 0 0 0-1.6-2.344L387.312 112H424v320zM224 64c-17.673 0-32 14.327-32 32s14.327 32 32 32 32-14.327 32-32-14.327-32-32-32zm0 48c-8.837 0-16-7.163-16-16s7.163-16 16-16 16 7.163 16 16-7.163 16-16 16zm-56 32h112v16H168zm128 32h80v16h-80zm-16 32h96v16h-96zM72 176h112v16H72zm0 32h96v16H72zm0 48h304v16H72zm0 128h304v16H72zm0-64h96v16H72zm224 0h80v16h-80zM72 352h80v16H72zm240 0h64v16h-64zM72 288h64v16H72zm240 0h64v16h-64zM72 416h40v16H72zm224 0h80v16h-80z" fill="#345c04"/></svg>