<svg viewBox="0 0 512 512" xmlns="http://www.w3.org/2000/svg"><style>.st0{fill:#345c04}</style><path class="st0" d="M256 0C148.5 0 61 88.5 61 196s87.5 195 195 195 195-87.5 195-195S363.5 0 256 0zm0 331c-74.4 0-135-60.6-135-135S181.6 61 256 61s135 60.6 135 135-60.6 135-135 135zm232.4 108.5L437 329.2c-30.5 41.3-74.7 71.8-126 84.7l41.5 89.4c2.5 5.3 7.8 8.7 13.6 8.7h.7c6-.3 11.4-4.2 13.4-9.9L404 436l65.7 23.9c5.7 2.1 12.1.5 16.2-4 4-4.4 5-10.9 2.5-16.4zM75.1 329.2L23.6 439.5c-2.6 5.5-1.6 12 2.5 16.5s10.5 6.1 16.2 4l65.7-24 23.9 66.1c2.1 5.7 7.4 9.6 13.4 9.9h.7c5.8 0 11.1-3.4 13.6-8.7l41.5-89.4c-51.3-12.9-95.5-43.4-126-84.7z"/><path class="st0" d="M148.191 194.246l26.234-26.233 88.882 88.882-26.233 26.234z"/><path class="st0" d="M335.05 131.744l26.658 26.658-124.662 124.662-26.658-26.658z"/></svg>