<svg viewBox="0 0 512 391" xmlns="http://www.w3.org/2000/svg"><style>.st0{fill:#345c04}</style><path class="st0" d="M256 0C148.5 0 61 88.5 61 196s87.5 195 195 195 195-87.5 195-195S363.5 0 256 0zm0 331c-74.4 0-135-60.6-135-135S181.6 61 256 61s135 60.6 135 135-60.6 135-135 135z"/><path class="st0" d="M206.4 107.9c-.2.4-3.9 1.2-10.9 2.5s-11.9 2.2-14.5 2.7V98.5c14.6-3.5 24.7-8.8 30.1-15.8h14.6v145.8h-19.3V107.9zm58 111.2c-5.6-7.3-8.5-17.9-8.5-31.7 0-9.2 1.5-16.6 4.6-22.1s7.5-10.1 13.4-13.7c-10.8-7.2-16.2-18.1-16.2-32.6 0-11.9 2.8-21.1 8.5-27.7 5.6-6.6 14.2-9.9 25.7-9.9 11.4 0 19.9 3.3 25.5 9.9s8.4 15.8 8.4 27.7c0 7.8-1.4 14.3-4.1 19.5-2.8 5.2-6.8 9.6-12.1 13.1 5.9 3.7 10.4 8.3 13.5 13.9 3.1 5.5 4.7 12.8 4.7 22 0 13.7-2.8 24.2-8.5 31.6-5.6 7.4-14.8 11.1-27.4 11.1-12.7-.1-21.9-3.8-27.5-11.1zm41-11.4c2.5-4.7 3.8-11.4 3.8-19.9 0-7.8-1.4-14.2-4-19.1-2.7-4.9-7.1-7.4-13.2-7.6-6.2.1-10.7 2.6-13.5 7.6-2.8 4.9-4.1 11.3-4.1 19.1 0 8.5 1.3 15.2 3.9 19.9s7.2 7.1 13.8 7.1c6.3 0 10.8-2.4 13.3-7.1zm1.5-89.8c0-6.5-1.2-11.7-3.5-15.7s-6.2-5.9-11.4-5.9c-5.3 0-9.2 2-11.6 5.9-2.5 4-3.7 9.2-3.7 15.7 0 7.2 1.1 13.1 3.4 17.7s6.2 7 11.9 7.1c9.9 0 14.9-8.3 14.9-24.8zM194.5 301.4c2.7 0 4.6-.7 5.8-2.2 1.2-1.4 2.1-3.8 2.6-7 .5-3.3 1-8.6 1.4-15.9l1.3-25.1h30.3V309h-10.7v-49.7H215l-.9 17c-.5 9.3-1.2 16.2-2.3 20.8s-2.8 7.8-5.2 9.7-6 2.8-10.9 2.8h-1.2v-8.2zm57.8 5.9c-2.5-1.7-4.2-4.2-5.2-7.5s-1.5-7.7-1.5-13v-13.2c0-8 1.2-13.8 3.8-17.5 2.5-3.7 7-5.6 13.4-5.6 4.7 0 8.2 1 10.5 2.9 2.4 1.9 3.9 4.6 4.7 8.1s1.1 8.2 1.1 14.1v4.7h-22.8v11.6c0 3.5.5 6.1 1.5 7.6 1 1.6 2.7 2.4 5 2.4s3.8-.8 4.6-2.4 1.2-4 1.2-7.1v-3.5H279v2.2c0 6.1-1.3 10.7-3.9 13.9s-6.7 4.8-12.4 4.8c-4.5 0-8-.8-10.4-2.5zm16.3-32.8v-5.2c0-3.9-.4-6.8-1.1-8.4-.8-1.7-2.4-2.6-4.9-2.6-1.7 0-3 .4-4 1.2-.9.8-1.5 2.1-1.8 4-.3 1.8-.5 4.5-.5 8v3.1h12.3zm26.3-15.3H284v-8h32.4v8h-10.9V309h-10.7v-49.8z"/></svg>