<svg viewBox="0 0 512 512" xmlns="http://www.w3.org/2000/svg"><style>.st0{fill:#ff9800}</style><path class="st0" d="M256.3 204.7c28.6-.1 51.3-23 51.2-51.7-.1-28.6-22.9-51.5-51.5-51.5-28.8 0-51.9 23.2-51.6 52.1.2 28.6 23.2 51.3 51.9 51.1z"/><path class="st0" d="M484.8 0H0v511.9h511.9V0h-27.1zM256.4 47.7c58.3.1 105.1 47.8 104.8 106.8-.3 57.6-47.9 104.2-106 104-57.6-.2-104.8-47.9-104.5-105.6.3-58.3 47.6-105.3 105.7-105.2zM374.5 300c-12.9 13.2-28.4 22.8-45.6 29.5-16.3 6.3-34.1 9.5-51.8 11.6 2.7 2.9 3.9 4.3 5.6 6 24 24.1 48.1 48.1 72 72.3 8.1 8.2 9.9 18.4 5.4 28-4.9 10.5-15.9 17.4-26.7 16.6-6.8-.5-12.1-3.9-16.9-8.6-18.1-18.2-36.6-36.1-54.3-54.6-5.2-5.4-7.6-4.4-12.2.3-18.2 18.7-36.7 37.2-55.3 55.6-8.4 8.2-18.3 9.7-28 5-10.3-5-16.9-15.5-16.3-26.1.3-7.1 3.9-12.6 8.8-17.5 23.7-23.7 47.4-47.5 71.1-71.2 1.6-1.6 3-3.3 5.3-5.7-32.3-3.4-61.4-11.3-86.3-30.8-3.1-2.4-6.3-4.8-9.1-7.5-10.9-10.5-12-22.5-3.4-34.8 7.4-10.6 19.8-13.4 32.7-7.3 2.5 1.2 4.9 2.6 7.2 4.2 46.5 31.9 110.3 32.8 156.9 1.4 4.6-3.5 9.6-6.4 15.3-7.9 11.1-2.9 21.5 1.2 27.5 11 6.6 11 6.5 21.8-1.9 30.5z"/></svg>