<svg viewBox="0 0 897.3 897.3" xmlns="http://www.w3.org/2000/svg"><style>.st0,.st1{fill:#345c04}.st1{stroke:#000;stroke-miterlimit:10}</style><path class="st0" d="M12.8 127.1c1.8 0 3.7-.6 5.3-1.7 1.9-1.3 187.2-130.7 361.4-.1 4 3 9.7 2.2 12.7-1.8s2.2-9.7-1.8-12.7C205.7-27.8 9.5 109.2 7.6 110.6c-4.1 2.9-5 8.6-2.1 12.7 1.7 2.4 4.5 3.8 7.3 3.8zm467.5 110.1c-4.3 2.5-5.8 8-3.4 12.4 1.7 3.1 41.9 75.6-25.8 143.4-24.9 24.9-82.8 35.4-126.3 10.6-43.7-24.8-57.9-77.1-40-147.2 1.2-4.9-1.7-9.8-6.6-11-4.9-1.3-9.8 1.7-11 6.6-27 106.2 18.9 150.5 48.6 167.4 19.4 11.1 42.6 16.4 65.5 16.4 31.8 0 62.9-10.3 82.6-30 77.8-77.8 29.2-164.4 28.7-165.2-2.5-4.4-8-5.9-12.3-3.4z"/><path class="st0" d="M411.1 0H284l-33.6 33.5c39 5.1 80 18 120.9 42.6 6.4 3.8 13.8 6 21.2 5.6 6.5-.3 13.7 1.4 21.7 7.4 9.1 6.8 15.6 17 15.6 28.3 0 19.7-16 35.6-35.7 35.6-10.5 0-20-4.6-26.5-11.9-3.4-3.7-7.1-7.2-11.3-10-54.2-36.6-109-47.5-157.9-45.9l-144 143.6.1.1L0 283.3 228.2 512l77.7-77.5c-27.9-16.3-86.6-65.9-56.6-185.9 3.2-12.9 15-22.6 28.3-21.7 17.6 1.2 29 17.7 24.8 33.9-15.9 62.3-5 106.2 31.4 126.9 4.2 2.4 8.5 4.3 13 5.9l120.4-120.1c-2.8-9.2-5.9-14.8-6.1-14.9-7.5-13-3.1-29.7 10-37.2 13-7.5 29.7-3.1 37.2 10 .1.2.3.5.4.8l3.2-3.2V100.6L411.1 0z"/><path class="st1" d="M3.788 888.924L887.804 4.908l8.415 8.414L12.202 897.34z"/><path class="st0" d="M754.1 699.8c30.6-22.3 49.2-57.5 49.2-94.6 0-16.7-.9-30.6-2.8-42.7h22.3c5.6 0 10.2-4.6 10.2-10.2v-44.5c0-5.6-4.6-10.2-10.2-10.2h-17.6c-9.3-46.4-43.6-84.4-89-97.4v-17.6c0-5.6-4.6-10.2-10.2-10.2h-51c-5.6 0-10.2 4.6-10.2 10.2v17.6c-45.4 13-79.8 51-89 97.4H538c-5.6 0-10.2 4.6-10.2 10.2v44.5c0 5.6 4.6 10.2 10.2 10.2h21.3c-1.9 12.1-2.8 26.9-2.8 42.7 0 37.1 18.6 72.3 49.2 94.6-75.1 28.8-126.1 97.4-126.1 174.4 0 5.6 4.6 10.2 10.2 10.2h379.4c5.6 0 10.2-4.6 10.2-10.2-.1-77-51.1-145.7-125.3-174.4zM547.3 542.1v-23.2H564c2.8 0 4.6-.9 6.5-2.8.9-.9 2.8-3.7 3.7-6.5 4.6-39.9 32.5-73.3 69.6-87.2v64.9c0 5.6 4.6 10.2 10.2 10.2s10.2-4.6 10.2-10.2v-94.6h30.6v93.7c0 5.6 4.6 10.2 10.2 10.2s10.2-4.6 10.2-10.2v-64c37.1 13.9 64.9 47.3 69.6 87.2 0 2.8 1.9 5.6 3.7 6.5 3.7 2.8 5.6 2.8 7.4 2.8h16.7v23.2H547.3zM500.9 863c5.6-70.5 58.4-131.7 132.6-150.3 4.6-.9 7.4-4.6 8.3-9.3 0-4.6-1.9-8.3-6.5-10.2-35.2-16.7-57.5-50.1-57.5-88.1 0-16.7.9-30.6 2.8-42.7H779c1.9 12.1 2.8 26 2.8 42.7 0 38-22.3 71.4-57.5 88.1-3.7 1.9-6.5 6.5-6.5 10.2 0 4.6 3.7 8.3 8.3 9.3 74.2 18.6 128 79.8 132.6 150.3H500.9z"/><path id="settings_1_" class="st0" d="M752.2 771.5l-15.6-2.6c-1.1-4.6-2.8-9-4.9-13.2l10-12.3c2.1-2.6 2-6.4-.2-8.9l-6.2-7c-2.2-2.5-6-3-8.8-1.3l-13.3 8.4c-5.9-4.1-12.5-7.1-19.6-8.9l-2.6-15.6c-.5-3.3-3.4-5.7-6.8-5.7h-9.3c-3.4 0-6.2 2.4-6.8 5.7l-2.6 15.6c-5.9 1.4-11.5 3.8-16.5 6.9l-12.7-9c-2.7-1.9-6.5-1.6-8.9.7l-6.6 6.6c-2.4 2.4-2.7 6.1-.7 8.9l9.1 12.7c-3 5-5.4 10.5-6.8 16.4l-15.7 2.6c-3.3.5-5.7 3.4-5.7 6.8v9.3c0 3.4 2.4 6.2 5.7 6.8l15.7 2.6c1.2 4.8 2.9 9.4 5.2 13.7l-9.9 12.3c-2.1 2.6-2 6.4.2 8.9l6.2 7c2.2 2.5 6 3 8.8 1.3l13.5-8.5c5.7 3.9 12.2 6.8 19.1 8.5l2.6 15.6c.5 3.3 3.4 5.7 6.8 5.7h9.3c3.4 0 6.2-2.4 6.8-5.7l2.6-15.6c5.8-1.4 11.3-3.7 16.3-6.7l13.2 9.4c2.7 2 6.5 1.6 8.8-.7l6.6-6.6c2.4-2.4 2.7-6.1.7-8.8l-9.4-13.2c3.1-5 5.4-10.6 6.8-16.4l15.6-2.6c3.3-.5 5.7-3.4 5.7-6.8v-9.3c.1-3.5-2.3-6.4-5.7-7zm-72.5 40.9c-16.3 0-29.4-13.2-29.4-29.4 0-16.3 13.2-29.4 29.4-29.4 16.3 0 29.4 13.2 29.4 29.4.1 16.2-13.1 29.4-29.4 29.4z"/></svg>