<svg xmlns="http://www.w3.org/2000/svg" viewBox="0 0 512.853 512.853" width="512" height="512"><g fill="#345c04"><path d="M505.173 194.133l-74.24-81.92c-5.973-5.973-13.653-9.387-21.333-9.387h-85.333v-17.92c0-18.773-14.507-33.28-32.427-33.28H33.28C14.507 51.627 0 66.133 0 84.907V380.16c0 16.213 13.653 29.867 29.867 29.867H43.27c4.075 29.155 28.753 51.2 59.131 51.2s55.056-22.045 59.131-51.2H350.47c4.075 29.155 28.753 51.2 59.131 51.2s55.056-22.045 59.131-51.2h44.121V213.76c0-7.68-2.56-14.507-7.68-19.627zm-13.653 11.094c2.56 1.707 3.413 5.12 3.413 7.68v26.453h-128v-85.333h77.653l46.934 51.2zm-474.453 25.6h119.467c5.12 0 8.533-3.413 8.533-8.533s-3.413-8.533-8.533-8.533H17.067v-25.6H102.4c5.12 0 8.533-3.413 8.533-8.533 0-5.12-3.413-8.533-8.533-8.533H17.067V84.907c0-9.387 6.827-16.213 16.213-16.213h257.707c9.387 0 16.213 7.68 16.213 16.213V290.56H17.067v-59.733zM102.4 444.16c-23.893 0-42.667-18.773-42.667-42.667 0-23.893 18.773-42.667 42.667-42.667 23.893 0 42.667 18.773 42.667 42.667 0 23.894-18.774 42.667-42.667 42.667zm204.8-51.2H161.531c-3.821-27.339-25.761-48.416-53.528-50.936-.203-.019-.409-.029-.613-.046-.699-.056-1.397-.114-2.103-.147-.957-.046-1.919-.072-2.887-.072s-1.93.026-2.887.072c-.706.033-1.404.09-2.103.147-.204.017-.41.027-.613.046-27.767 2.52-49.707 23.597-53.528 50.936H29.867c-6.827 0-12.8-5.973-12.8-12.8v-72.533H307.2v85.333zm102.4 51.2c-23.893 0-42.667-18.773-42.667-42.667 0-23.893 18.773-42.667 42.667-42.667 23.893 0 42.667 18.773 42.667 42.667 0 23.894-18.774 42.667-42.667 42.667zm59.131-51.2c-3.821-27.339-25.761-48.416-53.528-50.936-.203-.019-.409-.029-.613-.046-.699-.056-1.397-.114-2.103-.147-.957-.046-1.919-.072-2.887-.072s-1.93.026-2.887.072c-.706.033-1.404.09-2.103.147-.204.017-.41.027-.613.046-27.767 2.52-49.707 23.597-53.528 50.936h-26.203V119.893H409.6c2.56 0 5.973 1.707 8.533 3.413l12.231 13.653h-65.991c-7.68 0-14.507 6.827-14.507 14.507v90.453c0 7.68 6.827 14.507 14.507 14.507h130.56v42.667h-42.667c-5.12 0-8.533 3.413-8.533 8.533s3.413 8.533 8.533 8.533h42.667v76.8h-26.202z"/><path d="M102.4 384.427c-9.387 0-17.067 7.68-17.067 17.067s7.68 17.067 17.067 17.067 17.067-7.68 17.067-17.067-7.68-17.067-17.067-17.067zm307.2 0c-9.387 0-17.067 7.68-17.067 17.067s7.68 17.067 17.067 17.067 17.067-7.68 17.067-17.067-7.68-17.067-17.067-17.067z"/></g></svg>