<svg xmlns="http://www.w3.org/2000/svg" viewBox="0 0 295.238 295.238" width="512" height="512"><g fill="#345c04"><path d="M225.338 200l60.538-34.952-47.619-82.476-60.543 34.952 34.952-60.538-82.48-47.619L95.238 69.9V0H0v247.619c0 26.257 21.362 47.619 47.619 47.619h247.619V200h-69.9zm9.429-104.419l38.095 65.981L206.286 200H54.01L234.767 95.581zM133.676 22.376l65.981 38.095-38.443 66.576-131.871 76.139 104.333-180.81zM9.524 9.524h76.19v76.871L9.524 218.362V9.524zm38.095 276.19c-21.005 0-38.095-17.09-38.095-38.095a37.848 37.848 0 0 1 4.6-18.133l.033.019.833-1.448a38.316 38.316 0 0 1 13-13.024l1.957-1.129a37.804 37.804 0 0 1 17.671-4.381h238.095v76.191H47.619z"/><path d="M47.62 223.809c-13.129 0-23.81 10.681-23.81 23.81s10.681 23.81 23.81 23.81 23.81-10.681 23.81-23.81-10.681-23.81-23.81-23.81zm-.001 38.096c-7.876 0-14.286-6.41-14.286-14.286 0-7.876 6.41-14.286 14.286-14.286 7.876 0 14.286 6.41 14.286 14.286 0 7.876-6.41 14.286-14.286 14.286zm57.143 0h161.905v9.524H104.762zm-23.81 0h14.286v9.524H80.952z"/></g></svg>