<svg xmlns="http://www.w3.org/2000/svg" viewBox="0 0 2903.9 955.6"><style>.D{fill:#0099df}.O{fill:#eb001b}.L{fill:#231f20}.J{fill:#00579f}.W{fill:#fff}</style><path class="D" d="M2896.5 386.5v-9.3h-2.4l-2.8 6.4-2.8-6.4h-2.4v9.3h1.7v-7l2.6 6h1.8l2.6-6v7h1.7zm-15.3 0v-7.7h3v-1.6h-8v1.6h3v7.7h1.7z"/><path d="M2622.2 426.3h-208.8V51h208.8v375.3z" fill="#6c6bbd"/><path class="O" d="M2426.7 238.7c-.1-73.2 33.5-142.4 91-187.7a237.67 237.67 0 0 0-147.5-51c-131.8 0-238.6 106.8-238.6 238.7s106.8 238.7 238.6 238.7a237.67 237.67 0 0 0 147.5-51c-57.6-45.3-91.2-114.5-91-187.7"/><path class="D" d="M2904 238.7c0 131.8-106.8 238.7-238.6 238.7a237.67 237.67 0 0 1-147.5-51c103.6-81.5 121.6-231.5 40-335.2a237.73 237.73 0 0 0-40.1-40.1 237.67 237.67 0 0 1 147.5-51C2797 .1 2904 107 2904 238.7"/><path class="L" d="M2693 532.3c3.3 0 6.7.6 9.8 1.7l-4.2 13c-2.7-1-5.7-1.6-8.6-1.6-9 0-13.5 5.8-13.5 16.3v35.5h-13.8v-63.4h13.7v7.7c3.5-5.5 8.6-9.2 16.6-9.2m-51 14.2h-22.5V575c0 6.4 2.2 10.6 9 10.6 4.3-.1 8.5-1.4 12.2-3.6l4 11.8c-4.4 3-11.3 5-17.2 5-16.3 0-22-8.8-22-23.5v-29h-13v-12.6h13v-19.2h14v19.2h22.5v12.7zM2465.5 560c1.5-9.2 7-15.4 16.8-15.4 9 0 14.6 5.6 16 15.4h-32.8zm47.2 5.6c-.1-19.8-12.3-33.3-30-33.3-18.6 0-31.5 13.5-31.5 33.3 0 20 13.5 33.3 32.5 33.3 9.5 0 18.3-2.4 26-9l-6.8-10.2c-5.2 4.2-11.7 6.5-18.4 6.6-9 0-17-4-19-15.5h47c0-1.8.2-3.5.2-5.3m60.5-15.6c-6-3.5-12.8-5.3-19.7-5.5-7.6 0-12 2.8-12 7.4 0 4.2 4.8 5.4 10.7 6.2l6.5 1c13.8 2 22 7.8 22 19 0 12-10.6 20.7-29 20.7-10.4 0-20-2.7-27.4-8.2l6.6-10.7c4.6 3.6 11.6 6.6 21 6.6s14.4-2.8 14.4-7.7c0-3.6-3.6-5.6-11-6.6l-6.5-1c-14.2-2-22-8.4-22-18.7 0-12.6 10.4-20.3 26.4-20.3 10 0 19.2 2.3 25.8 6.6l-6 11.2zm170-4.6c-2.7 0-5.4.5-8 1.5-2.4 1-4.5 2.4-6.3 4.2s-3.2 4-4.2 6.5a23.44 23.44 0 0 0 0 16.5 21.34 21.34 0 0 0 4.2 6.5c1.8 1.8 4 3.2 6.3 4.2a21.55 21.55 0 0 0 15.8 0c2.4-1 4.5-2.4 6.3-4.2s3.3-4 4.2-6.5a23.44 23.44 0 0 0 0-16.5 21.34 21.34 0 0 0-4.2-6.5c-1.8-1.8-4-3.2-6.3-4.2-2.5-1-5.2-1.5-8-1.5m0-13c4.7 0 9.3.8 13.7 2.6 4 1.6 7.7 4 11 7 3 3 5.5 6.6 7.2 10.6 3.5 8.5 3.5 18 0 26.6-1.7 4-4 7.6-7.2 10.6s-6.8 5.4-11 7a37.81 37.81 0 0 1-27.3 0c-4-1.6-7.7-4-10.8-7s-5.5-6.6-7-10.6c-3.5-8.5-3.5-18 0-26.6 3.4-8 10-14.4 18-17.6 4.3-1.8 9-2.7 13.5-2.6M2385 565.5c0-11 7.3-20.3 19.2-20.3 11.4 0 19 8.8 19 20.3s-7.7 20.3-19 20.3c-12 0-19.2-9-19.2-20.3m51.3 0V534h-13.8v7.7c-4.4-5.7-11-9.3-20-9.3-17.8 0-31.7 14-31.7 33.3s14 33.3 31.7 33.3c9 0 15.6-3.6 20-9.3v7.7h13.8v-31.8zm-77.6 31.7v-39.7c0-15-9.5-25-25-25.2-8-.1-16.4 2.4-22.3 11.3-4.4-7-11.3-11.3-21-11.3-6.8 0-13.4 2-18.6 9.4V534H2258v63.4h14v-35c0-11 6-16.8 15.5-16.8 9 0 13.8 6 13.8 16.7v35.3h14v-35c0-11 6.4-16.8 15.5-16.8 9.4 0 14 6 14 16.7v35.3l14-.3zm434.5-4.7v1.6h1.4c.3 0 .5-.1.8-.2.2-.1.3-.4.3-.6s-.1-.5-.3-.6-.5-.2-.8-.2h-1.4zm1.4-1c.6 0 1.2.1 1.7.5.4.3.6.8.6 1.4 0 .5-.2 1-.5 1.2-.4.3-1 .5-1.4.6l2 2.2h-1.5l-1.8-2.2h-.6v2.2h-1.2v-5.8l2.8-.1zm-.3 8c.7 0 1.3-.1 2-.4.6-.2 1-.6 1.6-1 .4-.5.8-1 1-1.6a5 5 0 0 0 0-3.8c-.2-.6-.6-1-1-1.6a4.36 4.36 0 0 0-1.6-1.001c-.6-.3-1.2-.4-2-.4s-1.3.1-2 .4c-.6.2-1 .6-1.6 1-1.4 1.4-1.8 3.6-1 5.4.2.6.6 1.1 1 1.6.5.4 1 .8 1.6 1 .5.2 1.2.4 2 .4m0-11.2c1 0 1.7.2 2.5.5.7.3 1.4.8 2 1.3.6.6 1 1.2 1.4 2a5.98 5.98 0 0 1 0 4.901c-.3.7-.8 1.4-1.4 2s-1.3 1-2 1.4c-.8.3-1.6.5-2.5.5-1.7 0-3.4-.7-4.6-1.9-.6-.6-1-1.3-1.4-2a5.98 5.98 0 0 1 0-4.901c.3-.8.8-1.4 1.4-2s1.2-1 2-1.3c.8-.4 1.6-.5 2.6-.5"/><path class="J" d="M1389 468.8h-81l50.7-313.3h81L1389 468.8zM1682.7 163c-23.2-9-47.8-13.5-72.7-13.3-80 0-136.3 42.7-136.7 103.7-.7 45 40.3 70 71 85 31.3 15.3 42 25.3 42 39-.3 21-25.3 30.7-48.7 30.7-32.3 0-49.7-5-76-16.7l-10.7-5-11.3 70.3c19 8.7 54 16.3 90.3 16.7 85 0 140.3-42 141-107 .3-35.7-21.3-63-68-85.3-28.3-14.3-45.7-24-45.7-38.7.3-13.3 14.7-27 46.7-27 26.3-.7 45.7 5.7 60.3 12l7.3 3.3 11.2-67.7zm107.6 194.7l32.3-87.7c-.3.7 6.7-18.3 10.7-30l5.7 27 18.7 90.7h-67.4zm100-202.3h-62.7c-19.3 0-34 5.7-42.3 26L1665 468.8h85l17-47h104l9.7 47h75l-65.4-313.3zm-650 0L1161 369l-8.7-43.3c-14.7-50-60.7-104.3-112-131.3l72.7 274h85.7l127.3-313h-85.7z"/><path d="M1087.3 155.5H957l-1.3 6.3c101.7 26 169 88.7 196.7 164l-28.3-144c-4.7-20-19-25.7-36.8-26.3z" fill="#faa61a"/><path class="L" d="M756.2 592.5v1.6h1.4c.3 0 .5-.1.8-.2.2-.1.3-.4.3-.6s-.1-.5-.3-.6-.5-.2-.8-.2h-1.4zm1.5-1c.6 0 1.2.1 1.7.5.4.3.6.8.6 1.4 0 .5-.2 1-.5 1.2-.4.3-1 .5-1.4.6l2 2.2h-1.5l-1.8-2.2h-.6v2.2h-1v-5.8l2.7-.1zm-.4 8c.7 0 1.3-.1 2-.4.6-.2 1-.6 1.5-1 .4-.5.8-1 1-1.6a5 5 0 0 0 0-3.8c-.2-.6-.6-1-1-1.6-.5-.4-1-.8-1.5-1-.6-.2-1.2-.4-2-.4s-1.3.1-2 .4c-.6.2-1 .6-1.6 1a4.92 4.92 0 0 0-1 5.4c.2.6.6 1 1 1.6.5.4 1 .8 1.6 1 .6.3 1.3.4 2 .4m0-11.2c1.7 0 3.3.7 4.5 1.8.6.6 1 1.2 1.4 2 .7 1.6.7 3.3 0 5-.3.7-.8 1.4-1.4 2s-1.3 1-2 1.3c-.8.3-1.6.5-2.5.5s-1.7-.2-2.5-.5c-.7-.3-1.4-.8-2-1.3-.6-.6-1-1.3-1.4-2-.7-1.6-.7-3.3 0-5 .3-.8.8-1.4 1.4-2s1.3-1 2-1.3c.8-.4 1.7-.5 2.5-.5m-591-22.5c0-11 7.3-20.3 19.2-20.3 11.4 0 19 8.8 19 20.3s-7.7 20.3-19 20.3c-12 0-19.2-9.2-19.2-20.3m51.3 0V534h-13.8v7.7c-4.4-5.7-11-9.3-20-9.3-17.8 0-31.7 14-31.7 33.3s14 33.3 31.7 33.3c9 0 15.6-3.6 20-9.3v7.7h13.8v-31.7zm465.6 0c0-11 7.3-20.3 19.2-20.3 11.4 0 19 8.8 19 20.3s-7.7 20.3-19 20.3c-12 0-19.2-9.2-19.2-20.3m51.3 0v-57h-13.8v33c-4.4-5.7-11-9.3-20-9.3-17.8 0-31.7 14-31.7 33.3s14 33.3 31.7 33.3c9 0 15.6-3.6 20-9.3v7.7h13.8v-31.7zm-346-21c9 0 14.6 5.6 16 15.4h-32.8c1.4-9.2 7-15.4 16.8-15.4m.2-12.3c-18.6 0-31.6 13.5-31.6 33.3 0 20.2 13.5 33.3 32.5 33.3 9.5 0 18.3-2.4 26-9l-6.8-10.2c-5.2 4.2-11.7 6.5-18.4 6.6-9 0-17-4-19-15.5h47l.3-5.3c0-19.8-12.2-33.3-30-33.3M555 565.6c0-11 7.3-20.3 19.2-20.3 11.4 0 19 8.8 19 20.3s-7.7 20.3-19 20.3c-12-.1-19.2-9.2-19.2-20.3m51.3 0V534h-13.7v7.7c-4.4-5.7-11-9.3-20-9.3-17.8 0-31.7 14-31.7 33.3s14 33.3 31.7 33.3c9 0 15.6-3.6 20-9.3v7.7h13.8l-.1-31.7zm-129 0c0 19.2 13.4 33.3 33.8 33.3 9.5 0 16-2 22.8-7.6l-6.6-11c-4.8 3.6-10.6 5.6-16.6 5.7-11-.1-19-8-19-20.3s8-20.2 19-20.3c6 .1 11.8 2 16.6 5.7l6.6-11c-7-5.4-13.2-7.6-22.8-7.6-20.4 0-33.8 14-33.8 33.3M655 532.3c-8 0-13 3.7-16.7 9.3V534h-13.7v63.4h13.8v-35.5c0-10.5 4.5-16.3 13.5-16.3 3 0 6 .5 8.6 1.6l4.2-13c-3-1.2-6.3-1.8-9.7-1.8M285.6 539c-6.6-4.4-15.8-6.6-25.8-6.6-16 0-26.4 7.7-26.4 20.3 0 10.3 7.7 16.7 22 18.7l6.5 1c7.6 1 11 3 11 6.6 0 5-5 7.7-14.5 7.7s-16.4-3-21-6.6l-6.5 10.7c7.6 5.6 17 8.2 27.4 8.2 18.3 0 29-8.6 29-20.7 0-11-8.4-17-22-19l-6.5-1c-6-.8-10.7-2-10.7-6.2 0-4.6 4.5-7.4 12-7.4 7 .1 13.7 2 19.8 5.4l6-11zm177.8-6.6c-8 0-13 3.7-16.7 9.3V534H433v63.4h13.8v-35.5c0-10.5 4.5-16.3 13.5-16.3 3 0 6 .5 8.6 1.6l4.2-13a26.9 26.9 0 0 0-9.7-1.8M345.8 534h-22.5v-19.2h-14V534h-13v12.6h13v29c0 14.7 5.7 23.5 22 23.5 6 0 13-1.8 17.2-5l-4-11.8c-3.7 2.2-8 3.4-12.2 3.6-7 0-9-4.2-9-10.6v-28.6h22.5V534zm-206 63.3v-39.8c0-15-9.5-25-25-25.2-8-.1-16.4 2.4-22.3 11.3-4.4-7-11.3-11.3-21-11.3-6.8 0-13.4 2-18.6 9.4v-7.8H39.3v63.4h14v-35c0-11 6-16.8 15.5-16.8 9.2 0 13.8 6 13.8 16.7v35.3h14v-35c0-11 6.4-16.8 15.5-16.8 9.4 0 14 6 14 16.7v35.3l14-.2z"/><path d="M764.7 386.5v-9.3h-2.4l-2.8 6.4-2.8-6.4h-2.4v9.3h1.7v-7l2.6 6h1.8l2.6-6v7h1.7zm-15.3 0v-7.7h3v-1.6h-8v1.6h3v7.7h1.7z" fill="#f79410"/><path d="M490.4 426.3H281.6V51h208.8v375.2z" fill="#ff5f00"/><path class="O" d="M295 238.7c0-73.2 33.5-142.4 91-187.7A237.67 237.67 0 0 0 238.6 0C106.8 0 0 106.8 0 238.7s106.8 238.7 238.6 238.7a237.67 237.67 0 0 0 147.5-51C328.5 381 295 312 295 238.7"/><path d="M772 238.7c0 131.8-106.8 238.7-238.6 238.7a237.67 237.67 0 0 1-147.5-51c103.6-81.6 121.6-231.6 40-335.2a237.73 237.73 0 0 0-40.1-40.1c42-33 94-51 147.5-51C665.2 0 772 106.8 772 238.7" fill="#f79e1b"/><path class="W" d="M394.4 916.4h36l8.3-14.7h-44.3v14.7zm282.2-14.2h-28V888h28c4.5 0 7.8 1 7.8 7 0 4.7-2 7.2-7.8 7.2zm-28-38.3H674c3.8 0 5.4 2 5.4 5.8 0 4-2.5 6-5.4 6h-25.5V864zm39.2 13.2c4.2-1.8 7.8-4.7 7.8-12 0-13.8-11.6-15.4-19.7-15.4h-43v66.6h43.8c20 0 24.2-11 24.2-21.2 0-11.4-6.4-16.2-13-18zm132.7 39.3h36l8.3-14.7h-44.3v14.7zm-426-40.8v14.7h51l8.5-14.7h-59.4zm361.3 26.6h-23.3v-14.8h23.3c2.7 0 7 .7 7 7.4 0 6.2-3.4 7.4-7 7.4zm1-28.6h-24.2v-24h-16v66.6h40c10.8 0 22-6 22-21.7-.1-20.6-14.6-21-22-21zm30 42.8h15.8v-66.6h-15.8v66.6zm-298.4-66.6L450 916.4h18.8l25.2-44 25.3 44H539l-38.2-66.6h-12.6zm90.8 52.8c-15.4 0-22-9-22-19.7 0-12 7.4-20 22-20 16.3 0 22 8 22 20 .1 14.3-10.6 19.7-22 19.7zm.2-54.5c-26.6 0-39.3 16.3-39.3 34.6 0 19 12.3 34.6 39.3 34.6 11.8 0 39-5.4 39-34.6.1-19-12-34.6-39-34.6zM303 901.7l25.2-44 25.3 44H303zm32.2-66.6h-13L284 901.7h-9.6V936h15.2v-19.5h78.2V936H383v-34.2h-9.6L335.2 835zm133.5 14.7h-74.2v14.7h65.7l8.5-14.7zm351.8 25.8v14.7h51l8.5-14.7h-59.4zm74.2-25.8h-74.2v14.7h65.7l8.5-14.7zm387 0L1244 893v-43.2h-16v66.6h13.4l38.4-43.6v43.6h16v-66.6h-14zm-367.4 0L876 916.4h19l25.2-44 25.3 44H965l-38-66.6h-12.7zm194 25.8h-35v-26h-16v66.6h16v-26h35v26h16v-66.6h-16l.1 26zm50 17.4v-43.3h-16v66.6h13.4l38.2-43.6v43.6h16v-66.6h-14l-37.6 43.3zm-170.7-.3v-43h-16v66.6H985l38.4-43.3v43.3h16v-66.6H1026l-38.3 43z"/><path d="M157.3 884.2l-75-32.5-16 27.6 84.5 16.2 6.6-11.3zm-10.5 32.3h25l22-38 22 38h25l-47-81.3-47 81.3zm-84.3-30.7l-17.7 30.7h94L147 902l-84.5-16.2zM189.7 828l-47-81.3-17.8 30.7 56.3 65 8.4-14.4zm-12 21l-56.3-65-16 27.6 65.7 48.8 6.5-11.4zm-10 17.5L102 817.7l-16 27.8 75 32.5 6.6-11.5z" fill="#fcaf17"/><path d="M1810.8 737h-13.3c-4 0-8.2 1-12 2.6-4 2-7.6 4.7-10.3 8.2a44.76 44.76 0 0 0-7.2 14.5c-2 7-2.8 14-2.7 21.2 0 8 1 15 3 20.4 1.7 5 4.3 9.7 7.8 13.8a29.09 29.09 0 0 0 11.1 7.8c4 1.6 8.5 2.5 13 2.5h10.8l-.1-91zm-51.4 181.2H1736l41.7-77c-12.2-5.8-21-13.6-26-23.3s-7.8-21.2-7.8-34.6c0-10.3 1.5-19.4 4.4-27.2 2.6-7.4 6.6-14 11.8-20 4.8-5.3 10.7-9.5 17.3-12.2 6.7-2.8 13.8-4 21-4h33v198.2H1811v-73.5h-13.3l-38.2 73.5z" fill="red"/><path class="W" d="M1909 838h-30.3v-52.2h-20.6V918h20.6v-63h30.3v63.3h20.3V785.7H1909V838zm308-52.2h-22l-28 57.6-2.3 2.6v-60.2h-20.6V918h20.6v-68l2.3 2.8 31.6 65.3h23l-37-72.8 32.4-59.6zm72 115c-3.8 1-7.7 1.6-11.6 1.7-10 0-17.3-4.5-22-13.4s-7.2-21.2-7.2-36.8c0-6.6.5-13.2 1.5-19.7 1-5.8 2.3-11.6 4.4-17 1.6-4.5 4-8.6 7.2-12.1 3-3 6.2-4.6 9.8-4.6 3.2 0 6.4 1 9 2.8 3 2 5.8 4.3 8 7l10.6-17.8c-3.7-2.6-8-4.7-12.2-6.2-5-1.6-10-2.4-15.3-2.3-6.3 0-12.5 2-17.8 5.4-5.8 4-10.6 9-14 15.2-4.3 7.4-7.4 15.3-9.4 23.7-2.4 10.1-3.6 20.5-3.5 30.8 0 20.6 4 36.3 12.2 47.3s18.8 16.5 32 16.5c5.6.1 11.3-.8 16.6-2.7 4.6-1.7 9-3.8 13.2-6.3l-2-14.7c-3 1.4-6.2 2.5-9.4 3.3zm110.6-51.3c-1.8 7-3.3 14-4.4 21.3h-.8c-1-7.2-2-14.3-4-21.3l-31-117.2h-15v183.4h11.3V787l-.8-27.2h.8c1.5 8.5 3.6 16.7 6.2 26.2l27.2 101.3h10l27.4-102 6-25.4h1l-1 27.2v128.5h12.3V732H2431l-31.3 117.3zm330-63H2718l-43.4 60.8v-60.8h-12v129.3h12v-67l45 66.9h13.4l-45.7-69.2 42.6-60zm96.2 0v10h30v119.3h12V796.3h29.8v-10H2826zm-792 156.5l-17.5.1.2-26H1959l-.1 25-17 .1V902h8.2c4.6-9.8 8.3-20 11-30.5 4-15 4.8-27 5.5-36.3.7-9.5.8-17.6 1-30.5v-19l56-.1-.1 116.8 10.3.1v40.3zm-30-40.9v-86l-.2-13.8c-3 .3-16 .5-19 .3l-1.2 23c-1.2 15-2.3 29-6.4 45.8-2.6 10.6-6 21-10.3 31h37.3zm119.8-45.3l-27.2-.1-28 .2c0 2.5.2 6 .6 10.2.3 4.5 1 9 2.2 13.3 1 3.3 3.7 12.8 12 18.3 9.4 6.2 20.6 4 26.2 2.8 4.2-1 8.2-2.3 12-4.3l2.2 16c-4 1.8-8 3.3-12.2 4.4-8.2 2-25.2 6.7-39.7-1.5-10-5.8-17.6-16.3-21-31a128.97 128.97 0 0 1 4-73.301 57.66 57.66 0 0 1 8.5-15.6c14.6-19.5 39.3-17.8 51.4 3.4 9.7 17.3 9.5 36.2 9 57zm-19.8-16.8c.1-4.2 0-8.5-.5-12.7-.7-7-1-10.7-3-15-1.3-2.8-5.6-11.7-12.7-12s-12.3 8-13.3 9.6-2 4-3.4 9.2c-1.6 6.7-2.4 13.6-2.5 20.4l35.5.5zm373-32l-3.3-10.4c2-2.7 4.6-5 7.4-7 11-7.8 23.4-6.7 27-6.3 4.8.5 9.6 1.9 14 4.1a26.15 26.15 0 0 1 8.2 6.2c6.7 7.7 7 18.6 7 26l-.4 77.3c.1 2.3.4 4.6 1 7 .8 3.6 2 7 3.7 10.4l-11.8.6c-2-5.3-3-11-3-16.7l-3.4 4.2-7 8.3c-2.4 2.2-5.2 4-8.2 5-8.2 3.2-15.8 1-18.3.3-13-3.6-18.7-14.2-20.3-26.8-2.2-16.6.5-29.2 8-37.8 10-11.7 26-12.6 37-13.4 3.7-.3 7.4-.2 11 .1l.7-21.4c-.1-2-1-13-10.2-19.4-3.3-2.3-7-3.6-11-4-15.8-1.7-27 12.4-28 13.8zm48.3 39.6c-5.3 0-9.2-.2-13 0-6 .3-20.3 2.8-28.5 15-6 9-5.4 18.5-5 21.2.4 5.3 1.2 15 9.3 20.4 6.7 4.4 15.3 4.7 22.4.8 3.2-1.8 5.2-4.3 7.6-7.2 2.6-3 4.6-6.7 6-10.5.4-1.3.7-2.7.8-4 .8-5 1-10.3 1-15.4l-.3-20.2zm39.2-61h10.5l1 20.5c1.6-3 3.4-6 5.4-8.7 2.2-3.2 4.8-6 7.7-8.5 1.5-1.2 8.8-6.8 18.5-6 8.2.7 13.6 5.7 16.4 8.2 3.5 3.3 7.8 8.6 11.6 22 6.6 22.8 4.2 42.5 2.6 55-.8 7-2.3 13.7-4.4 20.3-2.7 8.2-8.4 22.3-21.6 27-4.7 1.6-9.8 2-14.7 1.3-8-1-15.3-4.6-21-10l.1 48.1h-12V786.3zm11.5 71v15.6l.7 19.8c4.2 12.7 17.8 19.6 30.5 15.4a24.52 24.52 0 0 0 13.1-10.4 79.33 79.33 0 0 0 7.7-19.4c1.5-6.3 2.4-12.7 2.8-19a134.11 134.11 0 0 0 .3-15.5c.1-6.7-.4-27.4-12.2-40.7-2.3-2.5-6-6.5-11.7-7.5-6.6-1-12 2.2-15.2 4.2-9.8 6.3-14 16-15.7 21l-.2 9.5c-.4 9-.3 13-.2 27zm237-4.3h-59.2c.2 8.6 1 17 2.7 25.5 1.2 6.5 2.3 9.7 3.8 12.8 2 4 4.8 9.7 10.6 13.2 11.5 6.8 25.4-.3 27-1.2 4.3-2.3 8-5.5 11-9.5l3.8 9.7c-1.6 2-3.4 4-5.3 5.6-9.6 8-25 12.2-38.4 6.6-5.4-2.2-10.2-5.8-13.8-10.5-2.3-3-3.5-5.7-5-9.6-2.4-5.8-4.3-12-5.5-18.2-2-9.4-2.7-19-2.6-28.7.2-19.1 4-30.8 6.4-36.5 2-4.7 8.8-21.2 19.2-25.5a37.48 37.48 0 0 1 15.2-2.6c.4 0 1 .1 1.6.2.3 0 7.8 1.3 13.4 5 7 4.7 9.8 12.5 11.6 17.3 3 7.8 3.3 14.4 4 27.3V853zm-12.3-10l.1-9.8c0-9.7 0-14.6-1-19s-2-9-6-13.4c-1.4-1.7-6.5-7.4-13.8-7.3-7 0-11.8 5.2-14.5 8.2-5 5.4-6.5 11.2-8.6 19.4-2 7-3 14.5-3 21.8l46.8.1z"/></svg>