<svg id="svg3062" xmlns="http://www.w3.org/2000/svg" viewBox="0 0 2903.9 955.6"><style>.st0{fill:#0099df}.st1{fill:#6c6bbd}.st2{fill:#eb001b}.st3{fill:#fff}.st4{fill:#00579f}.st5{fill:#faa61a}.st6{fill:#f79410}.st7{fill:#ff5f00}.st8{fill:#f79e1b}.st9{fill:#fcaf17}.st10{fill:red}</style><g id="layer1"><g id="g5486"><g id="g5463"><g id="g3550"><path id="path3552" class="st0" d="M2896.5 386.5v-9.3h-2.4l-2.8 6.4-2.8-6.4h-2.4v9.3h1.7v-7l2.6 6h1.8l2.6-6v7h1.7zm-15.3 0v-7.7h3.1v-1.6h-7.9v1.6h3.1v7.7h1.7z"/></g><g id="g5456"><path id="path3554" class="st1" d="M2622.2 426.3h-208.8V51h208.8v375.3z"/><g id="g3556"><path id="path3558" class="st2" d="M2426.7 238.7c-.1-73.2 33.5-142.4 91.1-187.7-42-33.1-94-51.1-147.5-51-131.8 0-238.6 106.8-238.6 238.7s106.8 238.7 238.6 238.7c53.5.1 105.5-17.9 147.5-51-57.6-45.3-91.2-114.5-91.1-187.7"/></g><g id="g3560"><path id="path3562" class="st0" d="M2903.9 238.7c0 131.8-106.8 238.7-238.6 238.7-53.5.1-105.5-17.9-147.5-51 103.6-81.5 121.6-231.5 40.1-335.2a237.73 237.73 0 0 0-40.1-40.1c42-33.1 94-51.1 147.5-51 131.8 0 238.6 106.8 238.6 238.6"/></g></g></g><g id="g5404"><g id="g3564"><path id="path3566" class="st3" d="M2692.9 532.3c3.3 0 6.7.6 9.8 1.7l-4.2 13c-2.7-1.1-5.7-1.6-8.6-1.6-9 0-13.5 5.8-13.5 16.3v35.5h-13.8v-63.4h13.7v7.7c3.5-5.5 8.6-9.2 16.6-9.2m-51 14.2h-22.5v28.6c0 6.4 2.2 10.6 9.1 10.6 4.3-.1 8.5-1.4 12.2-3.6l4 11.8c-4.4 3-11.3 4.9-17.2 4.9-16.3 0-22-8.8-22-23.5v-28.9h-12.9v-12.6h12.9v-19.2h13.9v19.2h22.5v12.7zM2465.5 560c1.5-9.2 7-15.4 16.8-15.4 8.9 0 14.6 5.6 16 15.4h-32.8zm47.2 5.6c-.1-19.8-12.3-33.3-30.1-33.3-18.6 0-31.5 13.5-31.5 33.3 0 20.1 13.5 33.3 32.5 33.3 9.5 0 18.3-2.4 26-8.9l-6.8-10.2c-5.2 4.2-11.7 6.5-18.4 6.6-8.9 0-17-4.1-19-15.5h47.1c0-1.8.2-3.5.2-5.3m60.5-15.6c-6-3.5-12.8-5.3-19.7-5.5-7.6 0-12.1 2.8-12.1 7.4 0 4.2 4.8 5.4 10.7 6.2l6.5.9c13.8 2 22.1 7.8 22.1 19 0 12.1-10.6 20.7-28.9 20.7-10.4 0-19.9-2.7-27.4-8.2l6.6-10.7c4.6 3.6 11.6 6.6 21.1 6.6s14.4-2.8 14.4-7.7c0-3.6-3.6-5.6-11.1-6.6l-6.5-.9c-14.2-2-21.9-8.4-21.9-18.7 0-12.6 10.4-20.3 26.4-20.3 10.1 0 19.2 2.3 25.8 6.6l-6 11.2zm170-4.6c-2.7 0-5.4.5-7.9 1.5-2.4 1-4.5 2.4-6.3 4.2-1.8 1.8-3.2 4-4.2 6.5-2 5.3-2 11.2 0 16.5 1 2.4 2.4 4.6 4.2 6.5 1.8 1.8 3.9 3.2 6.3 4.2 5.1 2 10.7 2 15.8 0 2.4-1 4.5-2.4 6.3-4.2 1.8-1.8 3.3-4 4.2-6.5 2-5.3 2-11.2 0-16.5-1-2.4-2.4-4.6-4.2-6.5-1.8-1.8-4-3.2-6.3-4.2-2.5-1-5.2-1.5-7.9-1.5m0-13.1c4.7 0 9.3.8 13.7 2.6 4 1.6 7.7 4 10.9 7 3.1 3 5.5 6.6 7.2 10.6 3.5 8.5 3.5 18.1 0 26.6-1.7 4-4.1 7.6-7.2 10.6-3.1 3-6.8 5.4-10.9 7-8.8 3.4-18.5 3.4-27.3 0-4-1.6-7.7-4-10.8-7-3.1-3-5.5-6.6-7.1-10.6-3.5-8.5-3.5-18.1 0-26.6 3.4-8.1 9.9-14.4 18-17.6 4.3-1.8 8.9-2.7 13.5-2.6m-358.3 33.2c0-11.1 7.3-20.3 19.2-20.3 11.4 0 19.1 8.8 19.1 20.3s-7.7 20.3-19.1 20.3c-11.9 0-19.2-9.1-19.2-20.3m51.3 0v-31.6h-13.8v7.7c-4.4-5.7-11-9.3-20-9.3-17.8 0-31.7 13.9-31.7 33.3s13.9 33.3 31.7 33.3c9 0 15.6-3.6 20-9.3v7.7h13.8v-31.8zm-77.6 31.7v-39.7c0-15-9.5-25-24.9-25.2-8.1-.1-16.4 2.4-22.3 11.3-4.4-7-11.3-11.3-21-11.3-6.8 0-13.4 2-18.6 9.4v-7.8H2258v63.4h14v-35.1c0-11 6.1-16.8 15.5-16.8 9.1 0 13.8 6 13.8 16.7v35.3h13.9v-35.1c0-11 6.4-16.8 15.5-16.8 9.4 0 13.9 6 13.9 16.7v35.3l14-.3z"/></g><g id="g3568"><path id="path3570" class="st3" d="M2793.1 592.5v1.6h1.4c.3 0 .5-.1.8-.2.2-.1.3-.4.3-.6 0-.2-.1-.5-.3-.6-.2-.1-.5-.2-.8-.2h-1.4zm1.4-1.1c.6 0 1.2.1 1.7.5.4.3.6.8.6 1.4 0 .5-.2.9-.5 1.2-.4.3-.9.5-1.4.6l1.9 2.2h-1.5l-1.8-2.2h-.6v2.2h-1.2v-5.8l2.8-.1zm-.3 7.9c.7 0 1.3-.1 1.9-.4.6-.2 1.1-.6 1.6-1 .4-.5.8-1 1-1.6a5 5 0 0 0 0-3.8c-.2-.6-.6-1.1-1-1.6-.4-.4-1-.8-1.6-1-.6-.3-1.2-.4-1.9-.4s-1.3.1-1.9.4c-.6.2-1.1.6-1.6 1-1.4 1.4-1.8 3.6-1 5.4.2.6.6 1.1 1 1.6.5.4 1 .8 1.6 1 .5.2 1.2.4 1.9.4m0-11.2c.9 0 1.7.2 2.5.5.7.3 1.4.8 2 1.3.6.6 1.1 1.2 1.4 2 .7 1.6.7 3.3 0 4.9-.3.7-.8 1.4-1.4 2-.6.6-1.3 1-2 1.4-.8.3-1.6.5-2.5.5-1.7 0-3.4-.7-4.6-1.9-.6-.6-1-1.3-1.4-2-.7-1.6-.7-3.3 0-4.9.3-.8.8-1.4 1.4-2 .6-.6 1.2-1 2-1.3.8-.4 1.6-.5 2.6-.5"/></g></g></g></g><g id="g4158"><path class="st3" d="M1982.3 549.7h-1059c-27 0-48.9-21.9-48.9-48.9V99.9c0-27 21.9-48.9 48.9-48.9h1059c27 0 48.9 21.9 48.9 48.9v400.9c0 27-21.9 48.9-48.9 48.9z"/><path id="polygon9" class="st4" d="M1383.9 474.8h-85.8l53.7-331.8h85.8l-53.7 331.8z"/><path id="path11" class="st4" d="M1694.8 151.2c-24.5-9.5-50.6-14.2-77-14.1-84.7 0-144.4 45.2-144.7 109.8-.7 47.7 42.7 74.1 75.2 90 33.2 16.2 44.5 26.8 44.5 41.3-.3 22.2-26.8 32.5-51.5 32.5-34.2 0-52.6-5.3-80.5-17.7l-11.3-5.3-12 74.5c20.1 9.2 57.2 17.3 95.7 17.7 90 0 148.6-44.5 149.3-113.3.3-37.8-22.6-66.7-72-90.4-30-15.2-48.4-25.4-48.4-40.9.3-14.1 15.5-28.6 49.4-28.6 27.9-.7 48.4 6 63.9 12.7l7.8 3.5 11.6-71.7z"/><path id="path13" class="st4" d="M1808.9 357.3c7.1-19.1 34.2-92.8 34.2-92.8-.4.7 7.1-19.4 11.3-31.8l6 28.6s16.2 79.4 19.8 96h-71.3zm105.9-214.2h-66.4c-20.5 0-36 6-44.8 27.5l-127.4 304.2h90s14.8-40.9 18-49.8h110.1c2.5 11.6 10.2 49.8 10.2 49.8h79.4l-69.1-331.7z"/><path id="path15" class="st4" d="M1226.4 143.1l-84 226.2-9.2-45.9c-15.5-52.9-64.2-110.5-118.6-139.1l77 290.1h90.7L1317.1 143l-90.7.1z"/><path id="path17" class="st5" d="M1064.4 143.1h-138l-1.4 6.7c107.7 27.5 179 93.9 208.3 173.7l-30-152.5c-5-21.2-20.2-27.2-38.9-27.9z"/></g><path class="st3" d="M756.2 592.5v1.6h1.4c.3 0 .5-.1.8-.2.2-.1.3-.4.3-.6 0-.2-.1-.5-.3-.6-.2-.1-.5-.2-.8-.2h-1.4zm1.5-1.1c.6 0 1.2.1 1.7.5.4.3.6.8.6 1.4 0 .5-.2.9-.5 1.2-.4.3-.9.5-1.4.6l1.9 2.2h-1.5l-1.8-2.2h-.6v2.2H755v-5.8l2.7-.1zm-.4 7.9c.7 0 1.3-.1 1.9-.4.6-.2 1.1-.6 1.5-1 .4-.5.8-1 1-1.6a5 5 0 0 0 0-3.8c-.2-.6-.6-1.1-1-1.6-.5-.4-1-.8-1.5-1-.6-.2-1.2-.4-1.9-.4s-1.3.1-1.9.4c-.6.2-1.1.6-1.6 1-1.4 1.4-1.8 3.6-1 5.4.2.6.6 1.1 1 1.6.5.4 1 .8 1.6 1 .6.3 1.3.4 1.9.4m0-11.2c1.7 0 3.3.7 4.5 1.8.6.6 1 1.2 1.4 2 .7 1.6.7 3.3 0 4.9-.3.7-.8 1.4-1.4 2-.6.6-1.3 1-2 1.3-.8.3-1.6.5-2.5.5-.9 0-1.7-.2-2.5-.5-.7-.3-1.4-.8-2-1.3-.6-.6-1-1.3-1.4-2-.7-1.6-.7-3.3 0-4.9.3-.8.8-1.4 1.4-2 .6-.6 1.3-1 2-1.3.8-.4 1.7-.5 2.5-.5m-591.1-22.5c0-11.1 7.3-20.3 19.2-20.3 11.4 0 19.1 8.8 19.1 20.3s-7.7 20.3-19.1 20.3c-11.9 0-19.2-9.2-19.2-20.3m51.3 0v-31.7h-13.8v7.7c-4.4-5.7-11-9.3-20-9.3-17.8 0-31.7 13.9-31.7 33.3s13.9 33.3 31.7 33.3c9 0 15.6-3.6 20-9.3v7.7h13.8v-31.7zm465.6 0c0-11.1 7.3-20.3 19.2-20.3 11.4 0 19.1 8.8 19.1 20.3s-7.7 20.3-19.1 20.3c-11.9 0-19.2-9.2-19.2-20.3m51.3 0v-57.1h-13.8v33.1c-4.4-5.7-11-9.3-20-9.3-17.8 0-31.7 13.9-31.7 33.3s13.9 33.3 31.7 33.3c9 0 15.6-3.6 20-9.3v7.7h13.8v-31.7zm-345.9-21c8.9 0 14.6 5.6 16 15.4h-32.8c1.4-9.2 6.9-15.4 16.8-15.4m.2-12.3c-18.6 0-31.6 13.5-31.6 33.3 0 20.2 13.5 33.3 32.5 33.3 9.5 0 18.3-2.4 26-8.9l-6.8-10.2c-5.2 4.2-11.7 6.5-18.4 6.6-8.9 0-17-4.1-19-15.5h47c.1-1.7.3-3.4.3-5.3 0-19.8-12.2-33.3-30-33.3m166.4 33.3c0-11.1 7.3-20.3 19.2-20.3 11.4 0 19.1 8.8 19.1 20.3s-7.7 20.3-19.1 20.3c-11.9-.1-19.2-9.2-19.2-20.3m51.3 0v-31.7h-13.7v7.7c-4.4-5.7-11-9.3-20-9.3-17.8 0-31.7 13.9-31.7 33.3s13.9 33.3 31.7 33.3c9 0 15.6-3.6 20-9.3v7.7h13.8l-.1-31.7zm-129.1 0c0 19.2 13.4 33.3 33.8 33.3 9.5 0 15.9-2.1 22.8-7.6l-6.6-11.1c-4.8 3.6-10.6 5.6-16.6 5.7-11-.1-19.1-8.1-19.1-20.3s8.1-20.2 19.1-20.3c6 .1 11.8 2.1 16.6 5.7l6.6-11.1c-6.9-5.4-13.2-7.6-22.8-7.6-20.4 0-33.8 14-33.8 33.3m177.6-33.3c-8 0-13.1 3.7-16.7 9.3v-7.7h-13.7v63.4h13.8v-35.5c0-10.5 4.5-16.3 13.5-16.3 3 0 5.9.5 8.6 1.6l4.2-13c-3-1.2-6.3-1.8-9.7-1.8m-369.3 6.6c-6.6-4.4-15.8-6.6-25.8-6.6-16.1 0-26.4 7.7-26.4 20.3 0 10.3 7.7 16.7 21.9 18.7l6.5.9c7.6 1.1 11.1 3 11.1 6.6 0 4.9-5 7.7-14.5 7.7s-16.4-3-21.1-6.6l-6.5 10.7c7.6 5.6 17.1 8.2 27.4 8.2 18.3 0 28.9-8.6 28.9-20.7 0-11.1-8.4-17-22.1-19l-6.5-.9c-6-.8-10.7-2-10.7-6.2 0-4.6 4.5-7.4 12.1-7.4 6.9.1 13.7 2 19.8 5.4l5.9-11.1zm177.8-6.6c-8 0-13.1 3.7-16.7 9.3v-7.7H433v63.4h13.8v-35.5c0-10.5 4.5-16.3 13.5-16.3 3 0 5.9.5 8.6 1.6l4.2-13a26.9 26.9 0 0 0-9.7-1.8m-117.6 1.6h-22.5v-19.2h-13.9v19.2h-12.9v12.6h12.9v28.9c0 14.7 5.7 23.5 22 23.5 6 0 12.9-1.8 17.2-4.9l-4-11.8c-3.7 2.2-7.9 3.4-12.2 3.6-6.9 0-9.1-4.2-9.1-10.6v-28.6h22.5v-12.7zm-206 63.3v-39.8c0-15-9.5-25-24.9-25.2-8.1-.1-16.4 2.4-22.3 11.3-4.4-7-11.3-11.3-20.9-11.3-6.8 0-13.4 2-18.6 9.4v-7.8H39.3v63.4h13.9v-35.1c0-11 6.1-16.8 15.5-16.8 9.2 0 13.8 6 13.8 16.7v35.3h13.9v-35.1c0-11 6.4-16.8 15.5-16.8 9.4 0 13.9 6 13.9 16.7v35.3l14-.2z"/><path class="st6" d="M764.7 386.5v-9.3h-2.4l-2.8 6.4-2.8-6.4h-2.4v9.3h1.7v-7l2.6 6h1.8l2.6-6v7h1.7zm-15.3 0v-7.7h3.1v-1.6h-7.9v1.6h3.1v7.7h1.7z"/><path class="st7" d="M490.4 426.3H281.6V51.1h208.8v375.2z"/><path class="st2" d="M295 238.7c-.1-73.2 33.5-142.4 91.1-187.7-42-33.1-94-51.1-147.5-51C106.8 0 0 106.8 0 238.7s106.8 238.7 238.6 238.7c53.5.1 105.5-17.9 147.5-51-57.6-45.3-91.2-114.5-91.1-187.7"/><path class="st8" d="M772 238.7c0 131.8-106.8 238.7-238.6 238.7-53.5.1-105.5-17.9-147.5-51C489.5 344.8 507.5 194.8 426 91.2a237.73 237.73 0 0 0-40.1-40.1C427.9 18 479.9 0 533.4 0 665.2 0 772 106.8 772 238.7"/><g id="Слой_1"><path class="st3" d="M394.4 916.4h36l8.3-14.7h-44.3v14.7zm282.2-14.2h-28v-14.3h28c4.5 0 7.8 1.1 7.8 7.1 0 4.7-2 7.2-7.8 7.2zm-28-38.3h25.5c3.8 0 5.4 2 5.4 5.8 0 4-2.5 6-5.4 6h-25.5v-11.8zm39.2 13.2c4.2-1.8 7.8-4.7 7.8-11.9 0-13.8-11.6-15.4-19.7-15.4h-43.1v66.6h43.8c20.1 0 24.2-11 24.2-21.2 0-11.4-6.4-16.2-13-18.1zm132.7 39.3h36l8.3-14.7h-44.3v14.7zm-426.1-40.8v14.7h50.9l8.5-14.7h-59.4zm361.3 26.6h-23.3v-14.8h23.3c2.7 0 6.9.7 6.9 7.4 0 6.2-3.4 7.4-6.9 7.4zm.9-28.6h-24.2v-23.9h-15.9v66.6h40c10.8 0 22.1-6 22.1-21.7-.1-20.6-14.6-21-22-21zm30 42.8h15.8v-66.6h-15.8v66.6zm-298.4-66.6L450 916.4h18.8l25.2-44 25.3 44H539l-38.2-66.6h-12.6zm90.8 52.8c-15.4 0-21.9-8.9-21.9-19.7 0-12 7.4-19.9 21.9-19.9 16.3 0 21.9 8 21.9 19.9.1 14.3-10.6 19.7-21.9 19.7zm.2-54.5c-26.6 0-39.3 16.3-39.3 34.6 0 19 12.3 34.6 39.3 34.6 11.8 0 38.9-5.4 38.9-34.6.1-19-12.1-34.6-38.9-34.6zM303 901.7l25.2-44 25.3 44H303zm32.2-66.6h-13L284 901.7h-9.6v34.2h15.2v-19.5h78.2v19.5H383v-34.2h-9.6l-38.2-66.6zm133.5 14.7h-74.2v14.7h65.7l8.5-14.7zm351.8 25.8v14.7h50.9l8.5-14.7h-59.4zm74.2-25.8h-74.2v14.7h65.7l8.5-14.7zm387 0L1244 893v-43.2h-15.9v66.6h13.4l38.4-43.6v43.6h15.9v-66.6h-14.1zm-367.4 0l-38.2 66.6h18.8l25.2-44 25.3 44h19.7L927 849.8h-12.7zm194 25.8h-34.9v-25.9h-16v66.6h15.9v-26.1h34.9v26.1h15.9v-66.6h-15.9l.1 25.9zm50 17.4v-43.3h-15.9v66.6h13.4l38.2-43.6v43.6h16v-66.6h-14.1l-37.6 43.3zm-170.7-.3v-42.9h-16v66.6H985l38.4-43.3v43.3h15.9v-66.6h-13.4l-38.3 42.9z"/><path class="st9" d="M157.3 884.2l-75.1-32.5-16 27.6 84.5 16.2 6.6-11.3zm-10.5 32.3h25l22-38 21.9 38h25l-46.9-81.3-47 81.3zm-84.3-30.7l-17.7 30.7h93.9L147 902l-84.5-16.2zm127.2-57.7l-46.9-81.3-17.8 30.7 56.3 65 8.4-14.4zM177.6 849l-56.3-65-15.9 27.6 65.7 48.8 6.5-11.4zm-10.1 17.5l-65.7-48.8-16 27.8 75.1 32.5 6.6-11.5z"/></g><path class="st10" d="M1810.8 737.1h-13.3c-4.1 0-8.2.9-12 2.6-4 1.9-7.6 4.7-10.3 8.2-3.3 4.4-5.7 9.3-7.2 14.5-1.9 6.9-2.8 14-2.7 21.2 0 8 1 14.9 3 20.4 1.7 5.1 4.3 9.7 7.8 13.8 3 3.4 6.8 6.1 11.1 7.8 4.1 1.6 8.5 2.5 12.9 2.5h10.8l-.1-91zm-51.4 181.2H1736l41.7-76.9c-12.2-5.8-20.9-13.6-26.1-23.3-5.2-9.7-7.8-21.2-7.8-34.6 0-10.3 1.5-19.4 4.4-27.2 2.6-7.4 6.6-14.1 11.8-19.9 4.8-5.3 10.7-9.5 17.3-12.2 6.7-2.8 13.8-4.1 21-4.1h32.9v198.2h-20.3v-73.5h-13.3l-38.2 73.5z"/><path class="st3" d="M1909.1 837.9h-30.3v-52.2h-20.6v132.4h20.6v-63.2h30.3v63.3h20.3V785.7h-20.3v52.2zm308-52.2h-21.9l-28 57.6-2.3 2.6v-60.2h-20.6v132.4h20.6V850l2.3 2.8 31.6 65.3h22.9l-37-72.8 32.4-59.6zm72 115c-3.8 1.1-7.7 1.6-11.6 1.7-9.9 0-17.3-4.5-22.1-13.4s-7.2-21.2-7.2-36.8c0-6.6.5-13.2 1.5-19.7.9-5.8 2.3-11.6 4.4-17.1 1.6-4.5 4-8.6 7.2-12.1 2.9-3.1 6.2-4.6 9.8-4.6 3.2 0 6.4 1 9.1 2.8 3 1.9 5.8 4.3 8.1 7l10.6-17.8c-3.7-2.6-7.9-4.7-12.2-6.2-4.9-1.6-10.1-2.4-15.3-2.3-6.3 0-12.5 1.9-17.8 5.4-5.8 3.9-10.6 9.1-14.1 15.2-4.3 7.4-7.4 15.3-9.4 23.7-2.4 10.1-3.6 20.5-3.5 30.8 0 20.6 4.1 36.3 12.2 47.3s18.8 16.5 32 16.5c5.6.1 11.3-.8 16.6-2.7 4.6-1.7 9-3.8 13.2-6.3l-2.1-14.7c-3 1.4-6.2 2.5-9.4 3.3zm110.6-51.3c-1.8 7-3.3 14.1-4.4 21.3h-.8c-.9-7.2-2.1-14.3-3.9-21.3l-31-117.2h-14.9v183.4h11.3V787c0-9.2-.2-18.5-.8-27.2h.8c1.5 8.5 3.6 16.7 6.2 26.2l27.2 101.3h10l27.4-102.1c2-7.7 3.8-15.1 6.1-25.4h1c-.5 9.2-1 18.5-1 27.2v128.5h12.3V732.1H2431l-31.3 117.3zm330.1-63.1H2718l-43.4 60.8v-60.8h-12.1v129.3h12.1v-67l44.9 66.9h13.4l-45.7-69.2 42.6-60zm96.2 0v10h30v119.3h12V796.3h29.8v-10H2826zm-792 156.5l-17.5.1.2-26-57.8.2-.1 25.1-16.9.1c0-13.5 0-26.9.1-40.4h8.2c4.6-9.8 8.3-20 11-30.5 3.9-15 4.8-27 5.5-36.3.7-9.5.8-17.6 1-30.5.1-7.8.1-14.2 0-18.9l56-.1c0 38.9 0 77.8-.1 116.8l10.3.1c-.1 13.5 0 26.9.1 40.3zm-30-40.9v-13.7c.2-45.5.1-58.8 0-72.4 0-2.8-.1-7.7-.2-13.8-3 .3-16.1.5-19 .3-.1 5.5-.5 13.4-1.2 22.9-1.2 15-2.3 29-6.4 45.8-2.6 10.6-6 20.9-10.3 31l37.1-.1zm119.8-45.3c-9-.1-18-.1-27.2-.1-9.5 0-18.8.1-28.1.2 0 2.5.2 6 .6 10.2.3 4.5 1.1 9 2.2 13.3 1 3.3 3.7 12.8 12.1 18.3 9.4 6.2 20.6 3.9 26.2 2.8 4.2-.9 8.2-2.3 12-4.3l2.2 16.1c-3.9 1.8-8 3.3-12.2 4.4-8.2 2.1-25.2 6.7-39.7-1.5-10.1-5.8-17.6-16.3-21-30.9-5.8-24.3-4.4-49.8 4-73.3 2-5.6 4.9-10.9 8.5-15.6 14.6-19.5 39.3-17.8 51.4 3.4 9.7 17.3 9.5 36.2 9 57zm-19.8-16.8c.1-4.2 0-8.5-.5-12.7-.7-6.9-1.1-10.7-3.1-15-1.3-2.8-5.6-11.7-12.7-12s-12.3 8-13.3 9.6-2.1 3.9-3.4 9.2c-1.6 6.7-2.4 13.6-2.5 20.4l35.5.5zm372.9-32l-3.3-10.4c2.1-2.7 4.6-5 7.4-7 11.1-7.8 23.4-6.7 26.9-6.3 4.8.5 9.6 1.9 13.9 4.1 3.1 1.5 5.9 3.6 8.2 6.2 6.7 7.7 7.1 18.6 7.1 25.9 0 16.3-.8 67.9-.4 77.3.1 2.3.4 4.6.9 6.9.8 3.6 2 7.1 3.7 10.4l-11.8.6c-2.1-5.3-3-11-2.9-16.7l-3.4 4.2c-5.1 6.3-5.8 7.2-7.1 8.3-2.4 2.2-5.2 3.9-8.2 5.1-8.2 3.2-15.8 1-18.3.3-13-3.6-18.7-14.2-20.3-26.8-2.2-16.6.5-29.2 7.9-37.8 10.1-11.7 26.1-12.6 37-13.4 3.7-.3 7.4-.2 11.1.1l.7-21.4c-.1-1.9-1.1-13-10.2-19.4-3.3-2.3-7-3.6-11-4-15.8-1.7-26.9 12.4-27.9 13.8zm48.3 39.6c-5.3 0-9.2-.2-13.1 0-5.9.3-20.3 2.8-28.5 15-6 9-5.4 18.5-5.1 21.2.4 5.3 1.2 14.9 9.3 20.4 6.7 4.4 15.3 4.7 22.4.8 3.2-1.8 5.2-4.3 7.6-7.2 2.6-3.1 4.6-6.7 5.9-10.5.4-1.3.7-2.7.8-4.1.8-5.1 1.1-10.3 1-15.4l-.3-20.2zm39.2-61.1h10.5l.9 20.5c1.6-3 3.4-6 5.4-8.7 2.2-3.2 4.8-6 7.7-8.5 1.5-1.2 8.8-6.8 18.5-5.9 8.2.7 13.6 5.7 16.4 8.2 3.5 3.3 7.8 8.6 11.6 22 6.6 22.8 4.2 42.5 2.6 54.9-.8 6.9-2.3 13.7-4.4 20.3-2.7 8.2-8.4 22.3-21.6 27.1-4.7 1.6-9.8 2.1-14.7 1.3-7.9-1.1-15.3-4.6-21-10.1 0 16 0 32 .1 48.1h-12V786.3zm11.5 71.1c.1 11.4 0 10.8.1 15.8.1 8.5.4 15.3.7 19.8 4.2 12.7 17.8 19.6 30.5 15.4 5.4-1.8 10.1-5.5 13.1-10.4 3.4-6.1 6-12.6 7.7-19.4 1.5-6.3 2.4-12.7 2.8-19.1.4-5.2.5-10.4.3-15.5.1-6.7-.4-27.4-12.2-40.7-2.3-2.5-5.9-6.5-11.7-7.5-6.6-1.1-12 2.2-15.2 4.2-9.8 6.3-14 16-15.7 21-.1 2-.2 5.3-.2 9.5-.4 8.9-.3 13-.2 26.9zm237.1-4.3l-59.4-.2c.2 8.6 1.1 17.1 2.7 25.5 1.2 6.5 2.3 9.7 3.8 12.8 2 4 4.8 9.7 10.6 13.2 11.5 6.8 25.4-.3 27-1.2 4.3-2.3 8-5.5 10.9-9.5l3.8 9.7c-1.6 2.1-3.4 3.9-5.3 5.6-9.6 8.1-25.1 12.2-38.4 6.6-5.4-2.2-10.2-5.8-13.8-10.5-2.3-3-3.5-5.7-5.1-9.6-2.4-5.8-4.3-11.9-5.5-18.2-1.9-9.4-2.7-19.1-2.6-28.7.2-19.1 4.1-30.8 6.4-36.5 1.9-4.7 8.8-21.2 19.2-25.5 4.8-1.9 10-2.8 15.2-2.6.4 0 .9.1 1.6.2.3 0 7.8 1.3 13.4 5.1 6.9 4.7 9.8 12.5 11.6 17.3 2.9 7.8 3.3 14.4 3.9 27.3.2 8.1.1 14.6 0 19.2zm-12.3-9.9c.1-2.3.1-5.7.1-9.8 0-9.7 0-14.6-1-19s-2.1-9.1-5.9-13.4c-1.4-1.7-6.5-7.4-13.8-7.3-7 0-11.8 5.2-14.5 8.2-4.9 5.4-6.5 11.2-8.6 19.4-1.9 7.1-2.9 14.5-3.1 21.8l46.8.1z"/></svg>