<svg id="Layer_1" xmlns="http://www.w3.org/2000/svg" viewBox="0 0 607.1 444.9"><style>.st0{fill:#345c04}</style><path class="st0" d="M0 330v107.3c0 4.2 3.4 7.6 7.6 7.6h496.8c4.2 0 7.6-3.4 7.6-7.6V330c0-4.2-3.4-7.6-7.6-7.6H7.6c-4.2 0-7.6 3.4-7.6 7.6zm15.2 32c2.7 1.3 4.2 3 4.2 4.2s-1.5 2.9-4.2 4.2V362zm481.6 38.5v3.7h-.1c0 .3.1.6.1.8 0 .4-.1.9-.1 1.3.1.3.1.5.2.8 0 2 .4 4 .3 6.1-.1 2-.4 4-.4 6.1v10.4H175.9c-.8.1-1.6 0-2.3-.3h-1.2c-7.4.1-14.8.1-22.2.1-.3 0-.6 0-.9-.1-.6.1-1.1 0-1.7 0-6.2.3-12.4.5-18.6.5-.6 0-1.1-.1-1.6-.2H15.2v-8.4c14.1-1.7 51.9-7.3 142.3-26.1 97.2-20.2 185.7-17.3 242.9-11.3 48.7 5.1 83.5 13.3 96.4 16.6zm0-62.9V359c-15.7-.9-52.2-4.9-77.9-21.4h77.9zm-233-.1c1.2 0 2.4 0 3.7.1.8-.1 1.7-.1 2.5-.1.4 0 .9.1 1.4.2h3.6l.1-.1H395c28.7 29.9 82 35.6 101.8 36.6v10.6c-15.5-3.9-48.7-11.1-94.5-16-58.3-6.1-148.7-9.2-247.9 11.5C67.3 398.4 29.7 404.1 15.2 406v-19.7c11.3-2.5 19.4-10.4 19.4-20.1s-8.1-17.6-19.4-20.1v-8.4h18.6l.1.1c3.5 0 7.1.1 10.6.2 1.8-.1 3.5-.2 5.3-.1h.2c2.9 0 5.7.1 8.6.1.5-.1 1.1-.2 1.7-.1 1-.3 1.9-.3 2.7 0h1.6c.2 0 .3 0 .5-.1-.1 0-.2-.1-.3-.1h179.4c-.1 0-.2.1-.2.1 6.3 0 13.1-.5 19.5-.2.1-.1.2-.1.3-.1zM0 114.5v107.3c0 4.2 3.4 7.6 7.6 7.6h496.8c4.2 0 7.6-3.4 7.6-7.6V114.5c0-4.2-3.4-7.6-7.6-7.6H7.6c-4.2 0-7.6 3.4-7.6 7.6zm15.2 99.7v-21.4c15.7.9 52.2 4.9 77.9 21.4H15.2zm481.6-24.4c-2.7-1.3-4.2-3-4.2-4.2 0-1.2 1.5-2.9 4.2-4.2v8.4zm0-24.3c-11.3 2.5-19.4 10.4-19.4 20.1s8.1 17.6 19.4 20.1v8.4h-17.1c-.6.3-1.3.4-2.1.4-10.3 0-20.6-.3-31-.4-.2 0-.5 0-.7-.1h-178c-1.9.2-3.9.1-5.8 0-3.2-.1-6.5-.3-9.8-.4-5.1.3-10.3.5-15.3.5-.3 0-.5 0-.8-.1H117c-28.7-29.9-82-35.6-101.8-36.6V167c15.5 3.9 48.7 11.1 94.5 16 58.3 6.1 148.7 9.2 247.9-11.4 87.1-18.1 124.7-23.8 139.2-25.7v19.6zm-160.2-43.4c-.1 0-.2 0-.2.1 9.8 0 19.6.3 29.4.1.4 0 .7 0 1.1.1h3.1c.6-.1 1.3-.1 2 0 1.9.3 4-.3 5.9-.3 1.5 0 3 .1 4.5.1.6-.1 1.3-.1 1.9 0 .1-.1.2-.1.4-.2h112.1v8.4c-14.1 1.7-51.9 7.3-142.3 26.1-97.2 20.2-185.7 17.3-242.9 11.3-48.8-5.1-83.6-13.3-96.5-16.6v-3.7h.1c-.1-.6-.1-1.2-.1-1.9-.1-.6-.1-1.2 0-1.8 0-.2-.1-.5-.1-.8 0-.4 0-.8.1-1.1v-3.2c0-.3-.1-.6-.1-1-.1-.5 0-.9 0-1.3v-.8c-.3-.9-.2-1.9 0-2.8v-.8h-.1v-10.2h321.7z"/><path class="st0" d="M95.1 222.6v107.3c0 4.2 3.4 7.6 7.6 7.6h496.8c4.2 0 7.6-3.4 7.6-7.6V222.6c0-4.2-3.4-7.6-7.6-7.6H102.7c-4.2 0-7.6 3.4-7.6 7.6zm15.2 31.9c2.7 1.3 4.2 3 4.2 4.2 0 1.2-1.5 2.9-4.2 4.2v-8.4zM591.9 312v10.2H270.5C386 292.8 556.2 308.3 591.9 312zm0-35.5c.2.8.2 1.5 0 2.3v1c0 .4 0 .7-.1 1v.5c0 .3 0 .7-.1 1 .1 3 .4 5.9.4 8.9 0 .7-.1 1.4-.3 2h.1v3.7c-19.8-2-72-6.8-133.2-7.3-103.9-.9-183.4 10.2-236.3 32.9H110.3v-7.9c0-1.5 0-3 .1-4.5-.1-.4-.1-.8-.1-1.3 0-.2.1-.4.1-.6-.1-.7-.1-1.4 0-2.1 0-.2-.1-.5 0-.7.1-1.8 0-3.7.1-5.5-.1-.4-.1-.7-.1-1.1v-19.7c11.3-2.5 19.4-10.4 19.4-20.1s-8.1-17.6-19.4-20.1v-8.4H129c8.9 7.5 41.2 28.7 120.7 28.7s111.7-21.2 120.7-28.7h119.9c28.7 29.9 82 35.6 101.8 36.6v9.4zm-432-46.4h179.4c-17.1 6.7-45.4 13.6-89.7 13.6-44.4 0-72.7-6.9-89.7-13.6zm432 0v21.4c-15.7-.9-52.2-4.9-77.9-21.4h77.9zM95.1 7.6v107.3c0 4.2 3.4 7.6 7.6 7.6h496.8c4.2 0 7.6-3.4 7.6-7.6V7.6c0-4.2-3.4-7.6-7.6-7.6H102.7c-4.2 0-7.6 3.4-7.6 7.6zm15.2 32c2.7 1.3 4.2 3 4.2 4.2 0 1.2-1.5 2.9-4.2 4.2v-8.4zM591.9 97v10.2H270.5C386 77.9 556.2 93.3 591.9 97zm0-35.5c.2.8.2 1.5 0 2.3v1c0 .4 0 .7-.1 1v.5c0 .3 0 .7-.1 1 .1 3 .4 5.9.4 8.9 0 .7-.1 1.4-.3 2h.1v3.7c-19.8-2-72-6.8-133.2-7.3-103.9-.9-183.4 10.2-236.3 32.9H110.3v-7.9c0-1.5 0-3 .1-4.5-.1-.4-.1-.8-.1-1.3 0-.2.1-.4.1-.6-.1-.7-.1-1.4 0-2.1 0-.2-.1-.5 0-.7.1-1.8 0-3.7.1-5.5-.1-.4-.1-.7-.1-1.1v-20c11.3-2.5 19.4-10.4 19.4-20.1s-8.1-17.6-19.4-20.1v-8.4H129c8.9 7.5 41.2 28.7 120.7 28.7s111.7-21.2 120.7-28.7h119.9c28.7 29.9 82 35.6 101.8 36.6v9.7zm-432-46.3h179.4c-17.1 6.7-45.4 13.6-89.7 13.6-44.4-.1-72.7-6.9-89.7-13.6zm432 0v21.4c-15.7-.9-52.2-4.9-77.9-21.4h77.9z"/></svg>