<svg xmlns="http://www.w3.org/2000/svg" viewBox="0 0 511.999 511.999" width="512" height="512"><path d="M227.438 511.934l-.099.013.099-.013zm-.099.013l-.099.013c.034-.003.067-.008.099-.013zm6.674-54.644V129.2a7.5 7.5 0 0 0-7.501-7.501 7.5 7.5 0 0 0-7.501 7.501v87.04c-16.97-89.055-23.216-175.328-24.807-201.238h24.807v84.195a7.5 7.5 0 0 0 7.501 7.501 7.5 7.5 0 0 0 7.501-7.501V7.501A7.5 7.5 0 0 0 226.512 0H73.373a7.5 7.5 0 0 0-7.501 7.501v350.244c0 4.143 3.357 7.501 7.501 7.501s7.501-3.357 7.501-7.501V117.747c15.007 53.599 33.9 169.17 11.71 379.249h-11.71V387.748c0-4.142-3.357-7.501-7.501-7.501s-7.501 3.358-7.501 7.501v116.748a7.5 7.5 0 0 0 7.501 7.501h25.943l.018.001.021-.001h29.446l98.637-.063c.161-.02.323-.043.484-.074.11-.021.217-.047.325-.073.112-.027.224-.054.335-.086.129-.037.256-.079.383-.122.049-.017.099-.029.148-.048.038-.014.072-.032.11-.047a7.19 7.19 0 0 0 .451-.193c.085-.04.17-.08.254-.122.126-.065.25-.134.372-.206.099-.058.197-.116.293-.178.099-.064.194-.132.289-.2.108-.077.215-.155.318-.238.08-.064.156-.131.233-.198.107-.093.213-.186.314-.285.072-.07.14-.143.208-.216.095-.101.19-.201.279-.306.072-.085.139-.173.208-.262.076-.098.152-.196.222-.297.074-.106.142-.216.211-.325.056-.09.113-.179.165-.271.071-.125.135-.253.199-.383.041-.085.084-.168.122-.254a8.2 8.2 0 0 0 .166-.411c.033-.089.068-.178.098-.268.044-.132.082-.266.118-.4.029-.106.058-.212.082-.319.027-.119.049-.24.07-.361.023-.13.044-.26.06-.391a7.723 7.723 0 0 0 .053-.768c.001-.045.007-.089.007-.135-.002-.023-.002-47.171-.002-47.194zm-111.699 39.692h-14.648c9.685-92.511 16.929-221.983-.688-329.62-9.509-58.102-22.375-86.077-26.106-93.303v-59.07h7.384c8.737 11.599 25.298 43.386 36.933 97.577 9.268 43.166 14.25 93.848 14.807 150.638.678 69.299-5.272 147.923-17.682 233.778zm54.906 0c-5.941-28.54-10.987-71.664-3.545-89.195 3.778 4.651 11.76 17.088 25.994 50.001 6.505 15.041 12.343 29.803 15.969 39.194H177.22zm41.791-31.97a900.923 900.923 0 0 0-6.788-15.974c-22.794-52.159-31.668-57.561-38.195-58.53-3.915-.583-7.588.971-10.08 4.257-16.003 21.105-6.656 78.88-2.023 102.217h-24.448c12.422-86.566 18.309-165.865 17.502-235.825-.669-58.01-5.919-109.811-15.602-153.964-10.689-48.734-24.449-77.496-33.258-92.205h40.167c2.717 22.302 12.092 98.015 24.123 181.489 19.038 132.101 35.387 220.248 48.602 262.064v6.471zm0-68.946C193.761 274.814 166.907 60 161.4 15.002h17.775c1.899 31.325 11.116 159.718 39.835 270.212v110.865zm7.503 115.92c.242 0 .484-.015.727-.039l-.753.037.026.002zM438.626 0H285.487a7.5 7.5 0 0 0-7.501 7.501v496.996a7.5 7.5 0 0 0 7.501 7.501h153.139a7.5 7.5 0 0 0 7.501-7.501V397.904a7.5 7.5 0 0 0-7.501-7.501 7.5 7.5 0 0 0-7.501 7.501v99.091H409.04c-.991-86.295 1.245-207.445 16.727-308.985 1.787-11.721 3.597-22.145 5.359-31.352v211.244a7.5 7.5 0 0 0 7.501 7.501 7.5 7.5 0 0 0 7.501-7.501V7.501A7.5 7.5 0 0 0 438.626 0zM335.515 149.549c3.041 0 5.892-1.446 7.829-4.035 2.574-3.439 7.932-10.597 3.084-76.813-1.577-21.54-3.75-42.494-4.979-53.699h14.1c3.622 26.92 15.721 133.032-9.974 187.959-4.138 8.846-7.266 10.529-8.148 10.425-.468-.055-11.649-1.987-28.998-57.874-8.493-27.36-14.431-54.784-15.441-59.546v-20.49c1.785 4.641 3.66 9.427 5.583 14.213 21.454 53.412 29.005 58.738 35.437 59.742a9.743 9.743 0 0 0 1.507.118zM292.987 15.002h33.37c1.148 10.357 3.375 31.499 5.01 53.447 2.551 34.275 2.271 51.485 1.473 60.066-9.016-15.319-25.068-53.881-39.852-96.518V15.002zm26.103 481.994h-26.102V253.663c13.366 55.61 30.442 147.866 26.102 243.333zm15.016-.001c3.515-79.277-7.496-155.534-17.553-206.23-10.299-51.918-21.36-87.143-23.566-93.953v-40.49h.001c.357 1.179.717 2.359 1.083 3.54 9.523 30.698 22.858 66.219 41.604 68.423.667.079 1.325.118 1.978.118 8.351-.001 15.58-6.41 21.509-19.086 13.258-28.339 19.003-71.203 17.076-127.4-1.006-29.343-3.874-54.333-5.541-66.915h35.616c-4.542 23.313-17.032 89.517-28.621 169.832-12.973 89.903-27.363 215.914-23.483 312.162h-20.103zm97.018-401.634c-2.312 6.249-11.359 32.942-20.005 89.188-15.782 102.67-18.08 225.161-17.082 312.447H369.22c-7.022-170.065 43.873-438.553 52.382-481.994h9.523v80.359z" fill="#345c04"/></svg>