<svg xmlns="http://www.w3.org/2000/svg" viewBox="0 0 442 442" width="512" height="512"><path d="M435.827 83.09a10 10 0 0 0-10.898 2.167L241.947 268.239a9.971 9.971 0 0 0-2.929 7.011v.06c0 67.706-55.082 122.788-122.788 122.788-53.062 0-96.23-43.169-96.23-96.23 0-41.347 33.638-74.984 74.984-74.984 31.975 0 57.987 26.013 57.987 57.987 0 24.477-19.913 44.39-44.39 44.39-18.479 0-33.512-15.034-33.512-33.512 0-13.68 11.13-24.81 24.81-24.81 5.522 0 10-4.477 10-10s-4.478-10-10-10c-24.708 0-44.81 20.102-44.81 44.81 0 29.507 24.005 53.512 53.512 53.512 17.449 0 33.298-6.976 44.906-18.286.214-.181.422-.372.624-.573L337.094 147.42c12.161-12.162 18.859-28.331 18.859-45.53 0-43.002-34.985-77.988-77.987-77.988-25.371 0-49.224 9.88-67.164 27.82L27.82 234.704c-.239.239-.464.488-.674.744C10.363 252.587 0 276.042 0 301.868c0 64.09 52.141 116.23 116.23 116.23 39.189 0 74.738-15.866 100.564-41.516.304-.24.597-.5.877-.781l182.507-182.506C427.147 166.326 442 130.468 442 92.329c0-4.045-2.437-7.691-6.173-9.239zM224.944 65.864c14.162-14.162 32.992-21.962 53.021-21.962 31.975 0 57.987 26.013 57.987 57.988 0 11.857-4.617 23.004-13.002 31.389L172.956 283.273c-.853-42.269-35.502-76.39-77.972-76.39a95.55 95.55 0 0 0-11.787.728L224.944 65.864zm161.092 113.289L254.611 310.578a142.428 142.428 0 0 0 4.347-31.064L419.01 119.461c-5.035 22.436-16.318 43.036-32.974 59.692z" fill="#345c04"/></svg>