<svg xmlns="http://www.w3.org/2000/svg" viewBox="0 0 416.427 416.427" width="512" height="512"><path d="M248.395 407.071c-.232-.587-23.436-59.583-26.832-120.736a969.83 969.83 0 0 1-1.113-27.112c-.102-3.768-3.185-6.762-7.011-6.635a6.83 6.83 0 0 0-6.636 7.011c.242 8.977.611 18.203 1.126 27.501 2.748 49.442 17.486 96.253 24.323 115.674h-62.437c6.793-19.862 21.811-68.366 24.443-115.674.707-12.735 1.164-26.614 1.369-41.247a6.834 6.834 0 0 0-6.734-6.919h-.096a6.823 6.823 0 0 0-6.82 6.734c-.201 14.438-.655 28.126-1.352 40.673-3.222 58.027-26.634 120.211-26.87 120.832a6.825 6.825 0 0 0 6.379 9.253h81.92a6.815 6.815 0 0 0 5.646-3 6.823 6.823 0 0 0 .695-6.355z" fill="#345c04"/><path fill="#345c04" d="M23.603 402.773h369.22v13.653H23.603zM307.033 101.7a60.778 60.778 0 0 0 3.29-19.78c0-33.877-27.563-61.44-61.44-61.44-4.796 0-9.568.567-14.247 1.686C223.007 8.202 205.704 0 187.443 0c-31.44 0-57.443 23.74-61 54.617-33.966-.502-61.88 27.412-61.88 61.437 0 19.965 9.762 38.601 25.856 50.057a61.273 61.273 0 0 0-5.376 25.037c0 33.877 27.563 61.44 61.44 61.44a61.453 61.453 0 0 0 33.543-9.987c11.592 14.923 29.191 23.641 48.377 23.641 32.771 0 59.634-25.795 61.355-58.146 24.416-8.568 41.045-31.665 41.045-57.907 0-19.134-8.789-36.877-23.77-48.489zm-25.798 94.72a6.831 6.831 0 0 0-5.13 6.844l.085 1.536c0 26.351-21.436 47.787-47.787 47.787-16.869 0-32.16-8.673-40.916-23.207a6.82 6.82 0 0 0-5.847-3.3 6.826 6.826 0 0 0-4.396 1.608 47.804 47.804 0 0 1-30.761 11.247c-26.351 0-47.787-21.436-47.787-47.787 0-8.397 2.256-16.701 6.53-24.016a6.841 6.841 0 0 0 .689-5.233 6.819 6.819 0 0 0-3.246-4.164c-15.084-8.468-24.453-24.436-24.453-41.68 0-26.351 21.436-47.787 47.787-47.787 2.034 0 4.028.174 5.997.423 1.911.259 3.884-.597 5.356-1.891 1.471-1.297 2.301-3.4 2.301-5.359 0-26.351 21.436-47.787 47.787-47.787 15.462 0 30.048 7.578 39.025 20.272a6.815 6.815 0 0 0 7.677 2.553 47.734 47.734 0 0 1 14.739-2.345c26.351 0 47.787 21.436 47.787 47.787 0 6.728-1.41 13.281-4.181 19.473a6.825 6.825 0 0 0 2.55 8.54c13.848 8.858 22.112 23.904 22.112 40.253-.003 21.807-14.773 40.82-35.918 46.233z"/><path d="M186.877 228.526c-2.43-2.884-6.741-3.256-9.619-.819a47.81 47.81 0 0 1-30.775 11.227c-26.351 0-47.787-21.436-47.787-47.787s21.436-47.787 47.787-47.787c3.768 0 6.827-3.058 6.827-6.827s-3.058-6.827-6.827-6.827c-33.877 0-61.44 27.563-61.44 61.44 0 33.877 27.563 61.44 61.44 61.44a61.476 61.476 0 0 0 39.574-14.442 6.826 6.826 0 0 0 .82-9.618zM248.883 20.48a61.405 61.405 0 0 0-18.958 2.983 6.825 6.825 0 0 0-4.39 8.598 6.828 6.828 0 0 0 8.598 4.39 47.797 47.797 0 0 1 14.746-2.318c26.351 0 47.787 21.436 47.787 47.787 0 19.917-12.544 37.939-31.218 44.841a6.822 6.822 0 0 0-4.038 8.769 6.831 6.831 0 0 0 6.403 4.465 6.79 6.79 0 0 0 2.369-.427c24.009-8.878 40.141-32.041 40.141-57.648 0-33.877-27.562-61.44-61.44-61.44z" fill="#345c04"/></svg>