<svg xmlns="http://www.w3.org/2000/svg" viewBox="0 0 512 512" width="512" height="512"><path d="M148.454 147.934c-1.664-5.291-7.303-8.23-12.59-6.564-5.289 1.664-8.227 7.301-6.564 12.589a26.367 26.367 0 0 1 1.209 7.923c0 14.536-11.822 26.363-26.353 26.363-14.536 0-26.363-11.826-26.363-26.363 0-14.532 11.826-26.353 26.363-26.353 2.618 0 5.201.381 7.677 1.132 5.306 1.61 10.912-1.384 12.523-6.689 1.61-5.306-1.384-10.912-6.69-12.523a46.457 46.457 0 0 0-13.509-1.999c-25.608 0-46.441 20.829-46.441 46.431 0 25.608 20.833 46.441 46.441 46.441 25.602 0 46.431-20.833 46.431-46.441a46.43 46.43 0 0 0-2.134-13.947zm353.507 231.548c-5.545 0-10.039 4.496-10.039 10.039v8.031c0 5.544 4.495 10.039 10.039 10.039S512 403.097 512 397.553v-8.031c0-5.544-4.495-10.04-10.039-10.04z" fill="#345c04"/><path d="M501.961 369.443c5.545 0 10.039-4.496 10.039-10.039V256c0-5.544-4.495-10.039-10.039-10.039H165.553c25.898-18.966 42.752-49.589 42.752-84.078 0-57.426-46.72-104.147-104.147-104.147C46.725 57.736 0 104.456 0 161.882v188.235c0 57.426 46.725 104.147 104.157 104.147h397.804c5.545 0 10.039-4.496 10.039-10.039V427.67c0-5.544-4.495-10.039-10.039-10.039s-10.039 4.496-10.039 10.039v6.515h-80.314V266.039h80.314v93.365c0 5.544 4.494 10.039 10.039 10.039zM104.157 77.814c46.355 0 84.068 37.712 84.068 84.068 0 46.361-37.713 84.078-84.068 84.078-46.361 0-84.078-37.717-84.078-84.078-.001-46.356 37.717-84.068 84.078-84.068zm287.372 356.372h-36.141v-26.815c0-5.544-4.495-10.039-10.039-10.039s-10.039 4.496-10.039 10.039v26.815h-34.806v-8.384c0-5.544-4.495-10.039-10.039-10.039s-10.039 4.496-10.039 10.039v8.384H245.63v-26.815c0-5.544-4.495-10.039-10.039-10.039-5.545 0-10.039 4.496-10.039 10.039v26.815h-34.806v-8.384c0-5.544-4.495-10.039-10.039-10.039-5.545 0-10.039 4.496-10.039 10.039v8.384h-34.806v-26.815c0-5.544-4.495-10.039-10.039-10.039-5.545 0-10.039 4.496-10.039 10.039v26.815h-11.625a83.735 83.735 0 0 1-23.17-3.273v-11.786c0-5.544-4.495-10.039-10.039-10.039-5.545 0-10.039 4.496-10.039 10.039v3.053c-24.443-14.721-40.83-41.511-40.83-72.063V223.283c18.966 25.901 49.589 42.756 84.078 42.756h11.625v26.815c0 5.544 4.495 10.039 10.039 10.039 5.545 0 10.039-4.496 10.039-10.039v-26.815h89.69v26.815c0 5.544 4.495 10.039 10.039 10.039 5.545 0 10.039-4.496 10.039-10.039v-26.815h89.68v26.815c0 5.544 4.495 10.039 10.039 10.039s10.039-4.496 10.039-10.039v-26.815h36.141v168.147z" fill="#345c04"/><path d="M451.765 323.012c-14.946 0-27.106 12.159-27.106 27.106 0 14.946 12.159 27.106 27.106 27.106 14.946 0 27.106-12.16 27.106-27.106 0-14.947-12.16-27.106-27.106-27.106zm0 34.133c-3.875 0-7.027-3.153-7.027-7.027s3.152-7.027 7.027-7.027 7.027 3.153 7.027 7.027-3.152 7.027-7.027 7.027z" fill="#345c04"/></svg>