<svg id="Layer_1" xmlns="http://www.w3.org/2000/svg" viewBox="0 0 512 512"><style>.st0{fill:#345c04}</style><path class="st0" d="M257 47.4c-109.1 0-197.8 88.7-197.8 197.8S147.9 443 257 443c109.1 0 197.8-88.7 197.8-197.8S366.1 47.4 257 47.4zm-9.8 20.5v75.2c-24.7-.8-48.7-4.7-70.6-11.3 17.7-35.9 43.2-59.4 70.6-63.9zm-60.5 13.6c-11 11.9-20.7 26.6-28.8 43.8-7.8-3.1-15.3-6.6-22.2-10.4 14.8-13.9 32.1-25.2 51-33.4zM79.1 255h53.8c1 32.9 7 64.3 17.4 91.9-10.1 4.1-19.7 8.7-28.6 14-24.8-28.8-40.4-65.6-42.6-105.9zm56.5 120.5c7-3.8 14.4-7.3 22.3-10.4 3 6.3 6.2 12.4 9.7 18.1 5.9 9.7 12.4 18.3 19.2 25.8-18.9-8.2-36.2-19.6-51.2-33.5zm111.6 47.1c-23.4-3.8-45.4-21-62.8-49.6-2.8-4.6-5.4-9.4-7.9-14.4 21.9-6.6 45.9-10.5 70.6-11.3l.1 75.3zm-78.5-82.2c-9.6-25.5-15.2-54.7-16.2-85.4h94.7v72.7c-27.8.8-54.3 5.2-78.5 12.7zm78.5-105h-94.7c.3-9.1 1-18.1 2.1-26.9.7-5.4-3.1-10.3-8.5-10.9-5.4-.7-10.3 3.1-10.9 8.5-1.2 9.6-1.9 19.4-2.3 29.3H79.1c2.2-40.3 17.8-77.1 42.5-105.9 8.9 5.2 18.5 9.9 28.6 14-1.9 5.2-3.7 10.5-5.4 16-1.6 5.2 1.4 10.7 6.6 12.2 5.2 1.6 10.7-1.4 12.2-6.6 1.6-5.2 3.3-10.2 5.1-15 24.2 7.5 50.7 11.9 78.5 12.7v72.6zm131.2-120.5c-7 3.8-14.4 7.3-22.3 10.4-3-6.3-6.2-12.4-9.7-18.1-5.9-9.7-12.4-18.3-19.2-25.8 18.9 8.2 36.2 19.6 51.2 33.5zM266.8 67.8c23.4 3.8 45.4 21 62.8 49.6 2.8 4.6 5.4 9.4 7.9 14.4-21.9 6.6-45.9 10.5-70.6 11.3V67.8zM327 409c5.6-6.1 10.9-12.9 15.9-20.4 3-4.5 1.7-10.6-2.8-13.6s-10.6-1.7-13.6 2.8c-16.8 25.6-37.8 41.2-59.7 44.8v-75.2c41.5 1.4 81 11.4 111.6 28.2-15 13.9-32.3 25.3-51.4 33.4zm65.4-48.1c-34.3-20.2-78.2-31.8-125.6-33.2V255h72.7c5.4 0 9.8-4.4 9.8-9.8s-4.4-9.8-9.8-9.8h-72.7v-72.7c27.7-.8 54.3-5.2 78.5-12.7 10.7 28.2 16.4 60.9 16.4 95.2 0 24.6-2.9 48.3-8.7 70.7-1.4 5.2 1.8 10.6 7.1 11.9.8.2 1.6.3 2.5.3 4.4 0 8.4-2.9 9.5-7.4 6.2-24 9.3-49.4 9.3-75.6 0-36.4-6.1-71.3-17.5-101.7 10.1-4.1 19.7-8.7 28.6-14 24.7 28.8 40.3 65.6 42.5 105.9h-30.4c-5.4 0-9.8 4.4-9.8 9.8s4.4 9.8 9.8 9.8H435c-2.3 40.4-17.9 77.2-42.6 106zM160.9 16.5c-2.1-4.5-7.4-6.5-11.9-4.4C97.8 35.7 55.2 76.2 29 126.2c-2.3 4.4-.6 9.8 3.8 12.1 1.3.7 2.7 1 4.1 1 3.2 0 6.3-1.7 7.9-4.8 24.3-46.5 64-84.2 111.6-106.1 4.6-2.1 6.6-7.4 4.5-11.9z"/><path class="st0" d="M346.7 474.8c-1.6-4.7-6.8-7.1-11.4-5.5-25.4 9-52.1 13.5-79.3 13.5-131.3 0-238.1-106.8-238.1-238.1 0-26.7 4.4-53 13.1-78 1.6-4.7-.9-9.8-5.5-11.4-4.7-1.6-9.8.9-11.4 5.5C4.7 187.8 0 216 0 244.7c0 141.2 114.8 256 256 256 29.2 0 57.9-4.9 85.2-14.5 4.7-1.6 7.1-6.8 5.5-11.4zm123.8-369.9C444 64.4 406.8 32.3 363 12.1c-4.5-2.1-9.8-.1-11.9 4.4-2.1 4.5-.1 9.8 4.4 11.9 40.8 18.8 75.4 48.6 100 86.3 25.3 38.7 38.6 83.6 38.6 130 0 38-8.7 74.4-25.9 108-16.4 32.1-40.3 60.5-69.1 82.3-4 3-4.7 8.6-1.8 12.5 1.8 2.3 4.4 3.6 7.2 3.6 1.9 0 3.8-.6 5.4-1.8 31-23.4 56.7-54 74.3-88.5 18.5-36.2 27.8-75.3 27.8-116.2 0-49.8-14.4-98.1-41.5-139.7z"/></svg>