<svg id="Capa_1" xmlns="http://www.w3.org/2000/svg" viewBox="0 0 416.9 358.5"><style>.st0{fill:#345c04}</style><path class="st0" d="M416.8 10.5h-7.7V2.7h-2.8V0H10.4v2.7H7.6v7.7H-.1L0 348h7.7v7.7h2.8v2.7h395.9v-2.7h2.8V348h7.6V10.5zm-31.7 321.2H31.7V26.8h353.4v304.9z"/><path class="st0" d="M358.5 224c-3.3-.3-7.6 2.3-6.5 5.4 4.2-3 5.5 3.2.3 3.3-1.9 0-3.6-1.4-4.5-3.9-.7-2.3-.1-8.3-1.6-12.1-1.2-3-3.1-6.2-5.4-5.5-1.5.5-1.7 3-3.2 2.2.9-.7 1.7-1.4 1.8-2.4-.9-1.7-2.7-3.6-3.7-5.4V202c.3-.3.7-.6 1.3-.9 1.5-.7 4.5.3 6.2-.3 2.8-1 5.3-4.2 5.9-6.5 1.5-5.6-5.4-11.2-9-5.8.3.6 1.9-1.1 1.7.3-1 2.7-4.3 3-6.2 2V158c.4-1 .9-1.7 1.5-2 2.3-1.1 6.3-1.6 7.9.7 4.1 6-6.8 8.8-5 2-4.1 2.5-1.1 9.3 2.3 11.1 4.8 2.5 13.8-2.2 15.9-7 2.1-4.9-1.2-11.1-5.4-13.6s-9.7-1.9-13.4-5.5c-1.2-1.1-2.2-3.1-.9-4.1 2.3-1.8 8.9 2.2 12 2.5 6.3.8 13-4.2 14-9 .9-4.4-1.4-10.3-5.9-10.6-3.3-.3-7.6 2.3-6.5 5.4 4.2-3 5.5 3.2.3 3.3-1.9 0-3.6-1.4-4.5-3.9-.7-2.3-.1-8.3-1.6-12.1-1.2-3-3.1-6.2-5.4-5.5-1.5.5-1.7 3-3.2 2.2.9-.7 1.7-1.5 1.8-2.4-.9-1.8-2.7-3.6-3.7-5.4v-3.7c.3-.3.7-.6 1.3-.9 1.5-.7 4.5.3 6.2-.3 2.8-1 5.3-4.2 5.9-6.5 1.5-5.5-5.4-11.2-9-5.8.3.6 1.9-1.1 1.7.3-1 2.7-4.3 3-6.2 2V77.6H331v-4.7h-1.7v-1.6H304c-1.2-.4-2-.9-2.3-1.5-1.4-2.3-1.9-6.2.8-7.8 7.1-4 10.5 6.7 2.3 4.9 3 4.1 11.1 1.1 13.2-2.3 3-4.8-2.6-13.6-8.4-15.7-5.9-2.1-13.2 1.2-16.2 5.3s-2.3 9.5-6.5 13.2c-1.3 1.2-3.6 2.2-4.8.9-2.2-2.3 2.6-8.8 3-11.8.9-6.2-5-12.8-10.7-13.8-5.2-.9-12.2 1.3-12.6 5.9-.3 3.2 2.7 7.4 6.4 6.4-3.6-4.2 3.8-5.4 3.9-.3 0 1.9-1.7 3.6-4.7 4.4-2.7.7-9.9.1-14.3 1.6-3.5 1.2-7.4 3-6.5 5.4.6 1.5 3.6 1.7 2.7 3.2-.9-.9-1.7-1.7-2.9-1.7-2.1.9-4.3 2.7-6.4 3.7h-4.4c-.4-.3-.7-.7-1-1.3-.8-1.5.4-4.4-.4-6.1-1.2-2.8-4.9-5.2-7.7-5.8-6.6-1.5-13.3 5.3-6.9 8.9.7-.3-1.3-1.9.3-1.7 3.2 1 3.6 4.2 2.4 6.1h-8.7c-.4 0-.9-.1-1.4 0H183c-1.2-.4-2-.9-2.3-1.5-1.4-2.3-1.9-6.2.8-7.8 7.2-4 10.5 6.7 2.3 4.9 3 4.1 11.1 1.1 13.2-2.3 3-4.8-2.6-13.6-8.4-15.7-5.9-2.1-13.2 1.2-16.2 5.3s-2.2 9.5-6.5 13.2c-1.3 1.2-3.6 2.2-4.9.9-2.1-2.3 2.6-8.8 3-11.8.9-6.2-5-12.8-10.7-13.8-5.2-.9-12.2 1.3-12.7 5.9-.3 3.2 2.7 7.4 6.4 6.4-3.6-4.2 3.8-5.4 3.9-.3 0 1.9-1.7 3.6-4.7 4.4-2.7.7-9.9.1-14.3 1.6-3.5 1.2-7.4 3.1-6.5 5.4.6 1.5 3.6 1.7 2.7 3.2-.9-.9-1.7-1.7-2.9-1.7-2.1.9-4.3 2.6-6.4 3.6h-4.4c-.4-.3-.7-.7-1-1.3-.8-1.5.4-4.4-.4-6.1-1.2-2.8-4.9-5.2-7.7-5.8-6.6-1.5-13.3 5.3-6.9 8.9.7-.3-1.3-1.9.3-1.7 3.2.9 3.6 4.2 2.4 6.1h-8.7c-.4 0-.9-.1-1.4 0h-3.7V73h-1.7v4.7h-4.4V99c-.4 1-.9 1.7-1.5 2-2.3 1.1-6.3 1.6-7.9-.7-4.1-6 6.8-8.8 5-2 4.1-2.5 1.1-9.3-2.3-11.1-4.8-2.5-13.8 2.2-15.9 7-2.1 4.9 1.2 11.1 5.4 13.6s9.6 1.9 13.4 5.4c1.2 1.1 2.2 3 .9 4.1-2.3 1.8-8.9-2.2-12-2.5-6.3-.8-13 4.2-14 9-.9 4.4 1.4 10.3 5.9 10.6 3.3.3 7.5-2.3 6.5-5.4-4.2 3-5.5-3.2-.3-3.3 1.9 0 3.6 1.4 4.5 3.9.7 2.3.1 8.3 1.6 12.1 1.2 3 3.1 6.2 5.4 5.5 1.5-.5 1.7-3 3.2-2.2-.9.7-1.7 1.5-1.8 2.4.9 1.8 2.7 3.6 3.7 5.4v3.7c-.3.3-.7.6-1.3.9-1.5.7-4.5-.3-6.2.3-2.8 1-5.3 4.2-5.9 6.5-1.5 5.6 5.4 11.2 9 5.8-.3-.6-1.9 1.1-1.7-.3 1-2.7 4.3-3 6.2-2v7.3c0 .4-.1.8 0 1.2v24.4c-.4 1-.9 1.7-1.5 1.9-2.3 1.1-6.3 1.6-7.9-.7-4.1-6 6.8-8.8 5-2 4.1-2.5 1.1-9.3-2.3-11.1-4.8-2.5-13.8 2.2-15.9 7-2.1 4.9 1.2 11.1 5.4 13.6s9.7 1.9 13.4 5.4c1.2 1.1 2.2 3.1.9 4.1-2.3 1.8-8.9-2.2-12-2.5-6.3-.8-13 4.2-14 9-.9 4.4 1.4 10.3 5.9 10.6 3.3.3 7.5-2.3 6.5-5.4-4.2 3-5.5-3.2-.3-3.3 1.9 0 3.6 1.4 4.5 3.9.7 2.3.1 8.3 1.6 12.1 1.2 3 3.1 6.2 5.4 5.5 1.5-.5 1.7-3 3.2-2.2-.9.7-1.7 1.4-1.8 2.4.9 1.8 2.7 3.6 3.7 5.4v3.7c-.3.3-.7.6-1.3.9-1.5.7-4.5-.3-6.2.3-2.8 1-5.3 4.2-5.9 6.5-1.5 5.6 5.4 11.2 9 5.8-.3-.6-1.9 1.1-1.7-.3 1-2.7 4.3-3 6.2-2v7.3c0 .4-.1.8 0 1.1v3.1h4.7v4.7h1.7v1.6h25.3c1.2.4 2 .9 2.3 1.5 1.4 2.3 1.9 6.2-.8 7.8-7.2 4-10.5-6.7-2.3-4.9-3-4.1-11.1-1.1-13.2 2.2-3 4.8 2.6 13.6 8.4 15.7 5.9 2.1 13.2-1.2 16.2-5.3s2.2-9.5 6.5-13.2c1.3-1.2 3.6-2.2 4.9-.9 2.2 2.3-2.6 8.8-3 11.8-.9 6.2 5 12.8 10.7 13.8 5.2.9 12.2-1.3 12.7-5.9.3-3.2-2.7-7.5-6.4-6.4 3.6 4.2-3.8 5.4-3.9.2 0-1.9 1.7-3.6 4.7-4.4 2.7-.7 9.9-.1 14.3-1.6 3.6-1.2 7.4-3 6.5-5.4-.6-1.5-3.6-1.6-2.7-3.2.9.9 1.7 1.7 2.9 1.7 2.1-.9 4.3-2.6 6.4-3.6h4.4c.4.3.7.7 1 1.3.8 1.5-.4 4.4.4 6.1 1.2 2.8 4.9 5.2 7.7 5.8 6.6 1.5 13.3-5.3 6.9-8.9-.7.3 1.3 1.8-.3 1.7-3.2-1-3.6-4.2-2.4-6.1h8.7c.4 0 .9.1 1.4 0h29c1.2.4 2 .9 2.3 1.5 1.4 2.3 1.9 6.2-.8 7.8-7.1 4-10.5-6.7-2.3-4.9-3-4.1-11.1-1.1-13.2 2.3-3 4.8 2.6 13.6 8.4 15.7 5.9 2.1 13.2-1.2 16.2-5.3s2.2-9.5 6.5-13.2c1.4-1.2 3.6-2.2 4.9-.9 2.2 2.3-2.6 8.8-3 11.8-.9 6.2 5 12.8 10.7 13.8 5.2.9 12.2-1.3 12.7-5.8.3-3.2-2.7-7.5-6.4-6.4 3.6 4.2-3.8 5.4-3.9.3 0-1.9 1.7-3.6 4.7-4.4 2.7-.7 9.9-.1 14.4-1.6 3.5-1.2 7.4-3 6.5-5.4-.6-1.5-3.6-1.6-2.7-3.2.9.9 1.7 1.6 2.9 1.7 2.1-.9 4.3-2.6 6.4-3.6h4.3c.4.3.7.7 1 1.3.8 1.5-.4 4.4.4 6.1 1.2 2.8 4.9 5.2 7.7 5.8 6.6 1.4 13.3-5.3 6.9-8.9-.7.3 1.3 1.9-.3 1.7-3.2-1-3.6-4.2-2.4-6.1h8.7c.4.1.9.1 1.4 0h3.7v-1.6h1.7v-4.6h4.6v-21.3c.4-1 .9-1.7 1.5-1.9 2.3-1.2 6.3-1.6 7.9.7 4.1 6-6.8 8.8-5 2-4.1 2.6-1.1 9.3 2.3 11.1 4.8 2.5 13.8-2.2 15.9-7 2.1-4.9-1.2-11.1-5.4-13.6s-9.6-1.9-13.4-5.4c-1.2-1.1-2.2-3-.9-4.1 2.3-1.8 8.9 2.2 12 2.5 6.3.8 13-4.2 14-9 .7-4.4-1.5-10.3-6.1-10.7zm-42.2 47.1H100.5V87.4h215.8v183.7z"/><path class="st0" d="M288.3 203.1c-1.7-.1-4 1.2-3.4 2.9 2.2-1.6 2.9 1.7.1 1.7-1 0-1.9-.8-2.4-2.1-.4-1.2-.1-4.4-.9-6.4-.6-1.6-1.6-3.3-2.9-2.9-.8.2-.9 1.6-1.7 1.2.5-.4.9-.8.9-1.3-.5-.9-1.4-1.9-2-2.9v-1.9c.2-.2.4-.3.7-.5.8-.4 2.4.2 3.3-.2 1.5-.5 2.8-2.2 3.1-3.4.8-3-2.9-6-4.8-3.1.2.3 1-.6.9.2-.5 1.4-2.3 1.6-3.3 1.1v-17.4c.2-.5.5-.9.8-1 1.2-.6 3.4-.8 4.2.4 2.2 3.2-3.6 4.7-2.6 1-2.2 1.3-.6 4.9 1.2 5.9 2.6 1.3 7.3-1.2 8.5-3.7 1.1-2.6-.7-5.9-2.9-7.3-2.2-1.3-5.1-1-7.1-2.9-.6-.6-1.2-1.6-.5-2.2 1.2-1 4.7 1.2 6.4 1.3 3.4.4 6.9-2.2 7.4-4.8.5-2.3-.7-5.5-3.2-5.7-1.7-.1-4 1.2-3.4 2.9 2.2-1.6 2.9 1.7.1 1.7-1 0-1.9-.8-2.4-2.1-.4-1.2-.1-4.4-.9-6.4-.6-1.6-1.6-3.3-2.9-2.9-.8.2-.9 1.6-1.7 1.2.5-.4.9-.8.9-1.3-.5-.9-1.4-1.9-2-2.9v-2c.2-.2.4-.3.7-.5.8-.4 2.4.2 3.3-.2 1.5-.5 2.8-2.2 3.1-3.4.8-3-2.9-6-4.8-3.1.2.3 1-.6.9.1-.5 1.4-2.3 1.6-3.3 1.1v-6.1h-2.5v-2.5h-.9v-.9h-13.5c-.6-.2-1.1-.5-1.2-.8-.7-1.2-1-3.3.4-4.1 3.8-2.1 5.6 3.5 1.2 2.6 1.6 2.2 5.9.6 7-1.2 1.6-2.5-1.4-7.2-4.4-8.3-3.1-1.1-7 .6-8.6 2.8-1.6 2.2-1.2 5.1-3.5 7-.7.6-1.9 1.2-2.6.5-1.1-1.2 1.4-4.7 1.6-6.3.5-3.3-2.7-6.8-5.7-7.3-2.8-.5-6.5.7-6.7 3.1-.2 1.7 1.4 4 3.4 3.4-1.9-2.2 2-2.9 2.1-.1 0 1-.9 1.9-2.5 2.3-1.4.4-5.3.1-7.6.9-1.9.6-3.9 1.6-3.5 2.9.3.8 1.9.9 1.4 1.7-.5-.5-.9-.9-1.5-.9-1.1.5-2.3 1.4-3.4 1.9h-2.3c-.2-.2-.4-.4-.5-.7-.4-.8.2-2.4-.2-3.3-.6-1.5-2.6-2.8-4.1-3.1-3.5-.8-7.1 2.8-3.7 4.7.4-.1-.7-1 .2-.9 1.7.5 1.9 2.3 1.3 3.2h-20.8c-.6-.2-1.1-.5-1.2-.8-.7-1.2-1-3.3.4-4.1 3.8-2.1 5.6 3.5 1.2 2.6 1.6 2.2 5.9.6 7-1.2 1.6-2.5-1.4-7.2-4.4-8.3-3.1-1.1-7 .6-8.6 2.8-1.6 2.2-1.2 5.1-3.4 7-.7.6-1.9 1.2-2.6.5-1.1-1.2 1.4-4.7 1.6-6.3.5-3.3-2.7-6.8-5.7-7.3-2.8-.5-6.5.7-6.7 3.1-.2 1.7 1.4 4 3.4 3.4-1.9-2.2 2-2.9 2.1-.1 0 1-.9 1.9-2.5 2.3-1.4.4-5.3.1-7.6.9-1.9.6-3.9 1.6-3.5 2.9.3.8 1.9.9 1.4 1.7-.5-.5-.9-.9-1.5-.9-1.1.5-2.3 1.4-3.4 1.9h-2.3c-.2-.2-.4-.4-.5-.7-.4-.8.2-2.4-.2-3.3-.6-1.5-2.6-2.8-4.1-3.1-3.5-.8-7.1 2.8-3.7 4.7.4-.1-.7-1 .2-.9 1.7.5 1.9 2.3 1.3 3.2H144v.9h-.9v2.5h-2.5v11.3c-.2.5-.5.9-.8 1-1.2.6-3.4.8-4.2-.4-2.2-3.2 3.6-4.7 2.6-1 2.2-1.4.6-5-1.2-5.9-2.6-1.3-7.3 1.2-8.4 3.7-1.1 2.6.7 5.9 2.9 7.3 2.2 1.3 5.1 1 7.1 2.9.6.6 1.2 1.6.5 2.2-1.2 1-4.7-1.2-6.4-1.4-3.4-.4-6.9 2.2-7.4 4.8-.5 2.3.7 5.5 3.2 5.7 1.7.1 4-1.2 3.4-2.9-2.2 1.6-2.9-1.7-.1-1.7 1 0 1.9.8 2.4 2.1.4 1.2.1 4.4.9 6.4.6 1.6 1.6 3.3 2.9 2.9.8-.2.9-1.6 1.7-1.2-.5.4-.9.8-.9 1.3.5.9 1.4 1.9 2 2.9v1.9c-.2.2-.4.3-.7.5-.8.4-2.4-.2-3.3.2-1.5.5-2.8 2.2-3.1 3.4-.8 3 2.9 6 4.8 3.1-.2-.3-1 .6-.9-.2.5-1.4 2.3-1.6 3.3-1.1v17.4c-.2.5-.5.9-.8 1-1.2.6-3.4.8-4.2-.4-2.2-3.2 3.6-4.7 2.6-1 2.2-1.3.6-5-1.2-5.9-2.6-1.3-7.3 1.2-8.4 3.8-1.1 2.6.7 5.9 2.9 7.3 2.2 1.3 5.1 1 7.1 2.9.6.6 1.2 1.6.5 2.2-1.2 1-4.7-1.2-6.4-1.3-3.4-.4-6.9 2.2-7.4 4.8-.5 2.3.7 5.5 3.2 5.7 1.7.1 4-1.2 3.4-2.9-2.2 1.6-2.9-1.7-.1-1.7 1 0 1.9.8 2.4 2.1.4 1.2.1 4.4.9 6.4.6 1.6 1.6 3.3 2.9 2.9.8-.3.9-1.6 1.7-1.2-.5.4-.9.8-.9 1.3.5.9 1.4 1.9 2 2.9v1.9c-.2.2-.4.3-.7.5-.8.4-2.4-.2-3.3.2-1.5.5-2.8 2.2-3.1 3.4-.8 3 2.9 6 4.8 3.1-.2-.3-1 .6-.9-.2.5-1.4 2.3-1.6 3.3-1.1v6.1h2.5v2.5h.9v.9h13.5c.6.2 1.1.5 1.2.8.7 1.2 1 3.3-.4 4.1-3.8 2.1-5.6-3.5-1.2-2.6-1.6-2.2-5.9-.6-7 1.2-1.6 2.5 1.4 7.2 4.4 8.3 3.1 1.1 7-.6 8.6-2.8 1.6-2.2 1.2-5.1 3.4-7 .7-.6 1.9-1.2 2.6-.5 1.1 1.2-1.4 4.7-1.6 6.3-.5 3.3 2.7 6.8 5.7 7.3 2.8.5 6.5-.7 6.7-3.1.2-1.7-1.4-4-3.4-3.4 1.9 2.2-2 2.9-2.1.1 0-1 .9-1.9 2.5-2.3 1.4-.4 5.3-.1 7.6-.9 1.9-.6 3.9-1.6 3.5-2.9-.3-.8-1.9-.9-1.4-1.7.5.5.9.9 1.5.9 1.1-.5 2.3-1.4 3.4-1.9h2.3c.2.2.4.4.5.7.4.8-.2 2.4.2 3.3.6 1.5 2.6 2.8 4.1 3.1 3.5.8 7.1-2.8 3.7-4.7-.4.1.7 1-.2.9-1.7-.5-1.9-2.3-1.3-3.2h20.8c.6.2 1 .5 1.2.8.7 1.2 1 3.3-.4 4.1-3.8 2.2-5.6-3.5-1.2-2.6-1.6-2.2-5.9-.6-7 1.2-1.6 2.5 1.4 7.2 4.5 8.3 3.1 1.1 7-.7 8.6-2.8 1.6-2.2 1.2-5.1 3.4-7 .7-.6 1.9-1.2 2.6-.5 1.2 1.2-1.4 4.7-1.6 6.3-.5 3.3 2.7 6.8 5.7 7.3 2.8.5 6.5-.7 6.7-3.1.2-1.7-1.4-4-3.4-3.4 1.9 2.2-2 2.9-2.1.1 0-1 .9-1.9 2.5-2.3 1.4-.4 5.3-.1 7.6-.9 1.9-.6 3.9-1.6 3.5-2.9-.3-.8-1.9-.9-1.4-1.7.5.5.9.9 1.5.9 1.1-.5 2.3-1.4 3.4-1.9h2.3c.2.2.4.4.5.7.4.8-.2 2.4.2 3.3.6 1.5 2.6 2.8 4.1 3.1 3.5.8 7.1-2.8 3.7-4.7-.4.1.7 1-.2.9-1.7-.5-1.9-2.3-1.3-3.2h7.3v-.9h.9v-2.5h2.5V222c.2-.5.5-.9.8-1 1.2-.6 3.4-.8 4.2.4 2.2 3.2-3.6 4.7-2.6 1-2.2 1.4-.6 5 1.2 5.9 2.6 1.3 7.3-1.2 8.5-3.7 1.1-2.6-.7-5.9-2.9-7.3-2.2-1.3-5.1-1-7.1-2.9-.6-.6-1.2-1.6-.5-2.2 1.2-1 4.7 1.2 6.4 1.4 3.4.4 6.9-2.2 7.4-4.8.2-2.4-1-5.5-3.4-5.7zm-22.5 25H151v-97.7h114.8v97.7z"/></svg>