<svg xmlns="http://www.w3.org/2000/svg" viewBox="0 0 512 512" width="512" height="512"><path d="M511.41 116.54a8.42 8.42 0 0 0-.394-6.89 8.54 8.54 0 0 0-11.525-3.575l-154.958 81.559L12.567 9.55A8.528 8.528 0 0 0 0 17.067v298.667a8.54 8.54 0 0 0 4.492 7.517l332.8 179.2c.397.19.807.349 1.229.474.218.077.419.19.643.248.708.191 1.437.29 2.17.294h.008a8.526 8.526 0 0 0 2.126-.285c.249-.064.479-.186.722-.274a8.287 8.287 0 0 0 1.118-.424l97.791-51.469 64.284-33.19c.328-.225.638-.475.929-.746a8.382 8.382 0 0 0 1.417-1.137 17.58 17.58 0 0 0 1.681-2.768 8.403 8.403 0 0 0 .35-1.733c.111-.393.191-.794.241-1.199V119.467a8.417 8.417 0 0 0-.591-2.927zM273.067 448.485l-256-137.852V99.617l256 137.852v211.016zm-256-368.249v-48.91l309.25 165.897-46.518 24.484L17.067 80.236zM332.8 480.65l-42.667-22.975V246.659l42.667 22.975V480.65zm162.133-76.2l-59.088 31.098-85.979 44.391V269.685l145.067-76.351V404.45zm0-230.401l-153.552 80.817-43.473-23.408 197.025-103.7v46.291z" fill="#345c04"/></svg>