<svg xmlns="http://www.w3.org/2000/svg" viewBox="0 0 512 512" width="512" height="512"><path d="M470.573 369.837c-1.951-5.285-7.815-7.988-13.1-6.038l-106.072 39.139c-5.285 1.95-7.988 7.815-6.038 13.1a10.204 10.204 0 0 0 9.57 6.671 10.2 10.2 0 0 0 3.53-.633l106.072-39.139c5.285-1.95 7.988-7.815 6.038-13.1zm-135.236 49.901c-1.949-5.286-7.815-7.989-13.1-6.039l-4.492 1.657c-5.284 1.95-7.988 7.815-6.038 13.099a10.204 10.204 0 0 0 9.57 6.672 10.2 10.2 0 0 0 3.53-.633l4.492-1.657c5.284-1.95 7.988-7.814 6.038-13.099zm135.236-91.462c-1.951-5.285-7.815-7.986-13.1-6.038l-83.825 30.93c-5.285 1.95-7.988 7.815-6.038 13.1a10.204 10.204 0 0 0 9.57 6.671 10.2 10.2 0 0 0 3.53-.633l83.825-30.93c5.285-1.95 7.988-7.815 6.038-13.1zm0-41.129c-1.951-5.285-7.815-7.986-13.1-6.038l-83.825 30.93c-5.285 1.95-7.988 7.815-6.038 13.1a10.204 10.204 0 0 0 9.57 6.671 10.2 10.2 0 0 0 3.53-.633l83.825-30.93c5.285-1.95 7.988-7.815 6.038-13.1z" fill="#345c04"/><path d="M505.332 100.528L259.531 9.832a10.207 10.207 0 0 0-7.061 0L6.669 100.528l-.002.008c-.805.298-1.579.692-2.299 1.193A10.201 10.201 0 0 0 0 110.097v291.806a10.2 10.2 0 0 0 6.668 9.569l245.801 90.696c1.146.423 2.341.63 3.53.63 1.201 0 2.396-.218 3.528-.636l.004.006 245.801-90.696a10.2 10.2 0 0 0 6.668-9.569V110.097a10.2 10.2 0 0 0-6.668-9.569zM245.801 477.965l-225.403-83.17V124.732l45.896 16.936v123.578a10.2 10.2 0 0 0 6.668 9.569l110.151 40.645a10.2 10.2 0 0 0 13.73-9.569V189.838l48.956 18.064v270.063zm-69.355-295.654v108.943l-89.753-33.118V149.193l89.753 33.118zm-70.489-47.834l80.688-29.773 80.688 29.773-80.688 29.773-80.688-29.773zM256 189.922l-40.001-14.76 84.329-31.117a10.2 10.2 0 0 0 0-19.138L190.176 84.263a10.21 10.21 0 0 0-7.062 0L76.383 123.647l-36.72-13.55L256 30.273l216.337 79.825L256 189.922zm235.602 204.873L266.2 477.964V207.902l225.402-83.17v270.063z" fill="#345c04"/></svg>