<svg xmlns="http://www.w3.org/2000/svg" viewBox="0 0 512 512" width="512" height="512"><g fill="#345c04"><path d="M291.499 146.978H156.978c-5.522 0-10 4.478-10 10v134.521c0 5.522 4.478 10 10 10h134.521c5.522 0 10-4.478 10-10V156.978c0-5.522-4.478-10-10-10zm-10 134.521H166.978V166.978h114.521v114.521z"/><path d="M301.499 113.382V10c0-5.522-4.478-10-10-10H10C4.478 0 0 4.478 0 10v281.499c0 5.522 4.478 10 10 10h103.382c5.522 0 10-4.478 10-10V123.382h168.117c5.522 0 10-4.478 10-10zm-20-10H113.382c-5.522 0-10 4.478-10 10v168.117H20V20h261.499v83.382z"/><path d="M57.954 163.241c5.523 0 10-4.477 10-10V67.954h56.638c5.522 0 10-4.478 10-10s-4.478-10-10-10H57.954c-5.522 0-10 4.478-10 10v95.287c0 5.522 4.478 10 10 10zm0 98.4c5.523 0 10-4.478 10-10v-44.84c0-5.522-4.478-10-10-10s-10 4.478-10 10v44.84c0 5.522 4.478 10 10 10zM502 146.978H335.094c-5.522 0-10 4.478-10 10v168.116H156.978c-5.522 0-10 4.478-10 10V502c0 5.522 4.478 10 10 10H502c5.522 0 10-4.478 10-10V156.978c0-5.522-4.478-10-10-10zM492 492H166.978V345.094h168.116c5.522 0 10-4.478 10-10V166.978H492V492z"/><path d="M404.845 462.177h47.332c5.522 0 10-4.478 10-10V325.129c0-5.522-4.478-10-10-10s-10 4.478-10 10v117.048h-37.332c-5.522 0-10 4.478-10 10s4.478 10 10 10zm47.332-184.344c5.522 0 10-4.478 10-10v-53.56c0-5.522-4.478-10-10-10s-10 4.478-10 10v53.56c0 5.522 4.478 10 10 10zm-247.868-18.684c5.522 0 10-4.477 10-10v-51.068c0-5.522-4.478-10-10-10s-10 4.478-10 10v51.068c0 5.522 4.478 10 10 10z"/></g></svg>