<svg data-name="Layer 1" viewBox="0 0 370.78 80.29" xmlns="http://www.w3.org/2000/svg"><defs><style>.cls-1{fill:#345c04}</style></defs><title>logotype</title><path class="cls-1" d="M.61-.03h22.84a20 20 0 0 1 7 1.09 12.55 12.55 0 0 1 4.9 3.18 13.23 13.23 0 0 1 2.91 5.06 22.07 22.07 0 0 1 1 6.77 18 18 0 0 1-1.13 6.48 14.33 14.33 0 0 1-3.39 5.12A14.89 14.89 0 0 1 29.53 31a19.11 19.11 0 0 1-7 1.2H11.11v18H.61zM11.1 23.49h9.95a8.31 8.31 0 0 0 5.59-1.74q2-1.74 2-5.67a9.6 9.6 0 0 0-.53-3.38 5.72 5.72 0 0 0-3.9-3.64 11.08 11.08 0 0 0-3.2-.43h-9.9zm54.64 21.29a29.47 29.47 0 0 1-9.14-1.79 21.79 21.79 0 0 1-7-4.15 18 18 0 0 1-4.43-6.1 18.53 18.53 0 0 1-1.56-7.6 22.05 22.05 0 0 1 .41-4.08 18.53 18.53 0 0 1 4-8.44 17.38 17.38 0 0 1 4.1-3.52 22.74 22.74 0 0 1 5.79-2.53 31.17 31.17 0 0 1 7.74-1.11V-.03h10V5.4a31.39 31.39 0 0 1 7.76 1.11 22.4 22.4 0 0 1 5.79 2.53 17.51 17.51 0 0 1 4.08 3.52 18.53 18.53 0 0 1 4 8.44 22.05 22.05 0 0 1 .41 4.08 18.53 18.53 0 0 1-1.56 7.6 18 18 0 0 1-4.43 6.1 21.8 21.8 0 0 1-7 4.15 29.48 29.48 0 0 1-9.14 1.79v5.47h-9.82zm0-32.06a14.25 14.25 0 0 0-5.93 1.26 10.1 10.1 0 0 0-5.57 6.73 15.38 15.38 0 0 0-.5 4.07 13.94 13.94 0 0 0 1.11 5.86 11.63 11.63 0 0 0 2.84 3.93 10.94 10.94 0 0 0 3.86 2.22 13.38 13.38 0 0 0 4.19.7zm10 24.71a13.38 13.38 0 0 0 4.19-.7 11 11 0 0 0 3.86-2.22 11.6 11.6 0 0 0 2.84-3.95 14.06 14.06 0 0 0 1.11-5.88 16.17 16.17 0 0 0-.53-4 10.1 10.1 0 0 0-1.9-3.79A10.78 10.78 0 0 0 81.64 14a14 14 0 0 0-5.9-1.26zm25.81-11.31h19.07v9.23h-19.07zM128.14-.03h40.74v50.24h-10.49V8.61h-19.72v41.6h-10.53zm80.39 42.93a16.54 16.54 0 0 0 .19 2.75 6.57 6.57 0 0 0 .5 1.71 2.44 2.44 0 0 0 .7.92 2.74 2.74 0 0 0 .84.43v1.54h-10.7a17.73 17.73 0 0 1-.6-1.73 9.1 9.1 0 0 1-.33-2.61q-1.13 1.16-2.2 2.15a12.34 12.34 0 0 1-2.41 1.73 12.55 12.55 0 0 1-3.08 1.18 17.9 17.9 0 0 1-4.2.43 13.84 13.84 0 0 1-4.6-.73A10.18 10.18 0 0 1 179 48.5a9.73 9.73 0 0 1-2.39-3.59 13.45 13.45 0 0 1-.85-5 12.31 12.31 0 0 1 .72-4.26 10.68 10.68 0 0 1 2-3.45 10.87 10.87 0 0 1 3.21-2.46 13.49 13.49 0 0 1 4.26-1.32l9.47-1.4q.51-.07 1.11-.21a3.52 3.52 0 0 0 1.11-.46 2.67 2.67 0 0 0 .85-.89 2.92 2.92 0 0 0 .34-1.52 4.78 4.78 0 0 0-.29-1.69 3.17 3.17 0 0 0-1-1.33 4.8 4.8 0 0 0-1.83-.87 11.21 11.21 0 0 0-2.85-.31 10.17 10.17 0 0 0-3.13.39 4.57 4.57 0 0 0-1.86 1.09 4.18 4.18 0 0 0-1 1.64 10.89 10.89 0 0 0-.44 2h-9.67a11.13 11.13 0 0 1 .22-1.9 13 13 0 0 1 .82-2.65 14.16 14.16 0 0 1 1.67-2.91 11.69 11.69 0 0 1 2.84-2.68 15.77 15.77 0 0 1 4.29-2 21.22 21.22 0 0 1 6-.82 26.72 26.72 0 0 1 8.08 1 12.69 12.69 0 0 1 4.82 2.63 8.19 8.19 0 0 1 2.32 3.62 13.88 13.88 0 0 1 .6 4zm-9.67-10.83q-.89.48-1.78.87a10.9 10.9 0 0 1-2.36.67l-2.56.48a23.14 23.14 0 0 0-2.94.72 6.63 6.63 0 0 0-2.1 1.08 4.27 4.27 0 0 0-1.26 1.62 5.86 5.86 0 0 0-.43 2.39 5.19 5.19 0 0 0 .38 2.07 3.84 3.84 0 0 0 1 1.44 4.37 4.37 0 0 0 1.56.84 6.46 6.46 0 0 0 1.91.27 10.47 10.47 0 0 0 1.4-.12 9.2 9.2 0 0 0 1.81-.46 9.9 9.9 0 0 0 1.91-.94 6.67 6.67 0 0 0 1.71-1.56 8 8 0 0 0 1.23-2.34 10 10 0 0 0 .48-3.26zm18.21-19.1h9.23v5.33h.14a17.93 17.93 0 0 1 2.08-2.89 10.09 10.09 0 0 1 5.38-3.16 16.36 16.36 0 0 1 3.67-.38 15.93 15.93 0 0 1 3.52.41 14.48 14.48 0 0 1 3.54 1.32 14.74 14.74 0 0 1 3.26 2.36 14.38 14.38 0 0 1 2.7 3.57 20.12 20.12 0 0 1 1.85 4.94 27.5 27.5 0 0 1 .68 6.44 32.9 32.9 0 0 1-1 8.27 18.89 18.89 0 0 1-2.94 6.46 13.6 13.6 0 0 1-5 4.2 15.46 15.46 0 0 1-7 1.5 15.15 15.15 0 0 1-2.84-.27 11.57 11.57 0 0 1-2.8-.92 10.43 10.43 0 0 1-2.58-1.76 10.77 10.77 0 0 1-2.14-2.79h-.08v19h-9.67zm17.67 7.61a7.26 7.26 0 0 0-3.91 1 7.88 7.88 0 0 0-2.56 2.56 11.47 11.47 0 0 0-1.42 3.55 17.89 17.89 0 0 0-.44 3.93q0 1.06.12 2.31a15.43 15.43 0 0 0 .46 2.53 13 13 0 0 0 .94 2.48 8.08 8.08 0 0 0 1.52 2.12 7.1 7.1 0 0 0 2.22 1.49 8.67 8.67 0 0 0 6.15 0 7.11 7.11 0 0 0 2.22-1.49 8.1 8.1 0 0 0 1.52-2.12 13.17 13.17 0 0 0 .94-2.48 15.64 15.64 0 0 0 .46-2.53q.12-1.25.12-2.31a18 18 0 0 0-.44-3.93 11.49 11.49 0 0 0-1.42-3.55 7.84 7.84 0 0 0-2.58-2.56 7.28 7.28 0 0 0-3.9-1zm25.64-7.61h9.67v14.15L284 12.97h12.85l-15.38 15.48 16 21.77h-12.58L273.95 34.5l-3.9 3.93v11.79h-9.67zm49.42 21.66a12.06 12.06 0 0 0 .1 1.37 10.47 10.47 0 0 0 .41 1.85 9.84 9.84 0 0 0 .89 2 6.86 6.86 0 0 0 1.54 1.82 7.76 7.76 0 0 0 2.39 1.33 10 10 0 0 0 3.4.51 7.3 7.3 0 0 0 2-.29 6.76 6.76 0 0 0 1.86-.85 6.3 6.3 0 0 0 1.55-1.4 5 5 0 0 0 .91-1.83h10a7.44 7.44 0 0 1-.44 2.34 11.37 11.37 0 0 1-1.35 2.67 15.94 15.94 0 0 1-2.27 2.65 14.92 14.92 0 0 1-3.25 2.31 19.13 19.13 0 0 1-4.25 1.62 21.08 21.08 0 0 1-5.28.62 21.56 21.56 0 0 1-7-1.11 14.82 14.82 0 0 1-5.71-3.52 16.61 16.61 0 0 1-3.85-6.24 27.15 27.15 0 0 1-1.4-9.3 26.23 26.23 0 0 1 1-7.3 17.45 17.45 0 0 1 3.14-6.17 15.32 15.32 0 0 1 5.47-4.26 18.48 18.48 0 0 1 8-1.59 19.2 19.2 0 0 1 8.34 1.62 13.77 13.77 0 0 1 5.45 4.6 19.5 19.5 0 0 1 3 7.18 45.26 45.26 0 0 1 .89 9.33zm15.48-6.43a10 10 0 0 0-.74-4.1 7.48 7.48 0 0 0-1.85-2.61 6.44 6.44 0 0 0-2.44-1.37 9.07 9.07 0 0 0-2.56-.39 9 9 0 0 0-2.53.39 6.45 6.45 0 0 0-2.44 1.37 7.48 7.48 0 0 0-1.85 2.61 10 10 0 0 0-.73 4.1zm24.58-7.35h-11.28v-7.88h32.16v7.86H359.5v29.39h-9.64z"/><path d="M0 63.66h2.59v8.8l5.12-8.8h2.73v12.92H7.89v-8.75l-5.15 8.75H0zm13.26 3.31h2.48v3.46h3.66v-3.46h2.48v9.58H19.4v-4.1h-3.66v4.1h-2.48zm13.39 2.05h-2.91v-2h8.28v2h-2.9v7.56h-2.48zm9.03 3.55a3.1 3.1 0 0 0 0 .35 2.69 2.69 0 0 0 .11.47 2.54 2.54 0 0 0 .23.51 1.77 1.77 0 0 0 .4.47 2 2 0 0 0 .62.34 2.58 2.58 0 0 0 .87.13 1.85 1.85 0 0 0 .52-.08 1.73 1.73 0 0 0 .48-.22 1.64 1.64 0 0 0 .38-.35 1.29 1.29 0 0 0 .23-.47h2.58a1.9 1.9 0 0 1-.11.6 2.87 2.87 0 0 1-.35.69 4.05 4.05 0 0 1-.58.68 3.84 3.84 0 0 1-.83.59 4.91 4.91 0 0 1-1.09.42 5.42 5.42 0 0 1-1.36.16 5.54 5.54 0 0 1-1.8-.29 3.81 3.81 0 0 1-1.47-.9 4.28 4.28 0 0 1-1-1.6 7 7 0 0 1-.36-2.39 6.75 6.75 0 0 1 .26-1.88 4.5 4.5 0 0 1 .81-1.59 4 4 0 0 1 1.41-1.09 4.77 4.77 0 0 1 2.06-.41 4.94 4.94 0 0 1 2.14.42 3.54 3.54 0 0 1 1.4 1.18 5 5 0 0 1 .76 1.85 11.63 11.63 0 0 1 .23 2.4zm4-1.65a2.58 2.58 0 0 0-.19-1.05 1.93 1.93 0 0 0-.47-.67 1.68 1.68 0 0 0-.63-.35 2.36 2.36 0 0 0-.66-.1 2.34 2.34 0 0 0-.65.1 1.68 1.68 0 0 0-.63.35 1.93 1.93 0 0 0-.47.67 2.58 2.58 0 0 0-.19 1.05zm4.48-3.95h2.37v1.37a4.62 4.62 0 0 1 .54-.74 2.59 2.59 0 0 1 1.38-.81 4.2 4.2 0 0 1 .94-.1 4.09 4.09 0 0 1 .91.11 3.76 3.76 0 0 1 .91.34 3.82 3.82 0 0 1 .84.61 3.69 3.69 0 0 1 .69.92 5.18 5.18 0 0 1 .47 1.27 7.07 7.07 0 0 1 .18 1.66 8.47 8.47 0 0 1-.25 2.13 4.87 4.87 0 0 1-.76 1.66 3.5 3.5 0 0 1-1.27 1.08 4 4 0 0 1-1.81.39 3.89 3.89 0 0 1-.73-.07 3 3 0 0 1-.72-.24 2.67 2.67 0 0 1-.66-.45 2.76 2.76 0 0 1-.55-.72v4.9h-2.49zm4.54 2a1.87 1.87 0 0 0-1 .25 2 2 0 0 0-.66.66 2.94 2.94 0 0 0-.36.91 4.61 4.61 0 0 0-.11 1v.59a4 4 0 0 0 .12.65 3.33 3.33 0 0 0 .24.64 2.08 2.08 0 0 0 .39.54 1.81 1.81 0 0 0 .57.38 2.22 2.22 0 0 0 1.58 0 1.81 1.81 0 0 0 .57-.38 2.08 2.08 0 0 0 .39-.54 3.33 3.33 0 0 0 .24-.64 4 4 0 0 0 .12-.65v-.59a4.61 4.61 0 0 0-.11-1 2.94 2.94 0 0 0-.36-.91 2 2 0 0 0-.66-.66 1.87 1.87 0 0 0-.92-.25zm6.85-2h2.49v3.46h3.7v-3.46h2.48v9.58h-2.48v-4.1h-3.7v4.1h-2.49zm13.11 5.6a3.1 3.1 0 0 0 0 .35 2.69 2.69 0 0 0 .11.47 2.54 2.54 0 0 0 .23.51 1.77 1.77 0 0 0 .4.47 2 2 0 0 0 .62.34 2.58 2.58 0 0 0 .87.13 1.85 1.85 0 0 0 .52-.08 1.73 1.73 0 0 0 .48-.22 1.64 1.64 0 0 0 .38-.35 1.29 1.29 0 0 0 .23-.47h2.58a1.9 1.9 0 0 1-.11.6 2.87 2.87 0 0 1-.35.69 4.05 4.05 0 0 1-.58.68 3.84 3.84 0 0 1-.83.59 4.91 4.91 0 0 1-1.09.42 5.42 5.42 0 0 1-1.36.16 5.54 5.54 0 0 1-1.8-.29 3.81 3.81 0 0 1-1.47-.9 4.28 4.28 0 0 1-1-1.6 7 7 0 0 1-.36-2.39 6.75 6.75 0 0 1 .26-1.88 4.5 4.5 0 0 1 .81-1.59 4 4 0 0 1 1.41-1.09 4.77 4.77 0 0 1 2.06-.41 4.94 4.94 0 0 1 2.14.42 3.54 3.54 0 0 1 1.4 1.18 5 5 0 0 1 .76 1.85 11.63 11.63 0 0 1 .23 2.4zm4-1.65a2.58 2.58 0 0 0-.19-1.05 1.93 1.93 0 0 0-.47-.67 1.68 1.68 0 0 0-.63-.35 2.36 2.36 0 0 0-.66-.1 2.34 2.34 0 0 0-.65.1 1.68 1.68 0 0 0-.63.35 1.93 1.93 0 0 0-.47.67 2.58 2.58 0 0 0-.19 1.05zm6.62-1.9h-2.9v-2h8.28v2h-2.92v7.56h-2.48zm6.46 1.36h4.9v2.37h-4.9zm7.11-3.41h3.74l1.62 7 1.58-7h3.63v9.58h-2.34v-7.68l-1.8 7.71h-2.27l-1.79-7.71v7.71h-2.34zm21.07 7.72a4.26 4.26 0 0 0 0 .71 1.7 1.7 0 0 0 .13.44.62.62 0 0 0 .18.24.69.69 0 0 0 .22.11v.4h-2.71c0-.11-.1-.26-.15-.44a2.36 2.36 0 0 1-.08-.67q-.29.3-.57.55a3.13 3.13 0 0 1-.62.44 3.22 3.22 0 0 1-.79.3 4.6 4.6 0 0 1-1.08.11 3.59 3.59 0 0 1-1.18-.19 2.62 2.62 0 0 1-.94-.56 2.5 2.5 0 0 1-.62-.92 3.46 3.46 0 0 1-.22-1.28 3.17 3.17 0 0 1 .18-1.09 2.71 2.71 0 0 1 1.35-1.52 3.44 3.44 0 0 1 1.09-.34l2.43-.36.29-.05a.89.89 0 0 0 .29-.12.67.67 0 0 0 .22-.23.75.75 0 0 0 .09-.39 1.23 1.23 0 0 0-.07-.44.81.81 0 0 0-.25-.34 1.22 1.22 0 0 0-.47-.22 2.88 2.88 0 0 0-.73-.08 2.64 2.64 0 0 0-.8.1 1.2 1.2 0 0 0-.48.28 1.09 1.09 0 0 0-.25.42 2.83 2.83 0 0 0-.11.51h-2.53a2.89 2.89 0 0 1 .06-.49 3.37 3.37 0 0 1 .21-.68 3.64 3.64 0 0 1 .43-.75 3 3 0 0 1 .73-.69 4.08 4.08 0 0 1 1.1-.51 5.46 5.46 0 0 1 1.56-.21 6.86 6.86 0 0 1 2.08.26 3.27 3.27 0 0 1 1.24.68 2.11 2.11 0 0 1 .6.93 3.57 3.57 0 0 1 .15 1zm-2.49-2.79l-.46.22a2.81 2.81 0 0 1-.61.17l-.66.12a6 6 0 0 0-.76.18 1.68 1.68 0 0 0-.54.28 1.09 1.09 0 0 0-.33.42 1.51 1.51 0 0 0-.11.62 1.34 1.34 0 0 0 .1.53 1 1 0 0 0 .27.37 1.14 1.14 0 0 0 .4.21 1.67 1.67 0 0 0 .49.07h.36a2.3 2.3 0 0 0 .47-.12 2.54 2.54 0 0 0 .49-.24 1.72 1.72 0 0 0 .44-.4 2.06 2.06 0 0 0 .32-.6 2.58 2.58 0 0 0 .12-.84zm5.08-4.93h6.44v2h-4v7.56h-2.49zm16.05 7.72a4.26 4.26 0 0 0 0 .71 1.7 1.7 0 0 0 .13.44.62.62 0 0 0 .18.24.69.69 0 0 0 .22.11v.4h-2.75c0-.11-.1-.26-.15-.44a2.36 2.36 0 0 1-.08-.67q-.29.3-.57.55a3.13 3.13 0 0 1-.62.44 3.22 3.22 0 0 1-.79.3 4.6 4.6 0 0 1-1.08.11 3.59 3.59 0 0 1-1.18-.19 2.62 2.62 0 0 1-.94-.56 2.5 2.5 0 0 1-.62-.92 3.46 3.46 0 0 1-.22-1.28 3.17 3.17 0 0 1 .18-1.09 2.71 2.71 0 0 1 1.35-1.52 3.44 3.44 0 0 1 1.12-.35l2.43-.36.29-.05a.89.89 0 0 0 .29-.12.67.67 0 0 0 .22-.23.75.75 0 0 0 .09-.39 1.23 1.23 0 0 0-.07-.44.81.81 0 0 0-.25-.34 1.22 1.22 0 0 0-.47-.22 2.88 2.88 0 0 0-.73-.08 2.64 2.64 0 0 0-.8.1 1.2 1.2 0 0 0-.48.28 1.09 1.09 0 0 0-.25.42 2.83 2.83 0 0 0-.11.51h-2.49a2.89 2.89 0 0 1 .06-.49 3.37 3.37 0 0 1 .21-.68 3.64 3.64 0 0 1 .43-.75 3 3 0 0 1 .73-.69 4.08 4.08 0 0 1 1.1-.51 5.46 5.46 0 0 1 1.56-.21 6.86 6.86 0 0 1 2.08.26 3.27 3.27 0 0 1 1.24.68 2.11 2.11 0 0 1 .6.93 3.57 3.57 0 0 1 .15 1zm-2.49-2.79l-.46.22a2.81 2.81 0 0 1-.61.17l-.66.12a6 6 0 0 0-.76.18 1.68 1.68 0 0 0-.54.28 1.09 1.09 0 0 0-.33.42 1.51 1.51 0 0 0-.11.62 1.34 1.34 0 0 0 .1.53 1 1 0 0 0 .27.37 1.14 1.14 0 0 0 .4.21 1.67 1.67 0 0 0 .49.07h.36a2.3 2.3 0 0 0 .52-.12 2.54 2.54 0 0 0 .49-.24 1.72 1.72 0 0 0 .44-.4 2.06 2.06 0 0 0 .32-.6 2.58 2.58 0 0 0 .12-.84zm4.53-2.24a2.8 2.8 0 0 1 .32-1.35 2.58 2.58 0 0 1 .85-.91 3.81 3.81 0 0 1 1.27-.51 7.29 7.29 0 0 1 1.57-.16 5.19 5.19 0 0 1 1.63.23 3.41 3.41 0 0 1 1.13.61 2.34 2.34 0 0 1 .66.87 2.48 2.48 0 0 1 .21 1 2.13 2.13 0 0 1-.12.75 1.83 1.83 0 0 1-.33.57 1.88 1.88 0 0 1-.49.4 2.39 2.39 0 0 1-.58.24 2.31 2.31 0 0 1 .85.29 2 2 0 0 1 .57.51 2 2 0 0 1 .32.65 2.56 2.56 0 0 1 .1.7 2.93 2.93 0 0 1-1.27 2.54 3.86 3.86 0 0 1-1.27.58 5.73 5.73 0 0 1-1.42.18 8 8 0 0 1-1.71-.17 3.7 3.7 0 0 1-1.34-.56 2.71 2.71 0 0 1-.87-1 3.48 3.48 0 0 1-.33-1.54h2.39a1.52 1.52 0 0 0 .12.62 1.42 1.42 0 0 0 .34.48 1.58 1.58 0 0 0 .53.32 2 2 0 0 0 .69.11 1.77 1.77 0 0 0 .76-.14 1.35 1.35 0 0 0 .48-.37 1.37 1.37 0 0 0 .25-.47 1.62 1.62 0 0 0 .07-.46 1.12 1.12 0 0 0-.37-1 2 2 0 0 0-1.19-.28h-1.14v-1.66h1a1.86 1.86 0 0 0 1.18-.29 1 1 0 0 0 .35-.84 1.3 1.3 0 0 0-.1-.54.93.93 0 0 0-.28-.36 1.15 1.15 0 0 0-.43-.19 2.43 2.43 0 0 0-.54-.06 1.75 1.75 0 0 0-1.07.3 1 1 0 0 0-.41.88zm9.88-2.69h2.49v5.91l3.49-5.91h2.61v9.58h-2.48v-5.77l-3.38 5.77h-2.72zm11.32 0h2.49v3.46h3.66v-3.46h2.48v9.58h-2.49v-4.1h-3.66v4.1h-2.49zm16.64 0h2.49v3.46h3.66v-3.46h2.48v9.58h-2.48v-4.1h-3.66v4.1h-2.49zm19.07 7.72a4.15 4.15 0 0 0 0 .71 1.67 1.67 0 0 0 .13.44.62.62 0 0 0 .18.24.7.7 0 0 0 .22.11v.4h-2.75c0-.11-.1-.26-.15-.44a2.36 2.36 0 0 1-.08-.67c-.19.2-.38.38-.57.55a3.1 3.1 0 0 1-.62.44 3.22 3.22 0 0 1-.79.3 4.6 4.6 0 0 1-1.08.11 3.59 3.59 0 0 1-1.18-.19 2.63 2.63 0 0 1-.94-.56 2.5 2.5 0 0 1-.62-.92 3.46 3.46 0 0 1-.22-1.28 3.17 3.17 0 0 1 .18-1.09 2.71 2.71 0 0 1 1.35-1.52 3.43 3.43 0 0 1 1.17-.35l2.43-.36.29-.05a.89.89 0 0 0 .29-.12.67.67 0 0 0 .22-.23.75.75 0 0 0 .09-.39 1.23 1.23 0 0 0-.08-.44.81.81 0 0 0-.25-.34 1.22 1.22 0 0 0-.47-.22 2.88 2.88 0 0 0-.73-.08 2.64 2.64 0 0 0-.8.1 1.19 1.19 0 0 0-.48.28 1.09 1.09 0 0 0-.25.42 2.83 2.83 0 0 0-.11.51h-2.49a2.88 2.88 0 0 1 .06-.49 3.37 3.37 0 0 1 .21-.68 3.61 3.61 0 0 1 .43-.75 3 3 0 0 1 .73-.69 4.09 4.09 0 0 1 1.1-.51 5.46 5.46 0 0 1 1.56-.21 6.87 6.87 0 0 1 2.08.26 3.28 3.28 0 0 1 1.24.68 2.11 2.11 0 0 1 .6.93 3.57 3.57 0 0 1 .15 1zm-2.49-2.79l-.46.22a2.81 2.81 0 0 1-.61.17l-.66.12a6 6 0 0 0-.76.18 1.67 1.67 0 0 0-.54.28 1.08 1.08 0 0 0-.33.42 1.51 1.51 0 0 0-.11.62 1.34 1.34 0 0 0 .1.53 1 1 0 0 0 .27.37 1.13 1.13 0 0 0 .4.21 1.67 1.67 0 0 0 .49.07h.36a2.3 2.3 0 0 0 .47-.12 2.54 2.54 0 0 0 .49-.24 1.72 1.72 0 0 0 .44-.4 2.06 2.06 0 0 0 .32-.6 2.58 2.58 0 0 0 .12-.84zm5.08-4.93h8.64v9.58h-2.5v-7.56h-3.66v7.56h-2.49zm10.75 4.82a5.93 5.93 0 0 1 .34-2 4.56 4.56 0 0 1 1-1.6 4.47 4.47 0 0 1 1.54-1 5.25 5.25 0 0 1 2-.38 5.34 5.34 0 0 1 2.06.38 4.38 4.38 0 0 1 1.54 1 4.59 4.59 0 0 1 1 1.6 6.39 6.39 0 0 1 0 4.08 4.63 4.63 0 0 1-1 1.61 4.34 4.34 0 0 1-1.54 1.05 5.34 5.34 0 0 1-2.06.38 5.25 5.25 0 0 1-2-.38 4.42 4.42 0 0 1-1.54-1.05 4.6 4.6 0 0 1-1-1.61 5.93 5.93 0 0 1-.34-2.08zm2.59 0a5 5 0 0 0 .12 1.08 2.88 2.88 0 0 0 .39.95 2.09 2.09 0 0 0 .71.67 2.12 2.12 0 0 0 1.08.25 2.23 2.23 0 0 0 1.11-.25 2 2 0 0 0 .71-.66 2.74 2.74 0 0 0 .37-.94 5.54 5.54 0 0 0 0-2.2 2.75 2.75 0 0 0-.37-.95 2 2 0 0 0-.71-.66 2.23 2.23 0 0 0-1.11-.25 2.12 2.12 0 0 0-1.08.25 2.1 2.1 0 0 0-.71.67 2.9 2.9 0 0 0-.39.95 5 5 0 0 0-.12 1.09zm18.44 4.79h-2.48v-7.56h-2.94l-.05 1.78a26.33 26.33 0 0 1-.19 2.64 6.9 6.9 0 0 1-.49 1.89 2.61 2.61 0 0 1-.91 1.15 2.59 2.59 0 0 1-1.47.39 5.09 5.09 0 0 1-.74 0 2.17 2.17 0 0 1-.52-.14v-2.08l.31.1a2.06 2.06 0 0 0 .46 0 .8.8 0 0 0 .5-.17 1.34 1.34 0 0 0 .38-.61 5.89 5.89 0 0 0 .25-1.25q.09-.8.11-2.07l.07-3.63h7.71zm2.92-9.61h2.49v3.33h2.54a6.23 6.23 0 0 1 1.59.18 3.16 3.16 0 0 1 1.18.57 2.5 2.5 0 0 1 .74 1 3.54 3.54 0 0 1 .25 1.4 3.31 3.31 0 0 1-.21 1.25 2.74 2.74 0 0 1-.54.87 2.54 2.54 0 0 1-.73.54 4.12 4.12 0 0 1-.79.3 4.06 4.06 0 0 1-.72.13h-5.79zm2.49 7.71h2.1a3.44 3.44 0 0 0 .58 0 1.51 1.51 0 0 0 .52-.19 1 1 0 0 0 .37-.38 1.24 1.24 0 0 0 .14-.63 1.22 1.22 0 0 0-.14-.62 1 1 0 0 0-.4-.39 1.81 1.81 0 0 0-.58-.2 4.18 4.18 0 0 0-.7-.06h-1.89zm8.26-7.71h2.49v3.46h3.7v-3.46h2.48v9.58h-2.48v-4.1h-3.7v4.1h-2.49zm11.32 0h2.49v3.33h2.26a6.23 6.23 0 0 1 1.59.18 3.16 3.16 0 0 1 1.18.57 2.5 2.5 0 0 1 .74 1 3.54 3.54 0 0 1 .25 1.4 3.31 3.31 0 0 1-.21 1.25 2.74 2.74 0 0 1-.54.87 2.54 2.54 0 0 1-.73.54 4.12 4.12 0 0 1-.79.3 4.06 4.06 0 0 1-.72.13h-5.5zm2.49 7.71h1.82a3.44 3.44 0 0 0 .58 0 1.51 1.51 0 0 0 .52-.19 1 1 0 0 0 .37-.38 1.24 1.24 0 0 0 .14-.63 1.22 1.22 0 0 0-.14-.62 1 1 0 0 0-.4-.39 1.81 1.81 0 0 0-.58-.2 4.18 4.18 0 0 0-.7-.06h-1.61zm7.12-7.71h2.49v9.58h-2.49zm4.41 0h3.06l1.56 2.79 1.61-2.79h3l-3.14 4.7 3.26 4.88h-3.11l-1.59-2.88-1.8 2.91h-3l3.25-4.88zm16.43 0h8.62v9.58h-2.48v-7.56h-3.66v7.56h-2.49zm10.75 4.82a5.93 5.93 0 0 1 .34-2 4.56 4.56 0 0 1 1-1.6 4.47 4.47 0 0 1 1.54-1 5.25 5.25 0 0 1 2-.38 5.34 5.34 0 0 1 2.06.38 4.38 4.38 0 0 1 1.54 1 4.59 4.59 0 0 1 1 1.6 6.39 6.39 0 0 1 0 4.08 4.63 4.63 0 0 1-1 1.61 4.34 4.34 0 0 1-1.54 1.05 5.34 5.34 0 0 1-2.06.38 5.25 5.25 0 0 1-2-.38 4.42 4.42 0 0 1-1.54-1.05 4.6 4.6 0 0 1-1-1.61 5.93 5.93 0 0 1-.34-2.08zm2.59 0a5 5 0 0 0 .12 1.08 2.88 2.88 0 0 0 .39.95 2.09 2.09 0 0 0 .71.67 2.12 2.12 0 0 0 1.08.25 2.23 2.23 0 0 0 1.11-.25 2 2 0 0 0 .71-.66 2.74 2.74 0 0 0 .37-.94 5.54 5.54 0 0 0 0-2.2 2.75 2.75 0 0 0-.37-.95 2 2 0 0 0-.71-.66 2.23 2.23 0 0 0-1.11-.25 2.12 2.12 0 0 0-1.08.25 2.1 2.1 0 0 0-.71.67 2.9 2.9 0 0 0-.39.95 5 5 0 0 0-.12 1.09zm9.39-4.82h2.49v3.64l3.59-3.64h3.3l-4 4 4.12 5.6h-3.24l-2.81-4-1 1v3h-2.49zm11.17 0h2.37v1.37a4.62 4.62 0 0 1 .54-.74 2.59 2.59 0 0 1 1.38-.81 4.19 4.19 0 0 1 .94-.1 4.09 4.09 0 0 1 .91.11 3.78 3.78 0 0 1 .91.34 3.84 3.84 0 0 1 .84.61 3.69 3.69 0 0 1 .69.92 5.18 5.18 0 0 1 .47 1.27 7.07 7.07 0 0 1 .18 1.66 8.52 8.52 0 0 1-.25 2.13 4.9 4.9 0 0 1-.76 1.66 3.51 3.51 0 0 1-1.28 1.08 4 4 0 0 1-1.81.39 3.89 3.89 0 0 1-.73-.07 3 3 0 0 1-.72-.24 2.67 2.67 0 0 1-.66-.45 2.76 2.76 0 0 1-.55-.72v4.9h-2.49zm4.54 2a1.87 1.87 0 0 0-1 .25 2 2 0 0 0-.66.66 2.92 2.92 0 0 0-.37.91 4.61 4.61 0 0 0-.11 1v.59a4 4 0 0 0 .12.65 3.27 3.27 0 0 0 .24.64 2.06 2.06 0 0 0 .39.54 1.81 1.81 0 0 0 .57.38 2.22 2.22 0 0 0 1.58 0 1.81 1.81 0 0 0 .57-.38 2.08 2.08 0 0 0 .39-.54 3.34 3.34 0 0 0 .24-.64 4.08 4.08 0 0 0 .12-.65v-.59a4.61 4.61 0 0 0-.11-1 2.92 2.92 0 0 0-.37-.91 2 2 0 0 0-.66-.66 1.87 1.87 0 0 0-.96-.25zm6.85-2h2.49v3.33h2.26a6.23 6.23 0 0 1 1.59.18 3.16 3.16 0 0 1 1.18.57 2.5 2.5 0 0 1 .74 1 3.54 3.54 0 0 1 .25 1.4 3.31 3.31 0 0 1-.21 1.25 2.74 2.74 0 0 1-.54.87 2.54 2.54 0 0 1-.73.54 4.12 4.12 0 0 1-.79.3 4.06 4.06 0 0 1-.72.13h-5.5zm2.49 7.71h1.82a3.44 3.44 0 0 0 .58 0 1.51 1.51 0 0 0 .52-.19 1 1 0 0 0 .37-.38 1.24 1.24 0 0 0 .14-.63 1.22 1.22 0 0 0-.14-.62 1 1 0 0 0-.4-.39 1.81 1.81 0 0 0-.58-.2 4.18 4.18 0 0 0-.7-.06h-1.61zm7.12-7.71h2.52v9.58h-2.49zm7.26 2.05h-2.9v-2h8.28v2h-2.9v7.56h-2.48zm7.26-2.05h2.49v5.91l3.51-5.91h2.61v9.58h-2.48v-5.77l-3.38 5.77h-2.75zm11.31 0h2.49v5.91l3.49-5.91h2.61v9.58h-2.48v-5.77l-3.42 5.8h-2.72zm7.32-4a2.8 2.8 0 0 1-.23 1.19 2.14 2.14 0 0 1-.63.8 2.57 2.57 0 0 1-1 .46 5.09 5.09 0 0 1-2.42 0 2.61 2.61 0 0 1-1-.46 2.09 2.09 0 0 1-.63-.8 2.86 2.86 0 0 1-.22-1.19h1.8a2.27 2.27 0 0 0 .06.46.92.92 0 0 0 .19.38.89.89 0 0 0 .37.25 1.64 1.64 0 0 0 .6.09 2 2 0 0 0 .6-.08.86.86 0 0 0 .38-.22.8.8 0 0 0 .19-.37 2 2 0 0 0 0-.52z"/></svg>