<svg xmlns="http://www.w3.org/2000/svg" viewBox="0 0 511.999 511.999" width="512" height="512"><path d="M71.239 362.833a10.05 10.05 0 0 0-7.066-2.928 10.07 10.07 0 0 0-7.066 2.928 10.069 10.069 0 0 0-2.928 7.066c0 2.638 1.069 5.207 2.928 7.076a10.059 10.059 0 0 0 7.066 2.918c2.638 0 5.207-1.059 7.066-2.918a10.05 10.05 0 0 0 2.928-7.076c0-2.629-1.059-5.207-2.928-7.066zM444.463 67.631c-1.859-1.859-4.437-2.928-7.066-2.928s-5.207 1.069-7.066 2.928-2.928 4.437-2.928 7.066 1.069 5.207 2.928 7.066c1.859 1.869 4.437 2.928 7.066 2.928s5.207-1.059 7.066-2.928a10.05 10.05 0 0 0 2.928-7.066 10.07 10.07 0 0 0-2.928-7.066zm-260.802 215.16c-1.859-1.859-4.437-2.928-7.066-2.928s-5.207 1.069-7.066 2.928c-1.869 1.859-2.928 4.437-2.928 7.066s1.059 5.207 2.928 7.066c1.859 1.859 4.437 2.928 7.066 2.928s5.207-1.069 7.066-2.928 2.928-4.437 2.928-7.066-1.069-5.207-2.928-7.066z" fill="#345c04"/><path d="M490.104 21.995C461.359-6.752 415.722-7.4 386.208 20.52c-9.08 8.589-15.899 19.365-19.719 31.164-9.793 30.243-27.509 59.091-51.305 83.679l-71.17-71.17c-14.807-14.806-38.9-14.806-53.707 0l-7.766 7.767c-12.542 12.542-14.456 31.747-5.75 46.327L8.931 286.146C3.236 291.842.099 299.413.099 307.467c0 8.055 3.137 15.627 8.832 21.321l22.196 22.196c3.904 3.904 10.232 3.903 14.133 0 3.903-3.903 3.904-10.231 0-14.133l-22.196-22.197c-3.964-3.964-3.964-10.412 0-14.375l58.976-58.974c4.923-4.92 11.471-7.625 18.419-7.61 6.984.012 13.574 2.762 18.556 7.744 5.095 5.095 7.901 11.869 7.901 19.074 0 7.205-2.806 13.98-7.901 19.074l-19.941 19.94c-15.285 15.286-15.285 40.158 0 55.443l14.253 14.253c14.21 14.209 37.34 14.219 51.548.037l20.732-20.618a12.315 12.315 0 0 1 8.766-3.631c3.311 0 6.424 1.289 8.766 3.631 4.833 4.834 4.833 12.699 0 17.532l-10.737 10.737c-6.225 6.225-9.653 14.502-9.653 23.306s3.429 17.081 9.653 23.306c6.225 6.224 14.5 9.652 23.304 9.651h.006c8.805-.001 17.081-3.431 23.306-9.656l9.939-9.939a13.411 13.411 0 0 1 9.546-3.957h.024c3.635.006 7.068 1.441 9.666 4.039l.418.417a12.759 12.759 0 0 1 3.762 9.081c0 3.429-1.335 6.652-3.758 9.077l-56.799 56.799a10.097 10.097 0 0 1-7.188 2.977 10.099 10.099 0 0 1-7.188-2.977l-45.642-45.641 3.155-19.911a9.998 9.998 0 0 0-2.65-8.474 9.998 9.998 0 0 0-8.35-3.019l-21.153 2.407-25.237-25.242c-3.903-3.903-10.231-3.903-14.133 0-3.903 3.903-3.904 10.231 0 14.133l28.647 28.648a9.988 9.988 0 0 0 8.197 2.863l12.885-1.466-1.895 11.962a9.994 9.994 0 0 0 2.804 8.631l49.243 49.242c5.695 5.696 13.267 8.832 21.321 8.832 8.054 0 15.627-3.137 21.321-8.832L393.801 335.32c5.828 3.496 12.513 5.362 19.484 5.362 10.144 0 19.681-3.951 26.854-11.123l7.766-7.766c14.807-14.807 14.807-38.9 0-53.708l-71.182-71.182c23.274-22.727 51.958-40.174 85.329-51.845 10.612-3.711 20.05-9.65 28.051-17.651 29.063-29.063 29.063-76.351.001-105.412zM289.988 410.867a32.774 32.774 0 0 0-7.241-10.921l-.418-.418c-6.365-6.364-14.805-9.878-23.766-9.894h-.061c-8.944 0-17.351 3.483-23.679 9.811l-9.939 9.939c-5.06 5.061-13.29 5.061-18.348.004-2.45-2.45-3.799-5.707-3.799-9.171s1.349-6.723 3.8-9.172l10.737-10.737c12.626-12.627 12.626-33.172 0-45.8-6.117-6.116-14.249-9.485-22.9-9.485s-16.783 3.369-22.88 9.466l-20.725 20.612c-6.429 6.417-16.885 6.413-23.307-.011l-14.253-14.253c-7.492-7.492-7.492-19.683 0-27.175l19.941-19.94c18.311-18.311 18.311-48.106 0-66.417-6.733-6.733-15.157-11.133-24.291-12.817l81.25-81.25 26.263 26.263-19.73 19.73c-3.903 3.903-3.904 10.231 0 14.133 1.952 1.952 4.509 2.927 7.067 2.927s5.116-.976 7.067-2.927l19.73-19.73 24.089 24.089-53.538 53.538c-3.903 3.903-3.904 10.231 0 14.133a9.961 9.961 0 0 0 7.067 2.927 9.965 9.965 0 0 0 7.067-2.927l53.539-53.538 15.761 15.761 47.89 47.89c-.076.071-.157.135-.231.209l-42.443 42.443c-3.903 3.903-3.903 10.231 0 14.134 1.952 1.952 4.509 2.927 7.067 2.927s5.116-.975 7.067-2.927l42.443-42.443c.074-.074.138-.155.209-.231l32.372 32.372-88.877 88.876zm143.783-128.648c7.014 7.013 7.014 18.426 0 25.44l-7.766 7.766a17.869 17.869 0 0 1-12.72 5.269 17.87 17.87 0 0 1-12.72-5.269L196.673 111.534c-7.015-7.014-7.015-18.426 0-25.44l7.766-7.766a17.933 17.933 0 0 1 12.72-5.261c4.607 0 9.213 1.753 12.72 5.261l78.274 78.274.002.002 23.671 23.671 101.945 101.944zm42.2-168.946c-5.86 5.86-12.763 10.207-20.517 12.918-36.235 12.672-67.471 31.697-92.882 56.562l-33.237-33.237c26.024-26.824 45.409-58.442 56.169-91.674 2.791-8.622 7.785-16.507 14.439-22.801 21.594-20.428 54.989-19.95 76.027 1.088 21.269 21.269 21.269 55.875.001 77.144z" fill="#345c04"/></svg>