<svg xmlns="http://www.w3.org/2000/svg" viewBox="0 0 441.6 441.6" width="512" height="512"><path d="M285.2 282.4c26.4-19.2 42.4-49.6 42.4-81.6 0-14.4-.8-26.4-2.4-36.8h19.2c4.8 0 8.8-4 8.8-8.8v-38.4c0-4.8-4-8.8-8.8-8.8h-15.2c-8-40-37.6-72.8-76.8-84V8.8c0-4.8-4-8.8-8.8-8.8h-44c-4.8 0-8.8 4-8.8 8.8V24C151.6 35.2 122 68 114 108H98.8c-4.8 0-8.8 4-8.8 8.8v38.4c0 4.8 4 8.8 8.8 8.8h18.4c-1.6 10.4-2.4 23.2-2.4 36.8 0 32 16 62.4 42.4 81.6-64.8 24.8-108.8 84-108.8 150.4 0 4.8 4 8.8 8.8 8.8h327.2c4.8 0 8.8-4 8.8-8.8 0-66.4-44-125.6-108-150.4zm-178.4-136v-20h14.4c2.4 0 4-.8 5.6-2.4.8-.8 2.4-3.2 3.2-5.6 4-34.4 28-63.2 60-75.2v56c0 4.8 4 8.8 8.8 8.8 4.8 0 8.8-4 8.8-8.8V17.6H234v80.8c0 4.8 4 8.8 8.8 8.8s8.8-4 8.8-8.8V43.2c32 12 56 40.8 60 75.2 0 2.4 1.6 4.8 3.2 5.6 3.2 2.4 4.8 2.4 6.4 2.4h14.4v20H106.8zm-40 276.8c4.8-60.8 50.4-113.6 114.4-129.6 4-.8 6.4-4 7.2-8 0-4-1.6-7.2-5.6-8.8-30.4-14.4-49.6-43.2-49.6-76 0-14.4.8-26.4 2.4-36.8h171.2c1.6 10.4 2.4 22.4 2.4 36.8 0 32.8-19.2 61.6-49.6 76-3.2 1.6-5.6 5.6-5.6 8.8 0 4 3.2 7.2 7.2 8 64 16 110.4 68.8 114.4 129.6H66.8z" fill="#345c04"/></svg>