<svg id="Capa_1" xmlns="http://www.w3.org/2000/svg" viewBox="0 0 512 512"><style>.st0{fill:#345c04}</style><path class="st0" d="M55.1 317.6c-1.9-1.9-4.4-2.9-7.1-2.9s-5.2 1.1-7.1 2.9c-1.9 1.9-2.9 4.4-2.9 7.1 0 2.6 1.1 5.2 2.9 7.1 1.9 1.9 4.4 2.9 7.1 2.9 2.6 0 5.2-1.1 7.1-2.9 1.9-1.9 2.9-4.4 2.9-7.1 0-2.6-1.1-5.2-2.9-7.1z"/><path class="st0" d="M444 0H38.1c0 10 0 20-.1 30v259.7c0 5.5 4.5 10 10 10s10-4.5 10-10v-46.2l.1.1c40.3 27.4 70.6 66.1 87.5 111.8 22.1 59.5 65.1 107.8 120.5 136.6H151.4l-8.5-9c-20.5-21.8-31.8-50.3-31.8-80.3 0-5.5-4.5-10-10-10s-10 4.5-10 10c0 33 11.7 64.4 33.1 89.3H68c-5.5 0-10-4.5-10-10V363.3c0-5.5-4.5-10-10-10s-10 4.5-10 10V482c0 10 0 20-.1 30h436c0-10 .1-20 .1-30V30c.1-10 .3-20 .4-30H444zm10 123.1c-10-5.7-21.2-8.7-32.8-8.7-19 0-36.8 8-50.2 22.6-27 29.5-27 77.4 0 106.9 13.4 14.6 31.2 22.6 50.2 22.6 11.6 0 22.8-3 32.8-8.7v96.4c-7.8 10.5-16.4 19.8-25.4 27.9-4.1 3.7-4.5 10-.9 14.1 2 2.2 4.7 3.4 7.5 3.4 2.4 0 4.7-.8 6.6-2.5 4.2-3.7 8.2-7.6 12.2-11.8V482c0 5.5-4.5 10-10 10H318.7l-13.6-4.8c-65.4-23.2-116.7-73.8-140.8-138.8-18.4-49.6-51.3-91.6-95-121.4L58 219.3V30c0-5.5 4.5-10 10-10h15.3c12 25.7 18.4 54.1 18.4 82.5V129c0 5.5 4.5 10 10 10s10-4.5 10-10v-26.6c0-28.2-5.7-56.4-16.5-82.5h106.1c-32.8 46.1-50.8 106.6-50.8 170.9 0 65.2 18.6 126.6 52.2 172.9C247 411 293 437 342.2 437c5.5 0 10-4.5 10-10s-4.5-10-10-10c-42.6 0-82.9-23.1-113.4-65-64.6-88.8-64.6-233.3 0-322.2 2.5-3.4 5-6.6 7.6-9.8H444c5.5 0 10 4.5 10 10v93.1zm0 24.8V233c-9.1 8.7-20.7 13.4-32.8 13.4-13.3 0-25.9-5.7-35.4-16.1-20.2-22-20.2-57.8 0-79.8 9.5-10.4 22.1-16.1 35.4-16.1 12.1 0 23.7 4.8 32.8 13.5z"/><path class="st0" d="M350.6 51.2c-1.9-5.2-7.6-7.9-12.8-6-20.3 7.4-38.9 20.6-54 38.1-3.6 4.2-3.1 10.5 1.1 14.1 1.9 1.6 4.2 2.4 6.5 2.4 2.8 0 5.6-1.2 7.6-3.5 12.8-14.9 28.6-26.1 45.6-32.3 5.2-1.9 7.9-7.6 6-12.8zM394 332c-.3-5.5-5-9.7-10.6-9.4h-.2c-5.5.3-9.7 5-9.4 10.6.3 5.3 4.7 9.4 10 9.4h.8c5.5-.4 9.7-5.1 9.4-10.6zm-43.5-13.2c-19.4-5.7-37.2-17.6-51.5-34.3-32.5-37.9-42.3-94.5-25-144.4 1.8-5.2-.9-10.9-6.2-12.7-5.2-1.8-10.9.9-12.7 6.2-19.6 56.4-8.4 120.8 28.7 164 16.8 19.6 38 33.6 61.1 40.4.9.3 1.9.4 2.8.4 4.3 0 8.3-2.8 9.6-7.2 1.6-5.3-1.5-10.9-6.8-12.4z"/></svg>