<svg xmlns="http://www.w3.org/2000/svg" viewBox="0 0 342.064 342.064" width="512" height="512"><path d="M269.441 0H72.62C40.527 0 14.417 26.111 14.417 58.205v274.859a9 9 0 0 0 9 9h246.024a9 9 0 0 0 9-9V115.715c27.837-4.338 49.206-28.476 49.206-57.51C327.647 26.111 301.536 0 269.441 0zM72.62 18c22.168 0 40.204 18.036 40.204 40.205S94.789 98.409 72.62 98.409 32.417 80.374 32.417 58.205 50.452 18 72.62 18zm187.821 306.064H32.417V100.255c10.457 10.002 24.625 16.154 40.204 16.154h187.821v207.655zm9-225.655H114.67c10.002-10.457 16.154-24.625 16.154-40.205 0-15.579-6.152-29.748-16.154-40.205h154.771c22.169 0 40.206 18.036 40.206 40.205s-18.036 40.205-40.206 40.205zM48.532 58.205c0-13.283 10.806-24.09 24.088-24.09a9 9 0 0 1 0 18 6.096 6.096 0 0 0-6.088 6.09 6.095 6.095 0 0 0 6.088 6.089c4.971 0 9 4.029 9 9s-4.029 9-9 9c-13.282 0-24.088-10.806-24.088-24.089z" fill="#345c04"/></svg>